<svg width="22" height="22" viewBox="0 0 22 22" fill="none" xmlns="http://www.w3.org/2000/svg">
<path d="M11.0956 20.2731C11.8151 19.5957 12.4458 18.8435 12.9877 18.0306C14.2258 17.9792 15.4218 17.7456 16.515 17.3298C17.2298 17.0589 17.8745 16.7225 18.4491 16.3254C16.7439 18.6379 14.0529 20.1329 11.1003 20.2731M9.66605 20.231C9.1101 20.175 8.55882 20.0675 8.01689 19.9134C7.47028 19.7592 6.95171 19.5583 6.44715 19.32C6.09209 18.3389 5.86784 17.3298 5.77907 16.316C6.6714 16.8066 7.64781 17.213 8.69431 17.512C9.73146 17.8064 10.7779 17.9745 11.8104 18.0259C11.1984 18.8435 10.4836 19.5863 9.66605 20.2357M6.1902 12.0039C6.47985 10.9761 6.90032 10.009 7.42824 9.1214C8.33457 9.82217 9.42311 10.3688 10.6191 10.7052C11.4927 10.9528 12.3804 11.0789 13.2494 11.0789C13.567 11.0789 13.8707 11.0602 14.1697 11.0275C14.1557 12.06 14.0062 13.1018 13.7165 14.1343C13.4222 15.1808 12.9924 16.1619 12.4458 17.0682C11.3012 17.0682 10.1239 16.9047 8.95593 16.573C7.77395 16.2366 6.69008 15.7554 5.72768 15.1668C5.73703 14.1063 5.88653 13.0457 6.18552 11.9993M4.7793 14.5174C2.96662 13.1392 1.76129 11.3499 1.44827 9.5185C2.30789 7.94876 3.57863 6.70138 5.07362 5.86045C5.26517 6.53787 5.61556 7.20594 6.12012 7.84131C6.29298 8.06089 6.47985 8.26645 6.68541 8.46734C6.06873 9.46711 5.58286 10.5603 5.25116 11.733C4.98953 12.6533 4.83536 13.583 4.7793 14.5174ZM2.19577 15.3209C1.49966 14.0736 1.09321 12.714 0.990431 11.3265C1.70055 12.9757 3.01801 14.508 4.76528 15.6947C4.79799 16.6758 4.94281 17.6475 5.19977 18.6052C3.97107 17.769 2.94326 16.6571 2.19577 15.3209ZM1.4763 7.50961C2.21446 5.31384 3.71412 3.50117 5.62023 2.33788C5.37262 2.70228 5.18108 3.10406 5.05961 3.53854C4.93814 3.96835 4.88675 4.41218 4.91011 4.856C3.56462 5.55211 2.3733 6.54254 1.43426 7.77591C1.44827 7.68714 1.46229 7.60305 1.48098 7.51428M5.99865 3.80484C6.36305 2.52475 7.56839 1.55768 9.19419 1.1559C9.7081 1.52965 10.1893 1.9361 10.6331 2.37058C10.1332 2.6322 9.7735 3.03865 9.62868 3.55256C9.61466 3.60395 9.60532 3.65067 9.59597 3.70206C8.31589 3.7114 7.05916 3.95901 5.8912 4.41218C5.90521 4.20661 5.94259 4.00105 5.99865 3.80484ZM10.9274 0.950338C11.7076 0.950338 12.5019 1.06246 13.2914 1.28671C13.2914 1.28671 13.2914 1.28671 13.2961 1.28671C13.4269 1.32409 13.553 1.36613 13.6838 1.40818C13.7446 1.42687 13.8053 1.45023 13.866 1.46891C13.9034 1.48293 13.9408 1.49694 13.9782 1.51096C14.6603 1.76324 15.2816 2.0856 15.8282 2.45934C15.2956 2.53877 14.7677 2.65089 14.2538 2.79572C13.9128 2.54344 13.5063 2.3332 13.0391 2.20239C12.7028 2.10428 12.357 2.05757 12.016 2.05757C11.9085 2.05757 11.8058 2.06224 11.703 2.07158C11.3432 1.67915 10.9555 1.31007 10.5397 0.959682C10.6705 0.95501 10.7966 0.950338 10.9274 0.950338ZM18.1875 7.25733C18.1314 7.45822 18.052 7.64509 17.9586 7.8273C17.2064 6.82752 16.2674 5.96323 15.1835 5.28114C15.2022 5.23442 15.2162 5.1877 15.2302 5.13631C15.375 4.61774 15.2816 4.08047 14.9966 3.60395C15.604 3.46379 16.2253 3.36568 16.8654 3.32364C18.0193 4.4916 18.5659 5.92585 18.1875 7.25266M19.1219 7.51895C19.248 7.07513 19.2901 6.62663 19.262 6.17346C20.3179 8.21973 20.6075 10.5323 20.0889 12.7701C20.0562 12.8589 20.0235 12.943 19.9862 13.0317C19.8367 11.4854 19.3368 10.0184 18.5566 8.71962C18.8042 8.35521 18.9957 7.95344 19.1219 7.52363M14.6042 6.07068C15.6974 6.74343 16.6271 7.62173 17.3512 8.64954C16.7953 9.21016 16.0244 9.63063 15.1134 9.87356C15.02 8.63552 14.7443 7.42085 14.3099 6.27157C14.4173 6.21084 14.5154 6.14543 14.6042 6.07068ZM12.8429 5.66423C12.5906 5.66423 12.3383 5.62686 12.0861 5.55678C11.0723 5.2718 10.3762 4.47291 10.5584 3.81885C10.6939 3.347 11.2778 3.02931 12.0113 3.02931C12.2636 3.02931 12.5159 3.06668 12.7682 3.13676C13.7819 3.42174 14.4781 4.22063 14.2958 4.87469C14.1604 5.34655 13.5764 5.66423 12.8429 5.66423ZM7.24136 7.65444C7.11522 7.52363 6.99843 7.38814 6.8863 7.24799C6.41912 6.65933 6.11077 6.04265 5.97062 5.43064C7.12457 4.93542 8.38129 4.6738 9.66605 4.6738C9.70343 4.78592 9.75949 4.89805 9.81555 5.0055C8.83913 5.75767 7.97017 6.64532 7.24136 7.65444ZM10.4322 5.75767C10.8013 6.07535 11.2732 6.33698 11.8198 6.49115C12.1561 6.58458 12.5019 6.63597 12.8429 6.63597C13.0298 6.63597 13.212 6.62196 13.3895 6.58926C13.8146 7.69648 14.0716 8.86445 14.1557 10.0604C13.866 10.0931 13.567 10.1118 13.2587 10.1118C12.4738 10.1118 11.6796 9.9997 10.8901 9.77546C9.78285 9.46244 8.78307 8.95788 7.9655 8.3085C8.6616 7.33675 9.49319 6.47713 10.4322 5.75767ZM19.0518 14.5174C18.337 15.3256 17.3653 15.9797 16.1739 16.4328C15.3657 16.7365 14.5014 16.9374 13.5997 17.0262C14.0436 16.2039 14.3986 15.3303 14.6603 14.4099C14.992 13.2373 15.1508 12.0506 15.1508 10.878C16.244 10.6257 17.1784 10.1539 17.8838 9.50449C18.7154 11.0042 19.1452 12.7327 19.0565 14.5221M21.2242 10.6211C21.2149 4.75322 16.4683 0.00195312 10.6098 0.00195312C4.75127 0.00195312 0 4.75322 0 10.6117C0 12.2515 0.373748 13.8073 1.03715 15.1948C1.03715 15.2041 1.04182 15.2088 1.04649 15.2182C1.12124 15.3723 1.19599 15.5218 1.28009 15.6713C3.07875 18.979 6.58263 21.2262 10.6098 21.2262C16.4683 21.2262 21.2195 16.4749 21.2195 10.6164" fill="#9B8298"/>
</svg>
