<svg width="22" height="22" viewBox="0 0 22 22" fill="none" xmlns="http://www.w3.org/2000/svg">
<path d="M7.74607 5.56641L8.70847 8.53303H11.8339L9.30646 10.3691L10.2735 13.3404L7.74607 11.5043L5.2186 13.3404L6.18567 10.3691L3.6582 8.53303H6.78367L7.74607 5.56641Z" fill="#F7C74F"/>
<path d="M15.468 4.24902L15.3746 5.28617L16.3323 5.69262L15.3185 5.92622L15.2298 6.96337L14.6925 6.07104L13.6787 6.30464L14.3608 5.51977L13.8282 4.62744L14.7859 5.03389L15.468 4.24902Z" fill="#F7C74F"/>
<path d="M18.7988 7.43467L18.313 8.35036L19.0371 9.09785L18.014 8.92032L17.5281 9.84067L17.3786 8.81287L16.3555 8.63067L17.2898 8.17283L17.1403 7.14502L17.8645 7.89251L18.7988 7.43467Z" fill="#F7C74F"/>
<path d="M17.7204 11.2939L18.0801 12.275L19.1172 12.2377L18.2997 12.8777L18.6547 13.8541L17.7904 13.2748L16.9729 13.9149L17.2578 12.9151L16.3936 12.3358L17.4354 12.2984L17.7204 11.2939Z" fill="#F7C74F"/>
<path d="M15.4125 14.2515L15.3658 15.2933L16.3375 15.6577L15.333 15.9333L15.2863 16.9752L14.7164 16.1062L13.7119 16.3772L14.3613 15.5689L13.7913 14.7L14.7631 15.0644L15.4125 14.2515Z" fill="#F7C74F"/>
<path d="M11.4082 1.09526C8.3295 1.09526 5.30681 2.58091 3.47544 5.33263C2.06455 7.44898 1.56466 9.98579 2.05987 12.4759C2.55976 14.9706 3.99869 17.1197 6.11503 18.5259C10.4832 21.4365 16.4024 20.2545 19.313 15.8863C22.2236 11.5182 21.0416 5.59892 16.6734 2.68836C15.057 1.60917 13.2209 1.09526 11.4082 1.09526ZM11.3755 21.2169C9.35263 21.2169 7.31103 20.6423 5.50302 19.4416C3.14374 17.8672 1.54131 15.4705 0.985356 12.6908C0.429406 9.91104 0.985353 7.0799 2.55977 4.72062C5.8067 -0.147446 12.408 -1.46491 17.2761 1.77735C22.1441 5.02429 23.4663 11.6256 20.2193 16.4937C18.1777 19.5584 14.8047 21.2169 11.3755 21.2169Z" fill="#F7C74F"/>
</svg>
