<svg width="34" height="33" viewBox="0 0 34 33" fill="none" xmlns="http://www.w3.org/2000/svg">
<path d="M26.4045 17.5664L26.964 19.0924L28.5772 19.0342L27.3055 20.0297L27.8578 21.5484L26.5135 20.6474L25.2419 21.6429L25.6851 20.0879L24.3408 19.1868L25.9612 19.1287L26.4045 17.5664Z" fill="#DD597C"/>
<path d="M10.8903 8.65771L12.3872 13.2719H17.2485L13.3173 16.1276L14.8215 20.749L10.8903 17.8933L6.95921 20.749L8.46336 16.1276L4.53223 13.2719H9.39346L10.8903 8.65771Z" fill="#DD597C"/>
<path d="M22.9022 6.60791L22.7569 8.22106L24.2465 8.85323L22.6697 9.21655L22.5316 10.8297L21.696 9.44181L20.1191 9.80513L21.1801 8.58438L20.3517 7.19649L21.8413 7.82867L22.9022 6.60791Z" fill="#DD597C"/>
<path d="M28.0835 11.5643L27.3278 12.9885L28.4541 14.1511L26.8628 13.875L26.1071 15.3065L25.8746 13.7079L24.2832 13.4245L25.7365 12.7124L25.504 11.1138L26.6303 12.2764L28.0835 11.5643Z" fill="#DD597C"/>
<path d="M22.8149 22.1655L22.7422 23.7859L24.2536 24.3527L22.6914 24.7814L22.6187 26.4019L21.7322 25.0503L20.1699 25.4717L21.18 24.2147L20.2935 22.8631L21.8049 23.4299L22.8149 22.1655Z" fill="#DD597C"/>
<path d="M16.5878 1.70353C11.7992 1.70353 7.0978 4.01426 4.24937 8.29418C2.05491 11.5859 1.2774 15.5315 2.04764 19.4045C2.82515 23.2848 5.0632 26.6274 8.35489 28.8145C15.149 33.3415 24.3555 31.5031 28.8825 24.709C33.4095 17.9149 31.5711 8.70836 24.777 4.18138C22.2628 2.50284 19.4071 1.70353 16.5878 1.70353ZM16.5369 33C13.3905 33 10.2151 32.1062 7.40299 30.2388C3.73345 27.79 1.24108 24.0623 0.376377 19.7388C-0.488327 15.4153 0.376373 11.0118 2.82516 7.34228C7.87532 -0.229333 18.1428 -2.27846 25.7144 2.76443C33.286 7.81459 35.3424 18.082 30.2922 25.6537C27.1168 30.4204 21.8704 33 16.5369 33Z" fill="#DD597C"/>
</svg>
