<svg width="32" height="32" viewBox="0 0 32 32" fill="none" xmlns="http://www.w3.org/2000/svg">
<path d="M1.54559 22.3412C1.54559 22.3412 1.53817 22.319 1.53076 22.3042C1.53076 22.319 1.53818 22.3264 1.54559 22.3412Z" fill="white"/>
<path d="M32 16.0035C32 7.16584 24.8357 0 16 0C7.16429 0 0 7.16584 0 16.0035C0 18.48 0.561775 20.8246 1.56741 22.9126C1.56741 22.9265 1.57434 22.9334 1.58127 22.9473C1.69224 23.1762 1.81014 23.4052 1.92804 23.6271C4.63979 28.6148 9.91764 32 15.9931 32C24.8288 32 31.9931 24.8342 31.9931 15.9965L32 16.0035ZM28.7334 21.886C27.6584 23.1069 26.1881 24.0919 24.3919 24.7717C23.1782 25.2296 21.8674 25.5279 20.508 25.6666C21.1738 24.4249 21.7148 23.1069 22.1032 21.7195C22.6025 19.9506 22.8383 18.1609 22.8453 16.3919C24.4959 16.0104 25.9038 15.2959 26.9649 14.3178C28.2202 16.5792 28.8652 19.1875 28.7265 21.886H28.7334ZM15.7365 8.67809C16.2982 9.16367 17.0056 9.55214 17.831 9.78106C18.3442 9.92673 18.8574 9.9961 19.3706 9.9961C19.655 9.9961 19.9324 9.96835 20.1959 9.92673C20.834 11.5985 21.2293 13.3605 21.3472 15.1641C20.9103 15.2127 20.4595 15.2404 19.9948 15.2404C18.8158 15.2404 17.609 15.067 16.4231 14.734C14.7586 14.2623 13.2466 13.4992 12.0121 12.5211C13.0594 11.0505 14.3147 9.7533 15.7365 8.67115V8.67809ZM10.9233 11.5361C10.736 11.3349 10.5557 11.1338 10.3893 10.9256C9.68185 10.0377 9.2241 9.10817 9.00911 8.18556C10.7499 7.44331 12.6433 7.04097 14.5782 7.04791C14.6407 7.22133 14.717 7.38088 14.8071 7.54737C13.3368 8.67809 12.026 10.0238 10.9233 11.543V11.5361ZM19.3706 8.53241C18.9961 8.53241 18.6077 8.47692 18.2263 8.37286C16.7005 7.94277 15.6463 6.74269 15.9237 5.75071C16.1248 5.04314 17.0056 4.56449 18.1153 4.56449C18.4898 4.56449 18.8782 4.61998 19.2596 4.72404C20.7854 5.15413 21.8396 6.35421 21.5622 7.34619C21.3611 8.05376 20.4803 8.53241 19.3706 8.53241ZM22.0269 9.14979C23.6775 10.1626 25.0785 11.4945 26.1743 13.0345C25.3351 13.8738 24.1699 14.512 22.7967 14.8797C22.6511 13.0137 22.2419 11.1823 21.583 9.44809C21.7425 9.35791 21.8882 9.25385 22.0269 9.14286V9.14979ZM28.8375 11.3419C29.0247 10.6759 29.0941 9.9961 29.0524 9.31628C30.6407 12.4032 31.0776 15.8855 30.3008 19.2638C30.2523 19.3956 30.1968 19.5274 30.1482 19.6592C29.9194 17.3284 29.1704 15.1086 27.9913 13.1524C28.3658 12.5974 28.6571 12.0009 28.8444 11.3488L28.8375 11.3419ZM27.4296 10.9395C27.3463 11.2378 27.2284 11.5222 27.0828 11.7997C25.9454 10.2944 24.5375 8.9833 22.9007 7.96358C22.9285 7.89421 22.9562 7.8179 22.977 7.74853C23.199 6.96466 23.0533 6.15998 22.6233 5.43854C23.5388 5.2235 24.482 5.08476 25.4391 5.01539C27.1799 6.77736 27.9983 8.94168 27.4365 10.9465L27.4296 10.9395ZM16.4786 1.429C17.6576 1.429 18.8574 1.60243 20.0434 1.93541C20.0434 1.93541 20.0433 1.93541 20.0503 1.93541C20.2445 1.9909 20.4387 2.05333 20.6329 2.11576C20.723 2.14351 20.8132 2.1782 20.9033 2.20595C20.9588 2.22676 21.0143 2.24756 21.0698 2.26837C22.0962 2.64991 23.0325 3.13549 23.8578 3.69738C23.0533 3.81531 22.2627 3.98873 21.4859 4.20377C20.9727 3.82224 20.3554 3.51008 19.655 3.30891C19.1418 3.16324 18.6285 3.09387 18.1153 3.09387C17.9558 3.09387 17.7963 3.10081 17.6437 3.11468C17.0958 2.52504 16.5132 1.96315 15.889 1.44288C16.0832 1.43594 16.2774 1.429 16.4786 1.429ZM9.04379 5.7299C9.59168 3.7945 11.4157 2.33774 13.8639 1.73423C14.6407 2.29612 15.3689 2.90657 16.0347 3.56557C15.2787 3.96098 14.7378 4.57837 14.5158 5.34837C14.495 5.42467 14.4811 5.50097 14.4673 5.57034C12.5323 5.58422 10.6459 5.95188 8.88426 6.64557C8.90507 6.33341 8.96056 6.02819 9.04379 5.7299ZM2.2332 11.328C3.34981 8.01214 5.60382 5.27899 8.48202 3.52395C8.10751 4.07891 7.82315 4.68242 7.6359 5.33449C7.44864 5.98656 7.37929 6.65251 7.40703 7.31845C5.38189 8.36592 3.57868 9.85736 2.16386 11.7234C2.18466 11.5916 2.20546 11.4598 2.2332 11.328ZM3.32207 23.1069C2.26789 21.22 1.65756 19.1736 1.50498 17.0856C2.57304 19.576 4.55657 21.886 7.19896 23.6757C7.24751 25.1533 7.46944 26.6239 7.85783 28.0668C6.00607 26.8043 4.45254 25.1255 3.329 23.1138L3.32207 23.1069ZM7.21977 21.8999C4.48722 19.8188 2.6632 17.1272 2.19159 14.3594C3.48852 11.987 5.40963 10.1071 7.66363 8.84457C7.95492 9.8643 8.48201 10.8771 9.24491 11.8344C9.50845 12.1604 9.7928 12.4795 10.098 12.7778C9.16862 14.2831 8.43347 15.9341 7.93412 17.703C7.5388 19.0904 7.30993 20.4917 7.2267 21.8999H7.21977ZM9.342 18.0984C9.77893 16.5445 10.417 15.0878 11.2146 13.7559C12.5808 14.8103 14.2245 15.6358 16.0277 16.1491C17.3455 16.5237 18.684 16.711 19.9948 16.711C20.4733 16.711 20.9311 16.6833 21.3819 16.6347C21.3611 18.1955 21.1392 19.7633 20.6953 21.3171C20.2514 22.8918 19.5995 24.3763 18.7742 25.7429C17.0542 25.7429 15.2718 25.4932 13.5102 24.9937C11.7278 24.4873 10.091 23.7589 8.64153 22.871C8.6554 21.2755 8.88426 19.6731 9.32813 18.0984H9.342ZM14.5852 30.5155C13.746 30.4253 12.9137 30.2658 12.0954 30.0369C11.277 29.801 10.4863 29.5027 9.73039 29.142C9.19636 27.6644 8.85653 26.1452 8.72475 24.6052C10.0702 25.3475 11.5405 25.9579 13.1218 26.4088C14.6892 26.8528 16.2705 27.1095 17.8171 27.1858C16.8947 28.4205 15.8127 29.5374 14.5852 30.5155ZM16.749 30.5779C17.831 29.5582 18.788 28.4275 19.5995 27.1997C21.4651 27.1233 23.2683 26.7696 24.9189 26.1452C25.9939 25.736 26.9718 25.2296 27.8318 24.633C25.2588 28.1223 21.2016 30.3768 16.749 30.5849V30.5779Z" fill="white"/>
</svg>
