<svg width="99" height="34" viewBox="0 0 99 34" fill="none" xmlns="http://www.w3.org/2000/svg">
<path d="M25.8353 33.9118L16.153 8.52558L6.49115 33.9118H0L12.9211 0H19.3918L32.3128 33.9118H25.8421H25.8353Z" fill="white"/>
<path d="M42.9198 29.1962C42.9198 26.5902 40.8105 24.481 38.2045 24.481C35.5985 24.481 33.4893 26.5902 33.4893 29.1962C33.4893 29.9243 33.6526 30.6183 33.9519 31.2307C33.9519 31.2307 33.9519 31.2307 33.9519 31.2375C33.986 31.3055 34.02 31.3735 34.054 31.4416C34.8501 32.9113 36.4082 33.9115 38.1977 33.9115C40.8037 33.9115 42.913 31.8022 42.913 29.1962H42.9198ZM41.9536 30.9313C41.6338 31.2919 41.2051 31.5845 40.6744 31.7818C40.3138 31.9179 39.9328 32.0063 39.5313 32.0472C39.7286 31.6797 39.8851 31.2919 40.0008 30.8836C40.1505 30.3597 40.2185 29.8358 40.2185 29.3119C40.7016 29.1962 41.1235 28.9921 41.4365 28.6995C41.8039 29.3663 41.9944 30.1352 41.9536 30.9313ZM38.1229 27.0393C38.2862 27.1822 38.4971 27.2979 38.742 27.3659C38.8917 27.4067 39.0482 27.4271 39.1979 27.4271C39.2796 27.4271 39.3612 27.4203 39.4429 27.4067C39.6334 27.8966 39.7491 28.4206 39.7831 28.9513C39.6538 28.9649 39.5245 28.9717 39.3816 28.9717C39.0346 28.9717 38.6808 28.9241 38.327 28.822C37.8371 28.6859 37.388 28.4614 37.0274 28.1688C37.3336 27.7333 37.7078 27.3523 38.1229 27.0325V27.0393ZM36.7076 27.883C36.6532 27.8218 36.5987 27.7674 36.5511 27.6993C36.347 27.4408 36.2041 27.1618 36.1429 26.8896C36.6532 26.6719 37.2111 26.5562 37.7827 26.5562C37.8031 26.6038 37.8235 26.6583 37.8507 26.7059C37.4152 27.0393 37.0342 27.434 36.7076 27.883ZM39.1979 26.9985C39.0891 26.9985 38.9734 26.9849 38.8645 26.9509C38.4155 26.8216 38.1025 26.4678 38.1841 26.182C38.2453 25.9711 38.5039 25.835 38.8305 25.835C38.9394 25.835 39.055 25.8486 39.1639 25.8826C39.613 26.0119 39.926 26.3657 39.8443 26.6515C39.7831 26.8624 39.5245 26.9985 39.1979 26.9985ZM39.9804 27.1822C40.4635 27.4816 40.8785 27.8694 41.1983 28.3253C40.9534 28.5702 40.6064 28.7608 40.2049 28.8696C40.1641 28.3185 40.0416 27.781 39.8443 27.2707C39.8919 27.2434 39.9328 27.2162 39.9736 27.1822H39.9804ZM41.9876 27.8286C42.0421 27.6313 42.0625 27.434 42.0489 27.2298C42.5183 28.1416 42.6476 29.169 42.4163 30.1624C42.4027 30.2032 42.3891 30.2373 42.3687 30.2781C42.3006 29.5909 42.0829 28.9377 41.7359 28.3593C41.8447 28.196 41.9332 28.0191 41.9876 27.8286ZM41.5726 27.7129C41.5454 27.8014 41.5113 27.883 41.4705 27.9647C41.1371 27.5224 40.7221 27.1346 40.239 26.8352C40.2458 26.8148 40.2526 26.7944 40.2594 26.7739C40.3274 26.5426 40.2798 26.3045 40.1573 26.0935C40.4295 26.0323 40.7016 25.9915 40.9874 25.9711C41.4977 26.4882 41.7427 27.1278 41.5726 27.7197V27.7129ZM38.3474 24.9096C38.6944 24.9096 39.0482 24.9572 39.3952 25.0593C39.4497 25.0729 39.5109 25.0933 39.5654 25.1137C39.5926 25.1205 39.6198 25.1342 39.647 25.141C39.6606 25.141 39.681 25.1546 39.6946 25.1614C39.994 25.2702 40.273 25.4131 40.5179 25.5832C40.2798 25.6172 40.0484 25.6717 39.8171 25.7329C39.6674 25.6172 39.4837 25.5288 39.2796 25.4676C39.1299 25.4267 38.9734 25.4063 38.8237 25.4063C38.7761 25.4063 38.7284 25.4063 38.6808 25.4131C38.5175 25.243 38.3474 25.0729 38.1637 24.9232C38.2181 24.9232 38.2794 24.9232 38.3338 24.9232L38.3474 24.9096ZM36.1565 26.1752C36.3198 25.6036 36.8573 25.175 37.5785 24.9981C37.8099 25.1614 38.0208 25.3451 38.2181 25.5356C37.9936 25.6513 37.8371 25.835 37.7691 26.0595C37.7691 26.0799 37.7623 26.1003 37.7555 26.1276C37.1839 26.1276 36.626 26.2432 36.1088 26.4474C36.1157 26.3589 36.1293 26.2636 36.1565 26.1752ZM34.1493 27.8218C34.4759 26.8488 35.1427 26.0391 35.9932 25.522C35.8843 25.6853 35.7959 25.8622 35.7414 26.0527C35.687 26.2432 35.6666 26.4405 35.6734 26.6379C35.0746 26.9441 34.5439 27.3863 34.1288 27.9375C34.1288 27.8966 34.1425 27.8626 34.1493 27.8218ZM34.4691 31.2919C34.1561 30.734 33.9792 30.1352 33.9315 29.516C34.2445 30.2509 34.8297 30.9313 35.6053 31.4552C35.619 31.8907 35.687 32.3261 35.7959 32.748C35.2515 32.3738 34.7957 31.8839 34.4622 31.2851L34.4691 31.2919ZM35.619 30.9381C34.8161 30.3257 34.2785 29.5296 34.1356 28.7199C34.5167 28.0191 35.0814 27.468 35.7482 27.0937C35.8367 27.3931 35.9864 27.6925 36.2109 27.9715C36.2858 28.0667 36.3742 28.162 36.4627 28.2504C36.1905 28.6927 35.9728 29.1826 35.8231 29.6997C35.7074 30.108 35.6394 30.523 35.6121 30.9381H35.619ZM36.2449 29.8222C36.3742 29.3663 36.5579 28.9377 36.7961 28.543C37.1975 28.856 37.6806 29.0942 38.2181 29.2439C38.606 29.3527 39.0006 29.4072 39.3884 29.4072C39.5313 29.4072 39.6674 29.4003 39.7967 29.3867C39.7967 29.8426 39.7218 30.3121 39.5926 30.768C39.4633 31.2307 39.2728 31.6661 39.0278 32.0744C38.5175 32.0744 37.9936 31.9995 37.4765 31.8566C36.9526 31.7069 36.4695 31.496 36.0408 31.2307C36.0408 30.7612 36.1088 30.2849 36.2449 29.8222ZM37.7895 33.4828C37.5445 33.4556 37.2996 33.408 37.0546 33.3399C36.8097 33.2719 36.5783 33.1834 36.3606 33.0746C36.2041 32.6391 36.102 32.19 36.0612 31.741C36.4559 31.9587 36.8913 32.1424 37.3608 32.2717C37.8235 32.401 38.2862 32.4758 38.742 32.503C38.4699 32.8705 38.1501 33.1971 37.7895 33.4828ZM38.4291 33.5032C38.7489 33.2039 39.0278 32.8705 39.2728 32.5098C39.8239 32.4894 40.3546 32.3806 40.8377 32.1968C41.1575 32.0744 41.4433 31.9247 41.695 31.7478C40.9398 32.7752 39.7423 33.442 38.4291 33.5032Z" fill="white"/>
<path d="M42.3493 20.3444H33.4971V13.5606H52.3513C55.6581 13.5606 57.3115 12.4312 57.3115 10.1722C57.3115 7.91321 55.6581 6.78372 52.3513 6.78372H33.4971V0H53.3447C59.9584 0 63.2652 3.38846 63.2652 10.1722C63.2652 16.9559 59.9584 20.3444 53.3447 20.3444H51.5008L65.4697 33.9118H56.3181L42.3493 20.3444Z" fill="white"/>
<path d="M80.9013 25.2229L85.0791 20.3579L99.0003 33.9117H89.8488L80.8945 25.2229H80.9013Z" fill="white"/>
<path d="M87.3581 0.0204124L73.4981 16.0986V0L67.0273 7.51857V33.9118L96.2443 0.0204124H87.3581Z" fill="white"/>
</svg>
