<svg width="99" height="34" viewBox="0 0 99 34" fill="none" xmlns="http://www.w3.org/2000/svg">
<path d="M25.7806 33.84L16.1188 8.50753L6.4774 33.84H0L12.8937 0H19.3507L32.2444 33.84H25.7874H25.7806Z" fill="white"/>
<path d="M42.2602 20.3013H33.4268V13.5319H52.2411C55.5409 13.5319 57.1908 12.4048 57.1908 10.1506C57.1908 7.89645 55.5409 6.76936 52.2411 6.76936H33.4268V0H53.2324C59.832 0 63.1318 3.38128 63.1318 10.1506C63.1318 16.92 59.832 20.3013 53.2324 20.3013H51.3924L65.3317 33.84H56.1995L42.2602 20.3013Z" fill="white"/>
<path d="M38.1253 33.8402C37.2291 33.8402 36.326 33.5822 35.5249 33.0526C34.4792 32.3533 33.7663 31.2941 33.5219 30.0583C33.2775 28.8226 33.5219 27.5733 34.2212 26.5277C35.6607 24.3685 38.587 23.7846 40.7462 25.224C42.9053 26.6635 43.4892 29.5898 42.0498 31.749C41.1468 33.1069 39.6462 33.8402 38.1253 33.8402ZM38.1389 24.9185C36.7742 24.9185 35.4366 25.5771 34.6218 26.7993C33.9972 27.7362 33.7731 28.8633 33.9972 29.9701C34.2212 31.0768 34.8595 32.0274 35.7964 32.652C37.7315 33.9421 40.3591 33.4192 41.6492 31.4842C42.9392 29.5491 42.4164 26.9215 40.4814 25.6314C39.7616 25.1561 38.9537 24.9253 38.1457 24.9253L38.1389 24.9185Z" fill="white"/>
<path d="M34.5887 26.8261C33.9369 27.8038 34.2017 29.1211 35.1794 29.7729C36.1572 30.4247 37.4744 30.1599 38.1262 29.1822C38.778 28.2044 40.0952 27.9396 41.0729 28.5915C42.0506 29.2433 42.3154 30.5605 41.6636 31.5382C40.36 33.4936 37.7188 34.0232 35.7634 32.7196C33.8079 31.416 33.2783 28.7748 34.5819 26.8193L34.5887 26.8261Z" fill="white"/>
<path d="M80.7285 25.1696L84.8974 20.3149L98.7891 33.8401H89.657L80.7217 25.1696H80.7285Z" fill="white"/>
<path d="M87.1725 0.0203692L73.3418 16.0645V0L66.8848 7.50265V33.84L96.0399 0.0203692H87.1725Z" fill="white"/>
</svg>
