<svg width="100" height="35" viewBox="0 0 100 35" fill="none" xmlns="http://www.w3.org/2000/svg">
<path d="M25.9146 34.0104L16.2017 8.54665L6.50734 34.0104H0L12.9573 0H19.4462L32.4035 34.0104H25.9146Z" fill="#9A8197"/>
<path d="M34.0623 31.3363C34.0623 31.3363 34.0599 31.3293 34.0576 31.3247C34.0576 31.3293 34.0599 31.3317 34.0623 31.3363Z" fill="#9A8197"/>
<path d="M43.0492 29.2816C43.0492 26.6704 40.932 24.5532 38.3209 24.5532C35.7097 24.5532 33.5925 26.6704 33.5925 29.2816C33.5925 30.0132 33.7585 30.706 34.0557 31.3229C34.0557 31.327 34.0578 31.3291 34.0598 31.3332C34.0926 31.4008 34.1275 31.4684 34.1623 31.534C34.9637 33.0076 36.5234 34.0078 38.3188 34.0078C40.9299 34.0078 43.0471 31.8906 43.0471 29.2795L43.0492 29.2816ZM42.0838 31.0196C41.7662 31.3803 41.3317 31.6713 40.8008 31.8722C40.4421 32.0075 40.0548 32.0956 39.6531 32.1366C39.8498 31.7697 40.0097 31.3803 40.1245 30.9704C40.272 30.4477 40.3417 29.919 40.3438 29.3963C40.8316 29.2836 41.2476 29.0725 41.5612 28.7835C41.9322 29.4517 42.1228 30.2223 42.0818 31.0196H42.0838ZM38.243 27.1172C38.409 27.2607 38.618 27.3755 38.8619 27.4431C39.0136 27.4861 39.1653 27.5066 39.3169 27.5066C39.401 27.5066 39.483 27.4984 39.5608 27.4861C39.7494 27.9801 39.8662 28.5007 39.9011 29.0336C39.7719 29.0479 39.6387 29.0561 39.5014 29.0561C39.153 29.0561 38.7964 29.0049 38.4459 28.9065C37.954 28.7671 37.5072 28.5417 37.1424 28.2527C37.4518 27.8182 37.8228 27.4349 38.243 27.1152V27.1172ZM36.8206 27.9616C36.7652 27.9022 36.712 27.8428 36.6628 27.7813C36.4537 27.5189 36.3184 27.2443 36.2549 26.9717C36.7693 26.7524 37.3289 26.6335 37.9007 26.6356C37.9191 26.6868 37.9417 26.734 37.9683 26.7831C37.5338 27.1172 37.1465 27.5148 36.8206 27.9637V27.9616ZM39.3169 27.0742C39.2063 27.0742 39.0915 27.0578 38.9788 27.027C38.5279 26.9 38.2163 26.5454 38.2983 26.2523C38.3578 26.0433 38.618 25.9018 38.946 25.9018C39.0567 25.9018 39.1714 25.9182 39.2842 25.949C39.7351 26.076 40.0466 26.4306 39.9646 26.7237C39.9052 26.9328 39.6449 27.0742 39.3169 27.0742ZM40.1019 27.2566C40.5897 27.5558 41.0037 27.9493 41.3276 28.4043C41.0796 28.6523 40.7352 28.8409 40.3294 28.9495C40.2864 28.3982 40.1655 27.8571 39.9708 27.3447C40.0179 27.3181 40.0609 27.2873 40.1019 27.2545V27.2566ZM42.1146 27.9043C42.1699 27.7075 42.1904 27.5066 42.1781 27.3058C42.6475 28.2178 42.7766 29.2467 42.547 30.2448C42.5327 30.2838 42.5163 30.3227 42.502 30.3617C42.4343 29.673 42.213 29.0172 41.8645 28.4392C41.9752 28.2752 42.0613 28.099 42.1166 27.9063L42.1146 27.9043ZM41.6985 27.7854C41.6739 27.8735 41.6391 27.9575 41.5961 28.0395C41.2599 27.5948 40.8439 27.2074 40.3602 26.9061C40.3684 26.8856 40.3766 26.8631 40.3827 26.8426C40.4483 26.611 40.4053 26.3732 40.2782 26.1601C40.5487 26.0965 40.8275 26.0555 41.1103 26.0351C41.6247 26.5556 41.8666 27.1951 41.7006 27.7874L41.6985 27.7854ZM38.4623 24.9754C38.8107 24.9754 39.1653 25.0267 39.5158 25.1251C39.5158 25.1251 39.5157 25.1251 39.5178 25.1251C39.5752 25.1414 39.6326 25.1599 39.69 25.1783C39.7166 25.1865 39.7432 25.1968 39.7699 25.205C39.7863 25.2111 39.8027 25.2173 39.8191 25.2234C40.1224 25.3362 40.3991 25.4796 40.643 25.6456C40.4053 25.6805 40.1716 25.7317 39.9421 25.7953C39.7904 25.6825 39.608 25.5903 39.401 25.5309C39.2493 25.4878 39.0976 25.4673 38.946 25.4673C38.8988 25.4673 38.8517 25.4694 38.8066 25.4735C38.6447 25.2993 38.4725 25.1332 38.2881 24.9795C38.3455 24.9775 38.4028 24.9754 38.4623 24.9754ZM36.2652 26.2462C36.4271 25.6743 36.9661 25.2439 37.6896 25.0656C37.9191 25.2316 38.1343 25.412 38.3311 25.6067C38.1077 25.7235 37.9478 25.9059 37.8823 26.1334C37.8761 26.156 37.872 26.1785 37.8679 26.199C37.2961 26.2031 36.7386 26.3117 36.218 26.5167C36.2242 26.4245 36.2406 26.3343 36.2652 26.2462ZM34.2525 27.9002C34.5825 26.9205 35.2486 26.1129 36.0991 25.5944C35.9885 25.7584 35.9044 25.9367 35.8491 26.1293C35.7938 26.322 35.7733 26.5187 35.7815 26.7155C35.183 27.025 34.6501 27.4656 34.232 28.017C34.2381 27.978 34.2443 27.9391 34.2525 27.9002ZM34.5743 31.3803C34.2627 30.8228 34.0824 30.2182 34.0373 29.6013C34.3529 30.3371 34.9391 31.0196 35.72 31.5484C35.7343 31.9849 35.7999 32.4194 35.9147 32.8457C35.3674 32.4727 34.9083 31.9767 34.5763 31.3823L34.5743 31.3803ZM35.7261 31.0237C34.9186 30.4088 34.3796 29.6136 34.2402 28.7958C34.6235 28.0949 35.1912 27.5394 35.8573 27.1664C35.9434 27.4677 36.0991 27.7669 36.3246 28.0498C36.4025 28.1461 36.4865 28.2404 36.5767 28.3285C36.302 28.7733 36.0848 29.2611 35.9372 29.7837C35.8204 30.1936 35.7528 30.6076 35.7282 31.0237H35.7261ZM36.3533 29.9005C36.4824 29.4414 36.671 29.011 36.9067 28.6175C37.3104 28.929 37.7962 29.1729 38.3291 29.3246C38.7185 29.4353 39.114 29.4906 39.5014 29.4906C39.6428 29.4906 39.7781 29.4824 39.9113 29.4681C39.9052 29.9292 39.8396 30.3924 39.7084 30.8515C39.5772 31.3168 39.3846 31.7554 39.1407 32.1591C38.6324 32.1591 38.1057 32.0853 37.5851 31.9378C37.0583 31.7882 36.5746 31.573 36.1463 31.3106C36.1504 30.8392 36.218 30.3658 36.3492 29.9005H36.3533ZM37.9027 33.5692C37.6548 33.5426 37.4088 33.4954 37.167 33.4278C36.9251 33.3581 36.6915 33.27 36.4681 33.1634C36.3102 32.7269 36.2098 32.278 36.1709 31.823C36.5685 32.0423 37.003 32.2227 37.4703 32.3559C37.9335 32.4871 38.4008 32.5629 38.8578 32.5854C38.5853 32.9503 38.2655 33.2802 37.9027 33.5692ZM38.5422 33.5877C38.8619 33.2864 39.1448 32.9523 39.3846 32.5895C39.9359 32.567 40.4688 32.4625 40.9566 32.278C41.2743 32.1571 41.5633 32.0075 41.8174 31.8312C41.057 32.8621 39.858 33.5282 38.5422 33.5897V33.5877Z" fill="#9A8197"/>
<path d="M42.4733 20.4054H33.5967V13.6029H52.5038C55.8221 13.6029 57.4802 12.4695 57.4802 10.2006C57.4802 7.93179 55.8221 6.79838 52.5038 6.79838H33.5967V0H53.4999C60.1343 0 63.4526 3.40226 63.4526 10.2027C63.4526 17.0031 60.1343 20.4074 53.4999 20.4074H51.6492L65.66 34.0124H56.4841L42.4733 20.4074V20.4054Z" fill="#9A8197"/>
<path d="M81.1397 25.294L85.3331 20.416L99.2927 34.0087H90.1168L81.1377 25.2919L81.1397 25.294Z" fill="#9A8197"/>
<path d="M87.6165 0.0204956L73.7185 16.1423V0L67.2275 7.54237V34.0104L96.5321 0.0204956H87.6165Z" fill="#9A8197"/>
</svg>
