<svg width="99" height="99" viewBox="0 0 99 99" fill="none" xmlns="http://www.w3.org/2000/svg">
<circle cx="49.5" cy="49.5" r="49.5" fill="#9A8197"/>
<path d="M53.6493 48.2288C51.7352 48.9959 49.8212 49.761 47.9053 50.528C47.6324 50.6365 47.3615 50.7449 47.0886 50.8553H47.3982C46.8467 50.6345 46.2951 50.4137 45.7435 50.1929C44.4179 49.6622 43.0941 49.1315 41.7704 48.6027C40.1679 47.9615 38.5636 47.3185 36.9611 46.6774C35.5755 46.1214 34.1878 45.5675 32.8022 45.0116C32.1345 44.7443 31.4649 44.4208 30.7778 44.2019C30.7682 44.1981 30.7585 44.1942 30.7488 44.1903V45.3118C31.3004 45.091 31.8519 44.8702 32.4035 44.6494C33.7272 44.1187 35.0529 43.5879 36.3767 43.0591C37.9791 42.418 39.5835 41.775 41.1859 41.1338C42.5716 40.5779 43.9592 40.024 45.3449 39.4681C45.7997 39.286 46.2564 39.1039 46.7112 38.9199C46.926 38.8347 47.1641 38.7669 47.3692 38.6565C47.3789 38.6507 47.3886 38.6487 47.3982 38.6449H47.0886L48.7433 39.3073C50.067 39.838 51.3927 40.3687 52.7164 40.8975C54.3189 41.5386 55.9232 42.1817 57.5257 42.8228C58.9114 43.3787 60.299 43.9327 61.6846 44.4886C62.3523 44.7559 63.0219 45.0794 63.709 45.2982C63.7186 45.3021 63.7283 45.306 63.738 45.3099V44.1884C62.3388 44.7482 60.9396 45.3079 59.5403 45.8696C59.341 45.9491 59.1436 46.0285 58.9443 46.1079C58.654 46.2241 58.4488 46.4953 58.5378 46.8226C58.6133 47.0996 58.9597 47.3456 59.252 47.2294C60.6512 46.6696 62.0504 46.1098 63.4496 45.5481C63.649 45.4687 63.8464 45.3893 64.0457 45.3099C64.5934 45.091 64.5953 44.4092 64.0457 44.1884C63.4903 43.9656 62.9329 43.7429 62.3775 43.5201C61.0499 42.9894 59.7242 42.4568 58.3966 41.926C56.7941 41.2849 55.1898 40.6418 53.5873 40.0007C52.1978 39.4448 50.8082 38.8889 49.4187 38.333C48.7587 38.0696 48.0988 37.75 47.4215 37.5331C47.1931 37.4594 47.0402 37.5427 46.8409 37.6222C46.4964 37.7597 46.1519 37.8972 45.8074 38.0367C44.5553 38.5383 43.3012 39.04 42.049 39.5417C40.4466 40.1828 38.8442 40.8239 37.2417 41.465C35.8019 42.0423 34.362 42.6175 32.9202 43.1947C32.1287 43.5124 31.3371 43.8281 30.5456 44.1458C30.5088 44.1613 30.4721 44.1748 30.4353 44.1903C29.8876 44.4092 29.8857 45.091 30.4353 45.3118C31.4533 45.7186 32.4712 46.1273 33.4873 46.534C35.6335 47.3921 37.7778 48.2521 39.9241 49.1101C41.8362 49.8752 43.7502 50.6423 45.6623 51.4074C46.1054 51.5836 46.5467 51.7618 46.9899 51.9381C47.3886 52.0989 47.8743 51.7831 48.2401 51.6359C50.098 50.8921 51.9559 50.1483 53.8138 49.4046C53.8602 49.3852 53.9067 49.3678 53.9512 49.3484C54.2415 49.2322 54.4466 48.961 54.3576 48.6337C54.2821 48.3567 53.9357 48.1107 53.6435 48.2269L53.6493 48.2288Z" fill="white" stroke="white" stroke-width="0.5"/>
<path d="M30.0155 44.7501V62.2814C30.0155 63.0891 29.9806 63.9045 30.0155 64.7103C30.0155 64.7219 30.0155 64.7335 30.0155 64.7452C30.0155 65.0241 30.2013 65.2081 30.4412 65.3049C30.9967 65.5277 31.554 65.7504 32.1095 65.9732C33.4371 66.5039 34.7628 67.0366 36.0904 67.5673C37.6928 68.2084 39.2972 68.8515 40.8996 69.4926L45.0683 71.1603C45.7282 71.4237 46.3881 71.7433 47.0655 71.9603C47.2939 72.0339 47.4468 71.9506 47.6461 71.8712C47.9906 71.7336 48.3351 71.5961 48.6795 71.4567C49.9317 70.955 51.1858 70.4533 52.4379 69.9517C54.0403 69.3105 55.6428 68.6694 57.2452 68.0283C58.6851 67.4511 60.1249 66.8758 61.5667 66.2986C62.3583 65.9809 63.1498 65.6652 63.9414 65.3475C63.9781 65.3321 64.0149 65.3185 64.0517 65.303C64.2936 65.2062 64.4774 65.0183 64.4774 64.7432V47.212C64.4774 46.4043 64.5045 45.5907 64.4774 44.783C64.4774 44.7714 64.4774 44.7598 64.4774 44.7482C64.4774 44.0005 63.3162 43.9986 63.3162 44.7482V63.9278C63.3162 64.1873 63.2988 64.4527 63.3162 64.7103C63.3162 64.7219 63.3162 64.7335 63.3162 64.7452C63.4575 64.5592 63.6007 64.3713 63.742 64.1854L62.0873 64.8478C60.7636 65.3785 59.4379 65.9093 58.1142 66.438C56.5117 67.0792 54.9074 67.7222 53.3049 68.3634C51.9192 68.9193 50.5316 69.4732 49.146 70.0291C48.6912 70.2112 48.2344 70.3933 47.7796 70.5773C47.5648 70.6625 47.3268 70.7303 47.1216 70.8407C47.1119 70.8446 47.1023 70.8485 47.0926 70.8523H47.4022C46.8507 70.6315 46.2991 70.4107 45.7476 70.1899C44.4219 69.6592 43.0981 69.1285 41.7744 68.5997C40.1719 67.9585 38.5676 67.3155 36.9651 66.6744C35.5795 66.1184 34.1919 65.5645 32.8062 65.0086C32.1366 64.7413 31.4689 64.4217 30.7818 64.1989C30.7722 64.1951 30.7625 64.1912 30.7528 64.1873C30.8941 64.3733 31.0373 64.5611 31.1786 64.7471V47.2158C31.1786 46.4081 31.2057 45.5946 31.1786 44.7869C31.1786 44.7753 31.1786 44.7637 31.1786 44.7521C31.1786 44.0044 30.0174 44.0025 30.0174 44.7521H30.0155V44.7501Z" fill="white" stroke="white" stroke-width="0.5"/>
<path d="M46.6649 51.4151V68.9464C46.6649 69.7541 46.6378 70.5676 46.6649 71.3753C46.6649 71.3869 46.6649 71.3985 46.6649 71.4102C46.6649 72.1578 47.8261 72.1598 47.8261 71.4102V53.8789C47.8261 53.0712 47.8532 52.2577 47.8261 51.45C47.8261 51.4384 47.8261 51.4267 47.8261 51.4151C47.8261 50.6674 46.6649 50.6655 46.6649 51.4151Z" fill="white" stroke="white" stroke-width="0.5"/>
<path d="M42.7749 40.2584C43.3091 40.4889 43.8413 40.7174 44.3754 40.9479C45.6489 41.4961 46.9204 42.0462 48.1938 42.5943C49.7401 43.2606 51.2883 43.9289 52.8346 44.5952C54.1661 45.1685 55.4976 45.7438 56.8291 46.3171C57.2704 46.5069 57.7116 46.6967 58.1529 46.8885C58.358 46.9776 58.567 47.0899 58.7818 47.1597C58.7915 47.1636 58.7992 47.1674 58.8089 47.1713L58.5206 46.6696V52.8446C58.6618 52.6587 58.8051 52.4708 58.9463 52.2848C57.431 52.8407 55.9156 53.3947 54.4003 53.9506L53.752 54.1888C53.9978 54.3748 54.2416 54.5627 54.4874 54.7486V48.7499C54.4874 48.564 54.3809 48.3257 54.199 48.2482C53.6688 48.0197 53.1385 47.7911 52.6082 47.5626C51.3348 47.0125 50.0613 46.4624 48.7879 45.9142C47.2474 45.2479 45.705 44.5835 44.1645 43.9172C42.8252 43.3381 41.486 42.7609 40.1468 42.1817C39.5004 41.9028 38.8521 41.622 38.2057 41.343C38.196 41.3392 38.1883 41.3353 38.1786 41.3314C37.8902 41.2075 37.5554 41.2462 37.3851 41.5406C37.2419 41.7866 37.3038 42.2108 37.5941 42.3348C38.1244 42.5633 38.6547 42.7919 39.1849 43.0204C40.4584 43.5705 41.7318 44.1206 43.0052 44.6707C44.5457 45.337 46.0882 46.0014 47.6287 46.6677L51.6464 48.4032C52.0837 48.593 52.5211 48.7809 52.9585 48.9688C53.1656 49.0579 53.3746 49.1722 53.5875 49.24C53.5972 49.2438 53.6049 49.2477 53.6146 49.2516C53.5178 49.085 53.423 48.9165 53.3262 48.7499V54.7486C53.3262 55.1011 53.7017 55.4401 54.0616 55.3084C55.577 54.7525 57.0923 54.1985 58.6077 53.6426C58.8244 53.5632 59.0392 53.4838 59.256 53.4044C59.4998 53.3153 59.6817 53.1158 59.6817 52.8446V46.6696C59.6817 46.4837 59.5753 46.2454 59.3934 46.168C58.8592 45.9375 58.327 45.7089 57.7929 45.4784C56.5195 44.9303 55.248 44.3802 53.9745 43.832C52.4282 43.1657 50.88 42.4975 49.3337 41.8312L45.3392 40.1092C44.6889 39.8284 44.0387 39.5475 43.3865 39.2666C43.3768 39.2628 43.3691 39.2589 43.3594 39.255C43.071 39.1311 42.7362 39.1698 42.5659 39.4642C42.4227 39.7102 42.4846 40.1344 42.7749 40.2584Z" fill="white" stroke="white" stroke-width="0.5"/>
<path d="M53.7307 36.8242C53.7403 33.6844 55.1163 30.7092 57.5258 28.66C59.8849 26.6533 63.1866 25.7681 66.2308 26.3143C69.2789 26.8625 71.9438 28.7006 73.523 31.331C75.1816 34.0931 75.499 37.4963 74.3765 40.5508C73.2966 43.4872 70.8252 45.8987 67.8622 46.9098C67.481 47.0396 67.092 47.1481 66.6991 47.2372C66.3934 47.3069 66.2134 47.6594 66.2927 47.9519C66.3798 48.2657 66.7011 48.4284 67.0068 48.3587C70.4149 47.5839 73.3914 45.2595 74.9513 42.1256C76.5556 38.9025 76.6001 35.0809 75.0925 31.8152C73.6798 28.7549 70.9142 26.4015 67.6842 25.4621C64.3342 24.4878 60.601 25.0708 57.7251 27.0542C54.8841 29.0125 53.0281 32.1174 52.6391 35.5458C52.5908 35.97 52.5695 36.3961 52.5675 36.8242C52.5656 37.5718 53.7268 37.5738 53.7287 36.8242H53.7307Z" fill="white" stroke="white" stroke-width="0.5"/>
<path d="M67.0978 33.6999C65.7934 34.8446 64.489 35.9893 63.1846 37.136C63.0008 37.2987 62.815 37.4595 62.6311 37.6222C62.395 37.8294 62.4202 38.2323 62.6311 38.4435C62.8653 38.6778 63.2156 38.6507 63.4517 38.4435C64.7561 37.2987 66.0605 36.154 67.3668 35.0073C67.5507 34.8446 67.7365 34.6838 67.9203 34.5211C68.1564 34.3139 68.1313 33.911 67.9203 33.6999C67.6861 33.4655 67.3359 33.4926 67.0997 33.6999H67.0978Z" fill="white" stroke="white" stroke-width="0.5"/>
<path d="M59.4611 32.7973C61.1448 34.5076 62.8305 36.2179 64.5142 37.9302C64.7522 38.1703 64.9884 38.4125 65.2264 38.6526C65.7509 39.1853 66.5734 38.364 66.047 37.8314C64.3632 36.1211 62.6776 34.4107 60.9939 32.6985C60.7558 32.4583 60.5197 32.2162 60.2817 31.976C59.7572 31.4433 58.9347 32.2646 59.4611 32.7973Z" fill="white" stroke="white" stroke-width="0.5"/>
</svg>
