<svg width="99" height="99" viewBox="0 0 99 99" fill="none" xmlns="http://www.w3.org/2000/svg">
<circle cx="49.5" cy="49.5" r="49.5" fill="#DD577A"/>
<path d="M52.5123 48.2282C50.6003 48.9952 48.6882 49.7603 46.7743 50.5273C46.5017 50.6358 46.231 50.7443 45.9584 50.8547H46.2678C45.7168 50.6339 45.1658 50.413 44.6148 50.1922C43.2905 49.6615 41.9681 49.1308 40.6458 48.602C39.045 47.9609 37.4423 47.3178 35.8415 46.6767C34.4573 46.1208 33.0711 45.5668 31.6869 45.0109C31.0199 44.7436 30.351 44.4201 29.6647 44.2013C29.655 44.1974 29.6453 44.1935 29.6357 44.1896V45.3111C30.1867 45.0903 30.7376 44.8695 31.2886 44.6487C32.611 44.118 33.9353 43.5873 35.2577 43.0585C36.8584 42.4173 38.4611 41.7743 40.0619 41.1332C41.4461 40.5773 42.8323 40.0233 44.2165 39.4674C44.6709 39.2853 45.1271 39.1032 45.5814 38.9192C45.796 38.834 46.0338 38.7662 46.2388 38.6558C46.2484 38.65 46.2581 38.6481 46.2678 38.6442H45.9584L47.6114 39.3066C48.9338 39.8373 50.2581 40.3681 51.5804 40.8968C53.1812 41.538 54.7839 42.181 56.3847 42.8222C57.7689 43.3781 59.1551 43.932 60.5393 44.4879C61.2063 44.7552 61.8752 45.0787 62.5615 45.2976C62.5712 45.3015 62.5809 45.3053 62.5905 45.3092V44.1877C61.1928 44.7475 59.795 45.3073 58.3972 45.869C58.1981 45.9484 58.0009 46.0278 57.8018 46.1072C57.5118 46.2234 57.3069 46.4946 57.3958 46.822C57.4712 47.0989 57.8172 47.3449 58.1092 47.2287C59.5069 46.6689 60.9047 46.1092 62.3025 45.5474C62.5016 45.468 62.6988 45.3886 62.8979 45.3092C63.4451 45.0903 63.447 44.4085 62.8979 44.1877C62.3431 43.965 61.7863 43.7422 61.2314 43.5195C59.9052 42.9887 58.5809 42.4561 57.2547 41.9254C55.6539 41.2842 54.0512 40.6412 52.4504 40C51.0623 39.4441 49.6742 38.8882 48.2861 38.3323C47.6269 38.0689 46.9676 37.7493 46.291 37.5324C46.0628 37.4588 45.9101 37.5421 45.711 37.6215C45.3669 37.759 45.0227 37.8965 44.6786 38.036C43.4278 38.5377 42.175 39.0393 40.9242 39.541C39.3234 40.1821 37.7226 40.8232 36.1219 41.4644C34.6835 42.0416 33.2451 42.6169 31.8048 43.1941C31.0141 43.5117 30.2234 43.8274 29.4327 44.1451C29.3959 44.1606 29.3592 44.1742 29.3225 44.1896C28.7754 44.4085 28.7734 45.0903 29.3225 45.3111C30.3394 45.7179 31.3563 46.1266 32.3713 46.5333C34.5153 47.3914 36.6574 48.2514 38.8014 49.1095C40.7115 49.8746 42.6235 50.6416 44.5336 51.4067C44.9763 51.583 45.4171 51.7612 45.8598 51.9374C46.2581 52.0982 46.7434 51.7825 47.1087 51.6352C48.9647 50.8915 50.8207 50.1477 52.6766 49.4039C52.723 49.3845 52.7694 49.3671 52.8139 49.3477C53.1039 49.2315 53.3088 48.9603 53.2199 48.633C53.1445 48.356 52.7984 48.11 52.5065 48.2262L52.5123 48.2282Z" fill="white" stroke="white" stroke-width="0.5"/>
<path d="M28.9031 44.749V62.2802C28.9031 63.0879 28.8683 63.9034 28.9031 64.7091C28.9031 64.7208 28.9031 64.7324 28.9031 64.744C28.9031 65.0229 29.0887 65.2069 29.3284 65.3038C29.8833 65.5265 30.44 65.7493 30.9949 65.972C32.3211 66.5027 33.6454 67.0354 34.9717 67.5661C36.5724 68.2072 38.1751 68.8503 39.7759 69.4914L43.9402 71.1591C44.5995 71.4226 45.2587 71.7422 45.9354 71.9591C46.1635 72.0327 46.3162 71.9494 46.5154 71.87C46.8595 71.7325 47.2036 71.595 47.5477 71.4555C48.7986 70.9538 50.0513 70.4522 51.3022 69.9505C52.9029 69.3094 54.5037 68.6682 56.1045 68.0271C57.5428 67.4499 58.9812 66.8746 60.4215 66.2974C61.2122 65.9798 62.0029 65.664 62.7937 65.3464C62.8304 65.3309 62.8671 65.3173 62.9039 65.3018C63.1455 65.205 63.3292 65.0171 63.3292 64.7421V47.2108C63.3292 46.4031 63.3562 45.5896 63.3292 44.7819C63.3292 44.7703 63.3292 44.7586 63.3292 44.747C63.3292 43.9994 62.1692 43.9974 62.1692 44.747V63.9266C62.1692 64.1862 62.1518 64.4515 62.1692 64.7091C62.1692 64.7208 62.1692 64.7324 62.1692 64.744C62.3103 64.5581 62.4534 64.3702 62.5945 64.1842L60.9416 64.8467C59.6192 65.3774 58.2949 65.9081 56.9725 66.4369C55.3718 67.078 53.7691 67.7211 52.1683 68.3622C50.7841 68.9181 49.3979 69.4721 48.0137 70.028C47.5593 70.21 47.1031 70.3921 46.6488 70.5761C46.4342 70.6614 46.1964 70.7291 45.9914 70.8396C45.9818 70.8434 45.9721 70.8473 45.9624 70.8512H46.2718C45.7208 70.6304 45.1698 70.4096 44.6188 70.1887C43.2945 69.658 41.9721 69.1273 40.6497 68.5985C39.049 67.9574 37.4463 67.3143 35.8455 66.6732C34.4613 66.1173 33.0751 65.5633 31.6909 65.0074C31.022 64.7401 30.355 64.4205 29.6687 64.1978C29.659 64.1939 29.6493 64.19 29.6397 64.1862C29.7808 64.3721 29.9239 64.56 30.065 64.7459V47.2147C30.065 46.407 30.092 45.5935 30.065 44.7858C30.065 44.7741 30.065 44.7625 30.065 44.7509C30.065 44.0032 28.905 44.0013 28.905 44.7509H28.9031V44.749Z" fill="white" stroke="white" stroke-width="0.5"/>
<path d="M45.5352 51.415V68.9462C45.5352 69.7539 45.5081 70.5675 45.5352 71.3752C45.5352 71.3868 45.5352 71.3984 45.5352 71.41C45.5352 72.1577 46.6952 72.1596 46.6952 71.41V53.8788C46.6952 53.0711 46.7222 52.2576 46.6952 51.4499C46.6952 51.4382 46.6952 51.4266 46.6952 51.415C46.6952 50.6673 45.5352 50.6654 45.5352 51.415Z" fill="white" stroke="white" stroke-width="0.5"/>
<path d="M41.6493 40.2572C42.1828 40.4877 42.7145 40.7163 43.2481 40.9468C44.5202 41.4949 45.7904 42.045 47.0625 42.5932C48.6072 43.2595 50.1538 43.9277 51.6985 44.594C53.0286 45.1674 54.3587 45.7426 55.6888 46.316C56.1296 46.5058 56.5704 46.6956 57.0112 46.8874C57.2161 46.9765 57.4249 47.0888 57.6395 47.1585C57.6492 47.1624 57.6569 47.1663 57.6666 47.1702L57.3785 46.6685V52.8435C57.5196 52.6575 57.6627 52.4696 57.8038 52.2837C56.2901 52.8396 54.7763 53.3936 53.2625 53.9495L52.6149 54.1877C52.8604 54.3737 53.104 54.5615 53.3495 54.7475V48.7488C53.3495 48.5628 53.2432 48.3246 53.0615 48.2471C52.5317 48.0185 52.002 47.79 51.4723 47.5614C50.2002 47.0113 48.9281 46.4612 47.656 45.9131C46.1171 45.2468 44.5763 44.5824 43.0374 43.9161C41.6995 43.337 40.3617 42.7598 39.0238 42.1806C38.3781 41.9017 37.7305 41.6208 37.0848 41.3419C37.0751 41.338 37.0674 41.3342 37.0577 41.3303C36.7696 41.2063 36.4352 41.2451 36.265 41.5395C36.122 41.7855 36.1838 42.2097 36.4738 42.3336C37.0036 42.5622 37.5333 42.7907 38.063 43.0193C39.3351 43.5694 40.6072 44.1195 41.8793 44.6696C43.4182 45.3359 44.959 46.0003 46.4979 46.6666L50.5115 48.4021C50.9484 48.5919 51.3853 48.7798 51.8222 48.9676C52.0291 49.0567 52.2379 49.171 52.4506 49.2388C52.4602 49.2427 52.468 49.2466 52.4776 49.2504C52.381 49.0839 52.2862 48.9154 52.1896 48.7488V54.7475C52.1896 55.1 52.5646 55.439 52.9242 55.3073C54.438 54.7514 55.9517 54.1974 57.4655 53.6415C57.682 53.5621 57.8966 53.4827 58.1132 53.4032C58.3568 53.3141 58.5385 53.1146 58.5385 52.8435V46.6685C58.5385 46.4826 58.4322 46.2443 58.2504 46.1668C57.7168 45.9363 57.1852 45.7078 56.6516 45.4773C55.3795 44.9291 54.1093 44.379 52.8372 43.8309C51.2925 43.1646 49.7459 42.4963 48.2012 41.83L44.2109 40.1081C43.5613 39.8272 42.9117 39.5464 42.2602 39.2655C42.2505 39.2616 42.2428 39.2578 42.2331 39.2539C41.945 39.1299 41.6106 39.1687 41.4405 39.4631C41.2974 39.7091 41.3593 40.1333 41.6493 40.2572Z" fill="white" stroke="white" stroke-width="0.5"/>
<path d="M52.5936 36.8242C52.6033 33.6844 53.9778 30.7092 56.3848 28.66C58.7414 26.6533 62.0396 25.7681 65.0807 26.3143C68.1256 26.8625 70.7878 28.7006 72.3653 31.331C74.0222 34.0931 74.3392 37.4963 73.2179 40.5508C72.1392 43.4872 69.6703 45.8987 66.7105 46.9098C66.3296 47.0396 65.941 47.1481 65.5486 47.2372C65.2431 47.3069 65.0633 47.6594 65.1426 47.9519C65.2296 48.2657 65.5505 48.4284 65.856 48.3587C69.2605 47.5839 72.2339 45.2595 73.7921 42.1256C75.3948 38.9025 75.4393 35.0809 73.9332 31.8152C72.5219 28.7549 69.7593 26.4015 66.5326 25.4621C63.1861 24.4878 59.4568 25.0708 56.5839 27.0542C53.7458 29.0125 51.8918 32.1174 51.5032 35.5458C51.4549 35.97 51.4336 36.3961 51.4317 36.8242C51.4297 37.5718 52.5897 37.5738 52.5917 36.8242H52.5936Z" fill="white" stroke="white" stroke-width="0.5"/>
<path d="M65.9468 33.699C64.6438 34.8437 63.3408 35.9884 62.0377 37.1351C61.8541 37.2978 61.6685 37.4586 61.4848 37.6213C61.2489 37.8285 61.2741 38.2314 61.4848 38.4425C61.7187 38.6769 62.0686 38.6498 62.3045 38.4425C63.6075 37.2978 64.9106 36.1531 66.2156 35.0064C66.3992 34.8437 66.5848 34.6829 66.7685 34.5202C67.0043 34.313 66.9792 33.9101 66.7685 33.699C66.5346 33.4646 66.1846 33.4917 65.9488 33.699H65.9468Z" fill="white" stroke="white" stroke-width="0.5"/>
<path d="M58.3181 32.7967C60 34.507 61.6839 36.2173 63.3659 37.9296C63.6037 38.1697 63.8396 38.4119 64.0774 38.652C64.6013 39.1847 65.4229 38.3634 64.8971 37.8308C63.2151 36.1204 61.5312 34.4101 59.8493 32.6979C59.6115 32.4577 59.3756 32.2156 59.1378 31.9754C58.6139 31.4427 57.7922 32.264 58.3181 32.7967Z" fill="white" stroke="white" stroke-width="0.5"/>
</svg>
