<svg width="99" height="99" viewBox="0 0 99 99" fill="none" xmlns="http://www.w3.org/2000/svg">
<circle cx="49.5" cy="49.5" r="49.5" fill="#91A28F"/>
<path d="M53.6489 48.2282C51.7349 48.9952 49.8209 49.7603 47.9049 50.5273C47.632 50.6358 47.3611 50.7443 47.0882 50.8547H47.3979C46.8463 50.6339 46.2948 50.413 45.7432 50.1922C44.4175 49.6615 43.0938 49.1308 41.77 48.602C40.1676 47.9609 38.5632 47.3178 36.9608 46.6767C35.5751 46.1208 34.1875 45.5668 32.8018 45.0109C32.1341 44.7436 31.4645 44.4201 30.7775 44.2013C30.7678 44.1974 30.7581 44.1935 30.7485 44.1896V45.3111C31.3 45.0903 31.8516 44.8695 32.4031 44.6487C33.7269 44.118 35.0526 43.5873 36.3763 43.0585C37.9787 42.4173 39.5831 41.7743 41.1855 41.1332C42.5712 40.5773 43.9588 40.0233 45.3445 39.4674C45.7993 39.2853 46.256 39.1032 46.7108 38.9192C46.9257 38.834 47.1637 38.7662 47.3688 38.6558C47.3785 38.65 47.3882 38.6481 47.3979 38.6442H47.0882L48.7429 39.3066C50.0667 39.8373 51.3923 40.3681 52.7161 40.8968C54.3185 41.538 55.9229 42.181 57.5253 42.8222C58.911 43.3781 60.2986 43.932 61.6843 44.4879C62.352 44.7552 63.0216 45.0787 63.7086 45.2976C63.7183 45.3015 63.728 45.3053 63.7377 45.3092V44.1877C62.3384 44.7475 60.9392 45.3073 59.54 45.869C59.3406 45.9484 59.1432 46.0278 58.9439 46.1072C58.6536 46.2234 58.4485 46.4946 58.5375 46.822C58.613 47.0989 58.9594 47.3449 59.2516 47.2287C60.6508 46.6689 62.0501 46.1092 63.4493 45.5474C63.6486 45.468 63.846 45.3886 64.0454 45.3092C64.5931 45.0903 64.595 44.4085 64.0454 44.1877C63.4899 43.965 62.9326 43.7422 62.3771 43.5195C61.0495 42.9887 59.7238 42.4561 58.3962 41.9254C56.7938 41.2842 55.1894 40.6412 53.587 40C52.1974 39.4441 50.8079 38.8882 49.4183 38.3323C48.7584 38.0689 48.0985 37.7493 47.4211 37.5324C47.1927 37.4588 47.0398 37.5421 46.8405 37.6215C46.496 37.759 46.1515 37.8965 45.8071 38.036C44.5549 38.5377 43.3008 39.0393 42.0487 39.541C40.4463 40.1821 38.8438 40.8232 37.2414 41.4644C35.8015 42.0416 34.3617 42.6169 32.9199 43.1941C32.1283 43.5117 31.3368 43.8274 30.5452 44.1451C30.5085 44.1606 30.4717 44.1742 30.4349 44.1896C29.8872 44.4085 29.8853 45.0903 30.4349 45.3111C31.4529 45.7179 32.4709 46.1266 33.4869 46.5333C35.6332 47.3914 37.7775 48.2514 39.9237 49.1095C41.8358 49.8746 43.7498 50.6416 45.6619 51.4067C46.1051 51.583 46.5463 51.7612 46.9895 51.9374C47.3882 52.0982 47.874 51.7825 48.2397 51.6352C50.0976 50.8915 51.9555 50.1477 53.8134 49.4039C53.8599 49.3845 53.9063 49.3671 53.9508 49.3477C54.2411 49.2315 54.4463 48.9603 54.3572 48.633C54.2818 48.356 53.9353 48.11 53.6431 48.2262L53.6489 48.2282Z" fill="white" stroke="white" stroke-width="0.5"/>
<path d="M30.0155 44.749V62.2802C30.0155 63.0879 29.9806 63.9034 30.0155 64.7091C30.0155 64.7208 30.0155 64.7324 30.0155 64.744C30.0155 65.0229 30.2013 65.2069 30.4412 65.3038C30.9967 65.5265 31.554 65.7493 32.1095 65.972C33.4371 66.5027 34.7628 67.0354 36.0904 67.5661C37.6928 68.2072 39.2972 68.8503 40.8996 69.4914L45.0683 71.1591C45.7282 71.4226 46.3882 71.7422 47.0655 71.9591C47.2939 72.0327 47.4468 71.9494 47.6461 71.87C47.9906 71.7325 48.3351 71.595 48.6796 71.4555C49.9317 70.9538 51.1858 70.4522 52.4379 69.9505C54.0404 69.3094 55.6428 68.6682 57.2452 68.0271C58.6851 67.4499 60.1249 66.8746 61.5667 66.2974C62.3583 65.9798 63.1498 65.664 63.9414 65.3464C63.9781 65.3309 64.0149 65.3173 64.0517 65.3018C64.2936 65.205 64.4774 65.0171 64.4774 64.7421V47.2108C64.4774 46.4031 64.5045 45.5896 64.4774 44.7819C64.4774 44.7703 64.4774 44.7586 64.4774 44.747C64.4774 43.9994 63.3163 43.9974 63.3163 44.747V63.9266C63.3163 64.1862 63.2988 64.4515 63.3163 64.7091C63.3163 64.7208 63.3163 64.7324 63.3163 64.744C63.4575 64.5581 63.6008 64.3702 63.742 64.1842L62.0873 64.8467C60.7636 65.3774 59.4379 65.9081 58.1142 66.4369C56.5117 67.078 54.9074 67.7211 53.3049 68.3622C51.9193 68.9181 50.5316 69.4721 49.146 70.028C48.6912 70.21 48.2344 70.3921 47.7796 70.5761C47.5648 70.6614 47.3268 70.7291 47.1216 70.8396C47.112 70.8434 47.1023 70.8473 47.0926 70.8512H47.4023C46.8507 70.6304 46.2991 70.4096 45.7476 70.1887C44.4219 69.658 43.0981 69.1273 41.7744 68.5985C40.172 67.9574 38.5676 67.3143 36.9652 66.6732C35.5795 66.1173 34.1919 65.5633 32.8062 65.0074C32.1366 64.7401 31.4689 64.4205 30.7819 64.1978C30.7722 64.1939 30.7625 64.19 30.7528 64.1862C30.8941 64.3721 31.0373 64.56 31.1786 64.7459V47.2147C31.1786 46.407 31.2057 45.5935 31.1786 44.7858C31.1786 44.7741 31.1786 44.7625 31.1786 44.7509C31.1786 44.0032 30.0174 44.0013 30.0174 44.7509H30.0155V44.749Z" fill="white" stroke="white" stroke-width="0.5"/>
<path d="M46.6654 51.415V68.9462C46.6654 69.7539 46.6383 70.5675 46.6654 71.3752C46.6654 71.3868 46.6654 71.3984 46.6654 71.41C46.6654 72.1577 47.8265 72.1596 47.8265 71.41V53.8788C47.8265 53.0711 47.8536 52.2576 47.8265 51.4499C47.8265 51.4382 47.8265 51.4266 47.8265 51.415C47.8265 50.6673 46.6654 50.6654 46.6654 51.415Z" fill="white" stroke="white" stroke-width="0.5"/>
<path d="M42.7754 40.2572C43.3095 40.4877 43.8417 40.7163 44.3759 40.9468C45.6493 41.4949 46.9208 42.045 48.1942 42.5932C49.7405 43.2595 51.2888 43.9277 52.8351 44.594C54.1666 45.1674 55.4981 45.7426 56.8296 46.316C57.2708 46.5058 57.7121 46.6956 58.1533 46.8874C58.3584 46.9765 58.5675 47.0888 58.7823 47.1585C58.792 47.1624 58.7997 47.1663 58.8094 47.1702L58.521 46.6685V52.8435C58.6623 52.6575 58.8055 52.4696 58.9468 52.2837C57.4314 52.8396 55.9161 53.3936 54.4007 53.9495L53.7524 54.1877C53.9982 54.3737 54.242 54.5615 54.4878 54.7475V48.7488C54.4878 48.5628 54.3814 48.3246 54.1995 48.2471C53.6692 48.0185 53.1389 47.79 52.6087 47.5614C51.3352 47.0113 50.0618 46.4612 48.7884 45.9131C47.2479 45.2468 45.7054 44.5824 44.1649 43.9161C42.8257 43.337 41.4865 42.7598 40.1472 42.1806C39.5008 41.9017 38.8525 41.6208 38.2061 41.3419C38.1964 41.338 38.1887 41.3342 38.179 41.3303C37.8907 41.2063 37.5559 41.2451 37.3855 41.5395C37.2423 41.7855 37.3043 42.2097 37.5946 42.3336C38.1248 42.5622 38.6551 42.7907 39.1854 43.0193C40.4588 43.5694 41.7322 44.1195 43.0057 44.6696C44.5462 45.3359 46.0886 46.0003 47.6291 46.6666L51.6468 48.4021C52.0842 48.5919 52.5216 48.7798 52.9589 48.9676C53.166 49.0567 53.375 49.171 53.5879 49.2388C53.5976 49.2427 53.6053 49.2466 53.615 49.2504C53.5182 49.0839 53.4234 48.9154 53.3267 48.7488V54.7475C53.3267 55.1 53.7021 55.439 54.0621 55.3073C55.5774 54.7514 57.0928 54.1974 58.6081 53.6415C58.8249 53.5621 59.0397 53.4827 59.2564 53.4032C59.5003 53.3141 59.6822 53.1146 59.6822 52.8435V46.6685C59.6822 46.4826 59.5757 46.2443 59.3938 46.1668C58.8597 45.9363 58.3275 45.7078 57.7933 45.4773C56.5199 44.9291 55.2484 44.379 53.975 43.8309C52.4287 43.1646 50.8804 42.4963 49.3341 41.83L45.3396 40.1081C44.6894 39.8272 44.0391 39.5464 43.3869 39.2655C43.3772 39.2616 43.3695 39.2578 43.3598 39.2539C43.0715 39.1299 42.7367 39.1687 42.5664 39.4631C42.4231 39.7091 42.4851 40.1333 42.7754 40.2572Z" fill="white" stroke="white" stroke-width="0.5"/>
<path d="M53.7305 36.8242C53.7402 33.6844 55.1162 30.7092 57.5256 28.66C59.8848 26.6533 63.1864 25.7681 66.2306 26.3143C69.2787 26.8625 71.9437 28.7006 73.5229 31.331C75.1814 34.0931 75.4988 37.4963 74.3763 40.5508C73.2964 43.4872 70.825 45.8987 67.8621 46.9098C67.4808 47.0396 67.0918 47.1481 66.699 47.2372C66.3932 47.3069 66.2132 47.6594 66.2926 47.9519C66.3797 48.2657 66.7009 48.4284 67.0067 48.3587C70.4148 47.5839 73.3913 45.2595 74.9511 42.1256C76.5555 38.9025 76.6 35.0809 75.0924 31.8152C73.6796 28.7549 70.9141 26.4015 67.684 25.4621C64.334 24.4878 60.6008 25.0708 57.725 27.0542C54.8839 29.0125 53.028 32.1174 52.639 35.5458C52.5906 35.97 52.5693 36.3961 52.5674 36.8242C52.5654 37.5718 53.7266 37.5738 53.7286 36.8242H53.7305Z" fill="white" stroke="white" stroke-width="0.5"/>
<path d="M67.0974 33.699C65.793 34.8437 64.4886 35.9884 63.1842 37.1351C63.0003 37.2978 62.8145 37.4586 62.6307 37.6213C62.3946 37.8285 62.4197 38.2314 62.6307 38.4425C62.8648 38.6769 63.2151 38.6498 63.4512 38.4425C64.7556 37.2978 66.06 36.1531 67.3664 35.0064C67.5502 34.8437 67.736 34.6829 67.9199 34.5202C68.156 34.313 68.1308 33.9101 67.9199 33.699C67.6857 33.4646 67.3354 33.4917 67.0993 33.699H67.0974Z" fill="white" stroke="white" stroke-width="0.5"/>
<path d="M59.4612 32.7967C61.1449 34.507 62.8306 36.2173 64.5143 37.9296C64.7523 38.1697 64.9884 38.4119 65.2265 38.652C65.751 39.1847 66.5735 38.3634 66.0471 37.8308C64.3633 36.1204 62.6777 34.4101 60.994 32.6979C60.7559 32.4577 60.5198 32.2156 60.2818 31.9754C59.7573 31.4427 58.9348 32.264 59.4612 32.7967Z" fill="white" stroke="white" stroke-width="0.5"/>
</svg>
