<svg width="99" height="99" viewBox="0 0 99 99" fill="none" xmlns="http://www.w3.org/2000/svg">
<circle cx="49.5" cy="49.5" r="49.5" fill="#91A28F"/>
<path d="M61.9751 49.3137H73.7849C74.2157 49.3137 74.5241 48.8133 74.2874 48.4355C73.3969 47.0102 72.5064 45.5848 71.6158 44.1614C71.2258 43.5363 70.8436 42.9035 70.4439 42.2843C70.1801 41.8754 69.7998 41.9357 69.3846 41.9357H57.7533C56.4786 41.9357 55.198 41.9046 53.9233 41.9357C53.9039 41.9357 53.8845 41.9357 53.8651 41.9357C53.1162 41.9357 53.1143 43.1041 53.8651 43.1041H69.9026C69.7358 43.0067 69.567 42.9113 69.4001 42.8139C70.5313 44.6248 71.6643 46.4357 72.7954 48.2466C72.9565 48.5056 73.1195 48.7646 73.2805 49.0236C73.4473 48.7315 73.6161 48.4375 73.783 48.1454H61.9731C61.2242 48.1454 61.2223 49.3137 61.9731 49.3137H61.9751Z" fill="white" stroke="white" stroke-width="0.5"/>
<path d="M42.7382 68.0079H69.9686C71.2219 68.0079 72.4792 68.0429 73.7325 68.0079C73.75 68.0079 73.7674 68.0079 73.7849 68.0079C74.0992 68.0079 74.3669 67.7411 74.3669 67.4237V51.0301C74.3669 50.2746 74.3941 49.5152 74.3669 48.7616C74.3669 48.7499 74.3669 48.7402 74.3669 48.7285C74.3669 47.9769 73.2028 47.9749 73.2028 48.7285V66.6546C73.2028 66.898 73.1854 67.1492 73.2028 67.3906C73.2028 67.4004 73.2028 67.412 73.2028 67.4237L73.7849 66.8396H46.5545C45.3012 66.8396 44.0439 66.8045 42.7906 66.8396C42.7731 66.8396 42.7557 66.8396 42.7382 66.8396C41.9893 66.8396 41.9873 68.0079 42.7382 68.0079Z" fill="white" stroke="white" stroke-width="0.5"/>
<path d="M54.7553 42.4982C54.4992 44.5428 54.2431 46.5854 53.987 48.63C53.9191 49.1713 53.7969 49.7321 53.7969 50.2812V56.5201C53.7969 56.9466 54.2974 57.2717 54.6719 57.0245C55.318 56.6 55.966 56.1755 56.6121 55.749H56.0242C56.6703 56.1735 57.3183 56.598 57.9644 57.0245C58.1293 57.1335 58.3873 57.1335 58.5522 57.0245C59.1983 56.6 59.8463 56.1755 60.4924 55.749H59.9045C60.5506 56.1735 61.1986 56.598 61.8447 57.0245C62.2192 57.2717 62.7197 56.9466 62.7197 56.5201V50.474C62.7197 49.9814 62.6421 49.4965 62.5839 49.0058C62.4345 47.7382 62.2832 46.4725 62.1338 45.2049C62.0271 44.3033 61.9204 43.4017 61.8137 42.4982C61.7768 42.1847 61.577 41.9141 61.2316 41.9141H55.3335C54.5846 41.9141 54.5826 43.0824 55.3335 43.0824H61.2316L60.6496 42.4982C60.8921 44.5428 61.1327 46.5854 61.3752 48.63C61.4392 49.1733 61.5556 49.7321 61.5556 50.2812V56.5201C61.8467 56.3527 62.1396 56.1833 62.4307 56.0158C61.7846 55.5913 61.1366 55.1668 60.4905 54.7404C60.3256 54.6313 60.0675 54.6313 59.9026 54.7404C59.2565 55.1649 58.6085 55.5894 57.9624 56.0158H58.5503C57.9042 55.5913 57.2562 55.1668 56.6101 54.7404C56.4452 54.6313 56.1872 54.6313 56.0223 54.7404C55.3762 55.1649 54.7282 55.5894 54.0821 56.0158C54.3731 56.1833 54.6661 56.3527 54.9571 56.5201V50.474C54.9571 49.9794 55.0386 49.4965 55.1007 49.0058C55.2598 47.7382 55.4169 46.4725 55.576 45.2049C55.6885 44.3033 55.8011 43.4017 55.9155 42.4982C55.9544 42.1847 55.6206 41.9141 55.3335 41.9141C54.9862 41.9141 54.7902 42.1828 54.7514 42.4982H54.7553Z" fill="white"/>
<path d="M55.3335 41.9141H61.2316C61.577 41.9141 61.7768 42.1847 61.8137 42.4982C61.9204 43.4017 62.0271 44.3033 62.1338 45.2049C62.2832 46.4725 62.4345 47.7382 62.5839 49.0058C62.6421 49.4965 62.7197 49.9814 62.7197 50.474V56.5201C62.7197 56.9466 62.2192 57.2717 61.8447 57.0245C61.1986 56.598 60.5506 56.1735 59.9045 55.749H60.4924C59.8463 56.1755 59.1983 56.6 58.5522 57.0245C58.3873 57.1335 58.1293 57.1335 57.9644 57.0245C57.3183 56.598 56.6703 56.1735 56.0242 55.749H56.6121C55.966 56.1755 55.318 56.6 54.6719 57.0245C54.2974 57.2717 53.7969 56.9466 53.7969 56.5201V50.2812C53.7969 49.7321 53.9191 49.1713 53.987 48.63C54.2431 46.5854 54.4992 44.5428 54.7553 42.4982H54.7514C54.7902 42.1828 54.9862 41.9141 55.3335 41.9141ZM55.3335 41.9141C54.5846 41.9141 54.5826 43.0824 55.3335 43.0824H61.2316L60.6496 42.4982C60.8921 44.5428 61.1327 46.5854 61.3752 48.63C61.4392 49.1733 61.5556 49.7321 61.5556 50.2812V56.5201C61.8467 56.3527 62.1396 56.1833 62.4307 56.0158C61.7846 55.5913 61.1366 55.1668 60.4905 54.7404C60.3256 54.6313 60.0675 54.6313 59.9026 54.7404C59.2565 55.1649 58.6085 55.5894 57.9624 56.0158H58.5503C57.9042 55.5913 57.2562 55.1668 56.6101 54.7404C56.4452 54.6313 56.1872 54.6313 56.0223 54.7404C55.3762 55.1649 54.7282 55.5894 54.0821 56.0158C54.3731 56.1833 54.6661 56.3527 54.9571 56.5201V50.474C54.9571 49.9794 55.0386 49.4965 55.1007 49.0058C55.2598 47.7382 55.4169 46.4725 55.576 45.2049C55.6885 44.3033 55.8011 43.4017 55.9155 42.4982C55.9544 42.1847 55.6206 41.9141 55.3335 41.9141Z" stroke="white" stroke-width="0.5"/>
<path d="M64.4697 64.8932H70.6783C70.9926 64.8932 71.2604 64.6265 71.2604 64.3091V61.1935C71.2604 60.8781 70.9946 60.6094 70.6783 60.6094H64.4697C64.1554 60.6094 63.8877 60.8761 63.8877 61.1935V64.3091C63.8877 65.0607 65.0518 65.0627 65.0518 64.3091V61.1935L64.4697 61.7777H70.6783L70.0963 61.1935V64.3091L70.6783 63.7249H64.4697C63.7208 63.7249 63.7189 64.8932 64.4697 64.8932Z" fill="white" stroke="white" stroke-width="0.5"/>
<path d="M52.1477 44.5151C52.3146 42.5971 52.2118 40.6382 51.6976 38.7766C51.1738 36.8781 50.2153 35.1314 48.9251 33.6496C46.4921 30.8593 42.9164 29.1652 39.23 29.0113C35.5748 28.8575 31.9272 30.2751 29.2828 32.8045C26.8963 35.0867 25.4839 38.1672 25.1075 41.4346C24.7427 44.5949 25.3403 47.8292 26.3841 50.8085C27.492 53.9708 29.1062 56.9519 31.0406 59.68C32.8158 62.1822 34.8588 64.5305 37.2239 66.4855C37.6061 66.801 37.9961 67.1748 38.421 67.4299C38.6092 67.5428 38.8517 67.5428 39.0554 67.4747C39.4357 67.3442 39.7597 67.0658 40.0643 66.8126C40.9161 66.1 41.6863 65.286 42.4488 64.4799C44.1891 62.6359 45.8053 60.7198 47.1712 58.574C49.286 55.252 50.8362 51.5426 51.6588 47.6851C51.8819 46.6395 52.0527 45.5822 52.1497 44.517C52.1788 44.2016 51.8625 43.9329 51.5676 43.9329C51.2281 43.9329 51.0147 44.2016 50.9856 44.517C50.8071 46.472 50.3589 48.4115 49.771 50.2827C49.2064 52.082 48.4808 53.8228 47.6077 55.4935C46.3097 57.9801 44.7013 60.2797 42.8233 62.3574C42.0802 63.1791 41.3254 63.9911 40.5416 64.7739C40.1749 65.14 39.8043 65.5002 39.4144 65.841C39.3348 65.9111 39.2553 65.9792 39.1718 66.0454C39.1369 66.0746 39.1001 66.1019 39.0651 66.1311C38.9914 66.1915 39.1001 66.1039 39.1059 66.1C39.0807 66.1175 39.0574 66.137 39.0321 66.1545C38.9177 66.2363 38.7877 66.2986 38.6752 66.3784C38.617 66.4193 38.8401 66.3297 38.7237 66.357C38.6907 66.3648 38.6092 66.3765 38.7372 66.3628C38.8634 66.3473 38.8032 66.357 38.778 66.355C38.7256 66.355 38.7353 66.3278 38.9002 66.3726C38.9545 66.3862 39.0554 66.4758 38.9584 66.3843C38.6111 66.0552 38.192 65.7806 37.8234 65.471C37.3093 65.0368 36.8126 64.5831 36.3295 64.1157C35.2701 63.0857 34.2807 61.9835 33.3571 60.8308C31.4111 58.4026 29.6883 55.6278 28.398 52.7382C27.168 49.979 26.2794 46.9043 26.1785 43.8959C26.0795 40.9595 26.7411 38.1146 28.3942 35.6572C30.2858 32.8474 33.3047 30.9352 36.6166 30.3452C39.9673 29.7493 43.4926 30.6626 46.2283 32.7169C47.6407 33.7781 48.8184 35.1704 49.6449 36.734C50.4695 38.2918 50.9118 40.0365 51.0244 41.7929C51.0826 42.7003 51.0612 43.6096 50.9817 44.5151C50.9545 44.8305 51.2688 45.0992 51.5637 45.0992C51.9013 45.0992 52.1186 44.8305 52.1458 44.5151H52.1477Z" fill="white" stroke="white" stroke-width="0.5"/>
<path d="M34.4747 42.5313C34.4805 41.6473 34.7405 40.8256 35.2682 40.0798C35.7086 39.4606 36.4401 38.9017 37.1541 38.6408C38.8343 38.0274 40.6658 38.524 41.8163 39.8967C42.9106 41.2014 43.0483 43.1797 42.1655 44.6635C41.2886 46.1376 39.5056 46.9457 37.8409 46.6146C36.8592 46.418 36.0579 45.9389 35.4098 45.1659C34.8161 44.4571 34.4805 43.4816 34.4747 42.5313C34.4689 41.7797 33.3047 41.7777 33.3106 42.5313C33.3261 44.7784 34.7444 46.7821 36.8456 47.5493C38.8866 48.2951 41.306 47.6311 42.6816 45.9428C44.0979 44.2059 44.3249 41.7154 43.155 39.7819C41.9909 37.858 39.7229 36.8844 37.5324 37.3225C35.0897 37.8113 33.328 40.0584 33.3125 42.5333C33.3067 43.2849 34.4708 43.2868 34.4766 42.5333L34.4747 42.5313Z" fill="white"/>
<path d="M34.4747 42.5313C34.4805 41.6473 34.7405 40.8256 35.2682 40.0798C35.7086 39.4606 36.4401 38.9017 37.1541 38.6408C38.8343 38.0274 40.6658 38.524 41.8163 39.8967C42.9106 41.2014 43.0483 43.1797 42.1655 44.6635C41.2886 46.1376 39.5056 46.9457 37.8409 46.6146C36.8592 46.418 36.0579 45.9389 35.4098 45.1659C34.8161 44.4571 34.4805 43.4816 34.4747 42.5313ZM34.4747 42.5313C34.4689 41.7797 33.3047 41.7777 33.3106 42.5313C33.3261 44.7784 34.7444 46.7821 36.8456 47.5493C38.8866 48.2951 41.306 47.6311 42.6816 45.9428C44.0979 44.2059 44.3249 41.7154 43.155 39.7819C41.9909 37.858 39.7229 36.8844 37.5324 37.3225C35.0897 37.8113 33.328 40.0584 33.3125 42.5333C33.3067 43.2849 34.4708 43.2868 34.4766 42.5333L34.4747 42.5313Z" stroke="white" stroke-width="0.5"/>
</svg>
