<svg width="99" height="99" viewBox="0 0 99 99" fill="none" xmlns="http://www.w3.org/2000/svg">
<circle cx="49.5" cy="49.5" r="49.5" fill="#DD577A"/>
<path d="M60.8291 49.3137H72.6267C73.057 49.3137 73.3651 48.8133 73.1287 48.4355C72.2391 47.0102 71.3495 45.5848 70.4598 44.1614C70.0703 43.5363 69.6885 42.9035 69.2892 42.2843C69.0256 41.8754 68.6457 41.9357 68.231 41.9357H56.6117C55.3383 41.9357 54.0592 41.9046 52.7858 41.9357C52.7664 41.9357 52.747 41.9357 52.7276 41.9357C51.9795 41.9357 51.9776 43.1041 52.7276 43.1041H68.7485C68.5818 43.0067 68.4131 42.9113 68.2465 42.8139C69.3764 44.6248 70.5083 46.4357 71.6382 48.2466C71.7991 48.5056 71.9619 48.7646 72.1228 49.0236C72.2895 48.7315 72.4581 48.4375 72.6248 48.1454H60.8272C60.0791 48.1454 60.0771 49.3137 60.8272 49.3137H60.8291Z" fill="white" stroke="white" stroke-width="0.5"/>
<path d="M41.6123 68.0079H68.8144C70.0664 68.0079 71.3223 68.0429 72.5744 68.0079C72.5918 68.0079 72.6093 68.0079 72.6267 68.0079C72.9407 68.0079 73.2082 67.7411 73.2082 67.4237V51.0301C73.2082 50.2746 73.2353 49.5152 73.2082 48.7616C73.2082 48.7499 73.2082 48.7402 73.2082 48.7285C73.2082 47.9769 72.0453 47.9749 72.0453 48.7285V66.6546C72.0453 66.898 72.0278 67.1492 72.0453 67.3906C72.0453 67.4004 72.0453 67.412 72.0453 67.4237L72.6267 66.8396H45.4247C44.1726 66.8396 42.9167 66.8045 41.6646 66.8396C41.6472 66.8396 41.6298 66.8396 41.6123 66.8396C40.8642 66.8396 40.8622 68.0079 41.6123 68.0079Z" fill="white" stroke="white" stroke-width="0.5"/>
<path d="M53.6173 42.4982C53.3614 44.5428 53.1056 46.5854 52.8497 48.63C52.7819 49.1713 52.6598 49.7321 52.6598 50.2812V56.5201C52.6598 56.9466 53.1598 57.2717 53.5339 57.0245C54.1793 56.6 54.8267 56.1755 55.4721 55.749H54.8848C55.5302 56.1735 56.1776 56.598 56.823 57.0245C56.9877 57.1335 57.2455 57.1335 57.4102 57.0245C58.0556 56.6 58.703 56.1755 59.3484 55.749H58.7611C59.4065 56.1735 60.0539 56.598 60.6993 57.0245C61.0733 57.2717 61.5734 56.9466 61.5734 56.5201V50.474C61.5734 49.9814 61.4959 49.4965 61.4377 49.0058C61.2885 47.7382 61.1373 46.4725 60.9881 45.2049C60.8815 44.3033 60.7749 43.4017 60.6683 42.4982C60.6314 42.1847 60.4318 41.9141 60.0868 41.9141H54.1948C53.4467 41.9141 53.4448 43.0824 54.1948 43.0824H60.0868L59.5054 42.4982C59.7476 44.5428 59.988 46.5854 60.2302 48.63C60.2942 49.1733 60.4105 49.7321 60.4105 50.2812V56.5201C60.7012 56.3527 60.9939 56.1833 61.2846 56.0158C60.6392 55.5913 59.9919 55.1668 59.3464 54.7404C59.1817 54.6313 58.9239 54.6313 58.7592 54.7404C58.1138 55.1649 57.4664 55.5894 56.821 56.0158H57.4083C56.7629 55.5913 56.1155 55.1668 55.4701 54.7404C55.3054 54.6313 55.0476 54.6313 54.8829 54.7404C54.2375 55.1649 53.5901 55.5894 52.9447 56.0158C53.2354 56.1833 53.5281 56.3527 53.8188 56.5201V50.474C53.8188 49.9794 53.9002 49.4965 53.9622 49.0058C54.1212 47.7382 54.2782 46.4725 54.4371 45.2049C54.5495 44.3033 54.6619 43.4017 54.7763 42.4982C54.815 42.1847 54.4817 41.9141 54.1948 41.9141C53.8479 41.9141 53.6521 42.1828 53.6134 42.4982H53.6173Z" fill="white"/>
<path d="M54.1948 41.9141H60.0868C60.4318 41.9141 60.6314 42.1847 60.6683 42.4982C60.7749 43.4017 60.8815 44.3033 60.9881 45.2049C61.1373 46.4725 61.2885 47.7382 61.4377 49.0058C61.4959 49.4965 61.5734 49.9814 61.5734 50.474V56.5201C61.5734 56.9466 61.0733 57.2717 60.6993 57.0245C60.0539 56.598 59.4065 56.1735 58.7611 55.749H59.3484C58.703 56.1755 58.0556 56.6 57.4102 57.0245C57.2455 57.1335 56.9877 57.1335 56.823 57.0245C56.1776 56.598 55.5302 56.1735 54.8848 55.749H55.4721C54.8267 56.1755 54.1793 56.6 53.5339 57.0245C53.1598 57.2717 52.6598 56.9466 52.6598 56.5201V50.2812C52.6598 49.7321 52.7819 49.1713 52.8497 48.63C53.1056 46.5854 53.3614 44.5428 53.6173 42.4982H53.6134C53.6521 42.1828 53.8479 41.9141 54.1948 41.9141ZM54.1948 41.9141C53.4467 41.9141 53.4448 43.0824 54.1948 43.0824H60.0868L59.5054 42.4982C59.7476 44.5428 59.988 46.5854 60.2302 48.63C60.2942 49.1733 60.4105 49.7321 60.4105 50.2812V56.5201C60.7012 56.3527 60.9939 56.1833 61.2846 56.0158C60.6392 55.5913 59.9919 55.1668 59.3464 54.7404C59.1817 54.6313 58.9239 54.6313 58.7592 54.7404C58.1138 55.1649 57.4664 55.5894 56.821 56.0158H57.4083C56.7629 55.5913 56.1155 55.1668 55.4701 54.7404C55.3054 54.6313 55.0476 54.6313 54.8829 54.7404C54.2375 55.1649 53.5901 55.5894 52.9447 56.0158C53.2354 56.1833 53.5281 56.3527 53.8188 56.5201V50.474C53.8188 49.9794 53.9002 49.4965 53.9622 49.0058C54.1212 47.7382 54.2782 46.4725 54.4371 45.2049C54.5495 44.3033 54.6619 43.4017 54.7763 42.4982C54.815 42.1847 54.4817 41.9141 54.1948 41.9141Z" stroke="white" stroke-width="0.5"/>
<path d="M63.3216 64.8932H69.5237C69.8377 64.8932 70.1052 64.6265 70.1052 64.3091V61.1935C70.1052 60.8781 69.8396 60.6094 69.5237 60.6094H63.3216C63.0076 60.6094 62.7402 60.8761 62.7402 61.1935V64.3091C62.7402 65.0607 63.9031 65.0627 63.9031 64.3091V61.1935L63.3216 61.7777H69.5237L68.9423 61.1935V64.3091L69.5237 63.7249H63.3216C62.5735 63.7249 62.5715 64.8932 63.3216 64.8932Z" fill="white" stroke="white" stroke-width="0.5"/>
<path d="M51.0123 44.5151C51.179 42.5971 51.0763 40.6382 50.5627 38.7766C50.0394 36.8781 49.0819 35.1314 47.793 33.6496C45.3626 30.8593 41.7906 29.1652 38.1081 29.0113C34.4566 28.8575 30.8128 30.2751 28.1711 32.8045C25.7872 35.0867 24.3762 38.1672 24.0002 41.4346C23.6358 44.5949 24.2328 47.8292 25.2755 50.8085C26.3822 53.9708 27.9948 56.9519 29.9271 59.68C31.7005 62.1822 33.7414 64.5305 36.104 66.4855C36.4858 66.801 36.8754 67.1748 37.2998 67.4299C37.4878 67.5428 37.7301 67.5428 37.9336 67.4747C38.3135 67.3442 38.6372 67.0658 38.9415 66.8126C39.7923 66.1 40.5618 65.286 41.3235 64.4799C43.062 62.6359 44.6765 60.7198 46.0409 58.574C48.1535 55.252 49.7021 51.5426 50.5239 47.6851C50.7468 46.6395 50.9173 45.5822 51.0142 44.517C51.0433 44.2016 50.7274 43.9329 50.4328 43.9329C50.0936 43.9329 49.8804 44.2016 49.8514 44.517C49.673 46.472 49.2253 48.4115 48.6381 50.2827C48.0741 52.082 47.3492 53.8228 46.477 55.4935C45.1804 57.9801 43.5737 60.2797 41.6975 62.3574C40.9552 63.1791 40.2013 63.9911 39.4183 64.7739C39.0519 65.14 38.6818 65.5002 38.2922 65.841C38.2127 65.9111 38.1333 65.9792 38.0499 66.0454C38.015 66.0746 37.9782 66.1019 37.9433 66.1311C37.8697 66.1915 37.9782 66.1039 37.984 66.1C37.9588 66.1175 37.9356 66.137 37.9104 66.1545C37.796 66.2363 37.6662 66.2986 37.5537 66.3784C37.4956 66.4193 37.7185 66.3297 37.6022 66.357C37.5693 66.3648 37.4879 66.3765 37.6158 66.3628C37.7417 66.3473 37.6817 66.357 37.6565 66.355C37.6041 66.355 37.6138 66.3278 37.7786 66.3726C37.8328 66.3862 37.9336 66.4758 37.8367 66.3843C37.4898 66.0552 37.0711 65.7806 36.7029 65.471C36.1893 65.0368 35.6931 64.5831 35.2105 64.1157C34.1523 63.0857 33.1638 61.9835 32.2413 60.8308C30.2973 58.4026 28.5762 55.6278 27.2873 52.7382C26.0585 49.979 25.1709 46.9043 25.0701 43.8959C24.9712 40.9595 25.6321 38.1146 27.2835 35.6572C29.1732 32.8474 32.1889 30.9352 35.4974 30.3452C38.8446 29.7493 42.3662 30.6626 45.099 32.7169C46.51 33.7781 47.6864 35.1704 48.5121 36.734C49.3358 38.2918 49.7777 40.0365 49.8901 41.7929C49.9483 42.7003 49.9269 43.6096 49.8475 44.5151C49.8203 44.8305 50.1343 45.0992 50.4289 45.0992C50.7662 45.0992 50.9832 44.8305 51.0104 44.5151H51.0123Z" fill="white" stroke="white" stroke-width="0.5"/>
<path d="M33.3577 42.5313C33.3635 41.6473 33.6232 40.8256 34.1504 40.0798C34.5904 39.4606 35.3211 38.9017 36.0343 38.6408C37.7127 38.0274 39.5424 38.524 40.6917 39.8967C41.7848 41.2014 41.9224 43.1797 41.0406 44.6635C40.1645 46.1376 38.3833 46.9457 36.7204 46.6146C35.7397 46.418 34.9392 45.9389 34.2919 45.1659C33.6988 44.4571 33.3635 43.4816 33.3577 42.5313C33.3519 41.7797 32.189 41.7777 32.1948 42.5313C32.2103 44.7784 33.6271 46.7821 35.7261 47.5493C37.7651 48.2951 40.1819 47.6311 41.5561 45.9428C42.971 44.2059 43.1977 41.7154 42.029 39.7819C40.8661 37.858 38.6004 36.8844 36.4122 37.3225C33.9721 37.8113 32.2122 40.0584 32.1967 42.5333C32.1909 43.2849 33.3538 43.2868 33.3596 42.5333L33.3577 42.5313Z" fill="white"/>
<path d="M33.3577 42.5313C33.3635 41.6473 33.6232 40.8256 34.1504 40.0798C34.5904 39.4606 35.3211 38.9017 36.0343 38.6408C37.7127 38.0274 39.5424 38.524 40.6917 39.8967C41.7848 41.2014 41.9224 43.1797 41.0406 44.6635C40.1645 46.1376 38.3833 46.9457 36.7204 46.6146C35.7397 46.418 34.9392 45.9389 34.2919 45.1659C33.6988 44.4571 33.3635 43.4816 33.3577 42.5313ZM33.3577 42.5313C33.3519 41.7797 32.189 41.7777 32.1948 42.5313C32.2103 44.7784 33.6271 46.7821 35.7261 47.5493C37.7651 48.2951 40.1819 47.6311 41.5561 45.9428C42.971 44.2059 43.1977 41.7154 42.029 39.7819C40.8661 37.858 38.6004 36.8844 36.4122 37.3225C33.9721 37.8113 32.2122 40.0584 32.1967 42.5333C32.1909 43.2849 33.3538 43.2868 33.3596 42.5333L33.3577 42.5313Z" stroke="white" stroke-width="0.5"/>
</svg>
