<svg width="99" height="99" viewBox="0 0 99 99" fill="none" xmlns="http://www.w3.org/2000/svg">
<circle cx="49.5" cy="49.5" r="49.5" fill="#9A8197"/>
<path d="M61.9748 49.3131H73.7846C74.2154 49.3131 74.5238 48.8127 74.2871 48.4349C73.3966 47.0095 72.5061 45.5842 71.6155 44.1608C71.2255 43.5357 70.8433 42.9029 70.4437 42.2836C70.1798 41.8747 69.7995 41.9351 69.3843 41.9351H57.753C56.4783 41.9351 55.1978 41.9039 53.9231 41.9351C53.9037 41.9351 53.8843 41.9351 53.8649 41.9351C53.1159 41.9351 53.114 43.1034 53.8649 43.1034H69.9023C69.7355 43.0061 69.5667 42.9107 69.3998 42.8133C70.531 44.6242 71.664 46.4351 72.7952 48.246C72.9562 48.505 73.1192 48.764 73.2802 49.023C73.4471 48.7309 73.6158 48.4368 73.7827 48.1448H61.9728C61.2239 48.1448 61.222 49.3131 61.9728 49.3131H61.9748Z" fill="white" stroke="white" stroke-width="0.5"/>
<path d="M42.7379 68.0083H69.9683C71.2217 68.0083 72.4789 68.0434 73.7323 68.0083C73.7497 68.0083 73.7672 68.0083 73.7847 68.0083C74.099 68.0083 74.3667 67.7415 74.3667 67.4241V51.0305C74.3667 50.275 74.3939 49.5156 74.3667 48.762C74.3667 48.7503 74.3667 48.7406 74.3667 48.7289C74.3667 47.9773 73.2026 47.9754 73.2026 48.7289V66.655C73.2026 66.8984 73.1851 67.1496 73.2026 67.391C73.2026 67.4008 73.2026 67.4125 73.2026 67.4241L73.7847 66.84H46.5543C45.3009 66.84 44.0437 66.8049 42.7903 66.84C42.7729 66.84 42.7554 66.84 42.7379 66.84C41.989 66.84 41.9871 68.0083 42.7379 68.0083Z" fill="white" stroke="white" stroke-width="0.5"/>
<path d="M54.7554 42.4978C54.4993 44.5424 54.2432 46.5851 53.9871 48.6296C53.9192 49.171 53.797 49.7318 53.797 50.2809V56.5197C53.797 56.9462 54.2975 57.2714 54.672 57.0241C55.318 56.5996 55.9661 56.1751 56.6121 55.7486H56.0243C56.6704 56.1731 57.3184 56.5976 57.9644 57.0241C58.1294 57.1331 58.3874 57.1331 58.5523 57.0241C59.1984 56.5996 59.8464 56.1751 60.4925 55.7486H59.9046C60.5507 56.1731 61.1987 56.5976 61.8448 57.0241C62.2193 57.2714 62.7198 56.9462 62.7198 56.5197V50.4736C62.7198 49.981 62.6422 49.4961 62.584 49.0054C62.4346 47.7378 62.2833 46.4721 62.1339 45.2045C62.0272 44.3029 61.9205 43.4014 61.8138 42.4978C61.7769 42.1843 61.5771 41.9137 61.2317 41.9137H55.3336C54.5847 41.9137 54.5827 43.082 55.3336 43.082H61.2317L60.6497 42.4978C60.8922 44.5424 61.1328 46.5851 61.3753 48.6296C61.4393 49.1729 61.5557 49.7318 61.5557 50.2809V56.5197C61.8467 56.3523 62.1397 56.1829 62.4307 56.0154C61.7847 55.5909 61.1366 55.1664 60.4906 54.74C60.3256 54.6309 60.0676 54.6309 59.9027 54.74C59.2566 55.1645 58.6086 55.589 57.9625 56.0154H58.5504C57.9043 55.5909 57.2563 55.1664 56.6102 54.74C56.4453 54.6309 56.1872 54.6309 56.0223 54.74C55.3763 55.1645 54.7282 55.589 54.0822 56.0154C54.3732 56.1829 54.6661 56.3523 54.9572 56.5197V50.4736C54.9572 49.979 55.0387 49.4961 55.1007 49.0054C55.2598 47.7378 55.417 46.4721 55.5761 45.2045C55.6886 44.3029 55.8012 43.4014 55.9156 42.4978C55.9544 42.1843 55.6207 41.9137 55.3336 41.9137C54.9863 41.9137 54.7903 42.1824 54.7515 42.4978H54.7554Z" fill="white"/>
<path d="M55.3336 41.9137H61.2317C61.5771 41.9137 61.7769 42.1843 61.8138 42.4978C61.9205 43.4014 62.0272 44.3029 62.1339 45.2045C62.2833 46.4721 62.4346 47.7378 62.584 49.0054C62.6422 49.4961 62.7198 49.981 62.7198 50.4736V56.5197C62.7198 56.9462 62.2193 57.2714 61.8448 57.0241C61.1987 56.5976 60.5507 56.1731 59.9046 55.7486H60.4925C59.8464 56.1751 59.1984 56.5996 58.5523 57.0241C58.3874 57.1331 58.1294 57.1331 57.9644 57.0241C57.3184 56.5976 56.6704 56.1731 56.0243 55.7486H56.6121C55.9661 56.1751 55.318 56.5996 54.672 57.0241C54.2975 57.2714 53.797 56.9462 53.797 56.5197V50.2809C53.797 49.7318 53.9192 49.171 53.9871 48.6296C54.2432 46.5851 54.4993 44.5424 54.7554 42.4978H54.7515C54.7903 42.1824 54.9863 41.9137 55.3336 41.9137ZM55.3336 41.9137C54.5847 41.9137 54.5827 43.082 55.3336 43.082H61.2317L60.6497 42.4978C60.8922 44.5424 61.1328 46.5851 61.3753 48.6296C61.4393 49.1729 61.5557 49.7318 61.5557 50.2809V56.5197C61.8467 56.3523 62.1397 56.1829 62.4307 56.0154C61.7847 55.5909 61.1366 55.1664 60.4906 54.74C60.3256 54.6309 60.0676 54.6309 59.9027 54.74C59.2566 55.1645 58.6086 55.589 57.9625 56.0154H58.5504C57.9043 55.5909 57.2563 55.1664 56.6102 54.74C56.4453 54.6309 56.1872 54.6309 56.0223 54.74C55.3763 55.1645 54.7282 55.589 54.0822 56.0154C54.3732 56.1829 54.6661 56.3523 54.9572 56.5197V50.4736C54.9572 49.979 55.0387 49.4961 55.1007 49.0054C55.2598 47.7378 55.417 46.4721 55.5761 45.2045C55.6886 44.3029 55.8012 43.4014 55.9156 42.4978C55.9544 42.1843 55.6207 41.9137 55.3336 41.9137Z" stroke="white" stroke-width="0.5"/>
<path d="M64.4699 64.8928H70.6784C70.9927 64.8928 71.2605 64.626 71.2605 64.3086V61.1931C71.2605 60.8776 70.9947 60.6089 70.6784 60.6089H64.4699C64.1555 60.6089 63.8878 60.8757 63.8878 61.1931V64.3086C63.8878 65.0602 65.0519 65.0622 65.0519 64.3086V61.1931L64.4699 61.7772H70.6784L70.0964 61.1931V64.3086L70.6784 63.7244H64.4699C63.7209 63.7244 63.719 64.8928 64.4699 64.8928Z" fill="white" stroke="white" stroke-width="0.5"/>
<path d="M52.1477 44.5151C52.3146 42.5971 52.2118 40.6382 51.6976 38.7766C51.1738 36.8781 50.2153 35.1314 48.9251 33.6496C46.4921 30.8593 42.9164 29.1652 39.23 29.0113C35.5748 28.8575 31.9272 30.2751 29.2828 32.8045C26.8963 35.0867 25.4839 38.1672 25.1075 41.4346C24.7427 44.5949 25.3403 47.8292 26.3841 50.8085C27.492 53.9708 29.1062 56.9519 31.0406 59.68C32.8158 62.1822 34.8588 64.5305 37.2239 66.4855C37.6061 66.801 37.9961 67.1748 38.421 67.4299C38.6092 67.5428 38.8517 67.5428 39.0554 67.4747C39.4357 67.3442 39.7597 67.0658 40.0643 66.8126C40.9161 66.1 41.6863 65.286 42.4488 64.4799C44.1891 62.6359 45.8053 60.7198 47.1712 58.574C49.286 55.252 50.8362 51.5426 51.6588 47.6851C51.8819 46.6395 52.0527 45.5822 52.1497 44.517C52.1788 44.2016 51.8625 43.9329 51.5676 43.9329C51.2281 43.9329 51.0147 44.2016 50.9856 44.517C50.8071 46.472 50.3589 48.4115 49.771 50.2827C49.2064 52.082 48.4808 53.8228 47.6077 55.4935C46.3097 57.9801 44.7013 60.2797 42.8233 62.3574C42.0802 63.1791 41.3254 63.9911 40.5416 64.7739C40.1749 65.14 39.8043 65.5002 39.4144 65.841C39.3348 65.9111 39.2553 65.9792 39.1718 66.0454C39.1369 66.0746 39.1001 66.1019 39.0651 66.1311C38.9914 66.1915 39.1001 66.1039 39.1059 66.1C39.0807 66.1175 39.0574 66.137 39.0321 66.1545C38.9177 66.2363 38.7877 66.2986 38.6752 66.3784C38.617 66.4193 38.8401 66.3297 38.7237 66.357C38.6907 66.3648 38.6092 66.3765 38.7372 66.3628C38.8634 66.3473 38.8032 66.357 38.778 66.355C38.7256 66.355 38.7353 66.3278 38.9002 66.3726C38.9545 66.3862 39.0554 66.4758 38.9584 66.3843C38.6111 66.0552 38.192 65.7806 37.8234 65.471C37.3093 65.0368 36.8126 64.5831 36.3295 64.1157C35.2701 63.0857 34.2807 61.9835 33.3571 60.8308C31.4111 58.4026 29.6883 55.6278 28.398 52.7382C27.168 49.979 26.2794 46.9043 26.1785 43.8959C26.0795 40.9595 26.7411 38.1146 28.3942 35.6572C30.2858 32.8474 33.3047 30.9352 36.6166 30.3452C39.9673 29.7493 43.4926 30.6626 46.2283 32.7169C47.6407 33.7781 48.8184 35.1704 49.6449 36.734C50.4695 38.2918 50.9118 40.0365 51.0244 41.7929C51.0826 42.7003 51.0612 43.6096 50.9817 44.5151C50.9545 44.8305 51.2688 45.0992 51.5637 45.0992C51.9013 45.0992 52.1186 44.8305 52.1458 44.5151H52.1477Z" fill="white" stroke="white" stroke-width="0.5"/>
<path d="M34.4747 42.5308C34.4806 41.6468 34.7405 40.8251 35.2683 40.0793C35.7087 39.4601 36.4401 38.9012 37.1541 38.6403C38.8343 38.0269 40.6658 38.5235 41.8164 39.8963C42.9106 41.2009 43.0484 43.1793 42.1656 44.663C41.2886 46.1371 39.5056 46.9452 37.8409 46.6142C36.8592 46.4175 36.0579 45.9385 35.4099 45.1654C34.8162 44.4566 34.4806 43.4811 34.4747 42.5308C34.4689 41.7792 33.3048 41.7773 33.3106 42.5308C33.3262 44.7779 34.7444 46.7816 36.8456 47.5488C38.8867 48.2946 41.3061 47.6306 42.6817 45.9424C44.098 44.2055 44.325 41.715 43.1551 39.7814C41.991 37.8575 39.7229 36.8839 37.5325 37.322C35.0898 37.8108 33.3281 40.0579 33.3126 42.5328C33.3067 43.2844 34.4709 43.2864 34.4767 42.5328L34.4747 42.5308Z" fill="white"/>
<path d="M34.4747 42.5308C34.4806 41.6468 34.7405 40.8251 35.2683 40.0793C35.7087 39.4601 36.4401 38.9012 37.1541 38.6403C38.8343 38.0269 40.6658 38.5235 41.8164 39.8963C42.9106 41.2009 43.0484 43.1793 42.1656 44.663C41.2886 46.1371 39.5056 46.9452 37.8409 46.6142C36.8592 46.4175 36.0579 45.9385 35.4099 45.1654C34.8162 44.4566 34.4806 43.4811 34.4747 42.5308ZM34.4747 42.5308C34.4689 41.7792 33.3048 41.7773 33.3106 42.5308C33.3262 44.7779 34.7444 46.7816 36.8456 47.5488C38.8867 48.2946 41.3061 47.6306 42.6817 45.9424C44.098 44.2055 44.325 41.715 43.1551 39.7814C41.991 37.8575 39.7229 36.8839 37.5325 37.322C35.0898 37.8108 33.3281 40.0579 33.3126 42.5328C33.3067 43.2844 34.4709 43.2864 34.4767 42.5328L34.4747 42.5308Z" stroke="white" stroke-width="0.5"/>
</svg>
