<svg width="99" height="99" viewBox="0 0 99 99" fill="none" xmlns="http://www.w3.org/2000/svg">
<circle cx="49.5" cy="49.5" r="49.5" fill="#9A8197"/>
<path d="M45.5423 31.4922H49.929C50.6672 31.4922 50.6691 30.3353 49.929 30.3353H45.5423C44.8042 30.3353 44.8023 31.4922 45.5423 31.4922Z" fill="white" stroke="white" stroke-width="0.5"/>
<path d="M34.5543 65.8645H59.823C60.1634 65.8645 60.5114 65.8857 60.8499 65.8645C60.8652 65.8645 60.8805 65.8645 60.8958 65.8645L60.3221 65.2861C60.3221 66.1055 60.3221 66.923 60.3221 67.7425C60.3221 68.0741 60.326 68.4038 60.3221 68.7355C60.3183 69.3216 60.1137 69.9212 59.7485 70.3474C59.2054 70.9798 58.5246 71.2362 57.7157 71.2362H37.9735C37.4514 71.2362 36.9887 71.215 36.566 71.001C35.6749 70.5479 35.1529 69.7014 35.151 68.7162C35.151 68.5234 35.151 68.3305 35.151 68.1377V30.8944C35.151 30.5222 35.1586 30.2446 35.2657 29.8937C35.455 29.2767 35.8968 28.7522 36.4819 28.4379C36.8242 28.2548 37.2392 28.1622 37.6446 28.1603C37.9505 28.1584 38.2565 28.1603 38.5625 28.1603H55.4439C56.2911 28.1603 57.1439 28.1275 57.9911 28.1642C59.2838 28.2201 60.3107 29.348 60.326 30.6495C60.3336 31.3937 61.481 31.3957 61.4733 30.6495C61.4561 28.9605 60.2667 27.4122 58.5992 27.0825C58.1804 26.9996 57.7712 27.0034 57.3505 27.0034H40.5493C39.5798 27.0034 38.6083 26.9957 37.6369 27.0034C36.2582 27.0131 34.9311 27.8074 34.3516 29.0896C34.0992 29.6469 34.0017 30.2311 34.0017 30.8384V67.0753C34.0017 67.6306 33.9979 68.1879 34.0017 68.7432C34.0151 70.2587 34.933 71.591 36.3251 72.1521C36.8644 72.368 37.4266 72.395 37.9945 72.395H54.6045C55.6696 72.395 56.7328 72.3969 57.7979 72.395C59.0218 72.3931 60.1386 71.8127 60.8442 70.8024C61.263 70.2008 61.4676 69.4643 61.4733 68.7335C61.4752 68.3826 61.4733 68.0298 61.4733 67.6788C61.4733 66.8825 61.4733 66.0862 61.4733 65.2899C61.4733 64.9776 61.2113 64.7115 60.8996 64.7115H37.788C36.7267 64.7115 35.6615 64.6787 34.6002 64.7115C34.5849 64.7115 34.5696 64.7115 34.5543 64.7115C33.8162 64.7115 33.8143 65.8683 34.5543 65.8683V65.8645Z" fill="white" stroke="white" stroke-width="0.5"/>
<path d="M41.7273 40.9573V36.5342L41.1536 37.1126H45.5422C46.2804 37.1126 46.2823 35.9557 45.5422 35.9557H41.1536C40.8438 35.9557 40.5799 36.2199 40.5799 36.5342V40.9573C40.5799 41.7015 41.7273 41.7034 41.7273 40.9573Z" fill="white" stroke="white" stroke-width="0.5"/>
<path d="M45.5422 60.2847H41.1536L41.7273 60.8632V56.4401C41.7273 55.6958 40.5799 55.6939 40.5799 56.4401V60.8632C40.5799 61.1755 40.8419 61.4416 41.1536 61.4416H45.5422C46.2804 61.4416 46.2823 60.2847 45.5422 60.2847Z" fill="white" stroke="white" stroke-width="0.5"/>
<path d="M64.7089 56.4401V60.8632L65.2825 60.2847H60.8977C60.1596 60.2847 60.1577 61.4416 60.8977 61.4416H65.2825C65.5923 61.4416 65.8562 61.1775 65.8562 60.8632V56.4401C65.8562 55.6958 64.7089 55.6939 64.7089 56.4401Z" fill="white" stroke="white" stroke-width="0.5"/>
<path d="M60.8977 37.1126H65.2825L64.7089 36.5342V40.9573C64.7089 41.7015 65.8562 41.7034 65.8562 40.9573V36.5342C65.8562 36.2218 65.5942 35.9557 65.2825 35.9557H60.8977C60.1596 35.9557 60.1577 37.1126 60.8977 37.1126Z" fill="white" stroke="white" stroke-width="0.5"/>
<path d="M49.4012 44.2425H45.0431L45.6168 44.8209V40.4268L45.0431 41.0052H49.4012L48.8275 40.4268V44.8209C48.8275 45.5652 49.9748 45.5671 49.9748 44.8209V40.4268C49.9748 40.1144 49.7129 39.8484 49.4012 39.8484H45.0431C44.7333 39.8484 44.4694 40.1125 44.4694 40.4268V44.8209C44.4694 45.1333 44.7314 45.3994 45.0431 45.3994H49.4012C50.1393 45.3994 50.1412 44.2425 49.4012 44.2425Z" fill="white" stroke="white" stroke-width="0.5"/>
<path d="M61.9189 57.246H57.5608L58.1345 57.8245V53.4303L57.5608 54.0087H61.9189L61.3452 53.4303V57.8245C61.3452 58.5687 62.4926 58.5706 62.4926 57.8245V53.4303C62.4926 53.1179 62.2306 52.8519 61.9189 52.8519H57.5608C57.251 52.8519 56.9871 53.116 56.9871 53.4303V57.8245C56.9871 58.1368 57.2491 58.4029 57.5608 58.4029H61.9189C62.657 58.4029 62.6589 57.246 61.9189 57.246Z" fill="white" stroke="white" stroke-width="0.5"/>
<path d="M49.4012 57.246H45.0431L45.6168 57.8245V53.4303L45.0431 54.0087H49.4012L48.8275 53.4303V57.8245C48.8275 58.5687 49.9748 58.5706 49.9748 57.8245V53.4303C49.9748 53.1179 49.7129 52.8519 49.4012 52.8519H45.0431C44.7333 52.8519 44.4694 53.116 44.4694 53.4303V57.8245C44.4694 58.1368 44.7314 58.4029 45.0431 58.4029H49.4012C50.1393 58.4029 50.1412 57.246 49.4012 57.246Z" fill="white" stroke="white" stroke-width="0.5"/>
<path d="M45.0432 50.2775H49.4012C50.1394 50.2775 50.1413 49.1206 49.4012 49.1206H45.0432C44.3051 49.1206 44.3031 50.2775 45.0432 50.2775Z" fill="white" stroke="white" stroke-width="0.5"/>
<path d="M52.1032 40.4271V44.8213C52.1032 45.1336 52.3652 45.3997 52.6769 45.3997H55.2508C55.9889 45.3997 55.9908 44.2428 55.2508 44.2428H52.6769L53.2505 44.8213V40.4271C53.2505 39.6828 52.1032 39.6809 52.1032 40.4271Z" fill="white" stroke="white" stroke-width="0.5"/>
<path d="M58.058 41.0052H61.9189L61.3452 40.4268V43.7894C61.3452 44.1018 61.6091 44.3678 61.9189 44.3678C62.2286 44.3678 62.4925 44.1037 62.4925 43.7894V40.4268C62.4925 40.1144 62.2306 39.8484 61.9189 39.8484H58.058C57.7482 39.8484 57.4843 40.1144 57.4843 40.4268C57.4843 40.7391 57.7463 41.0052 58.058 41.0052Z" fill="white" stroke="white" stroke-width="0.5"/>
<path d="M61.3452 46.7379V49.8055C61.3452 50.1082 61.6091 50.3974 61.9189 50.3839C62.2306 50.3704 62.4926 50.1294 62.4926 49.8055V46.7379C62.4926 46.4351 62.2287 46.1459 61.9189 46.1594C61.6072 46.1729 61.3452 46.4139 61.3452 46.7379Z" fill="white" stroke="white" stroke-width="0.5"/>
<path d="M58.058 49.1206H54.3138C54.004 49.1206 53.7401 49.3848 53.7401 49.6991V53.4319C53.7401 53.7346 54.004 54.0238 54.3138 54.0103C54.6255 53.9968 54.8875 53.7558 54.8875 53.4319V49.6991L54.3138 50.2775H58.058C58.3583 50.2775 58.6451 50.0114 58.6317 49.6991C58.6183 49.3848 58.3793 49.1206 58.058 49.1206Z" fill="white" stroke="white" stroke-width="0.5"/>
<path d="M52.1205 58.4026H55.2489C55.5492 58.4026 55.836 58.1365 55.8226 57.8242C55.8092 57.5099 55.5702 57.2457 55.2489 57.2457H52.1205C51.8202 57.2457 51.5334 57.5118 51.5468 57.8242C51.5602 58.1385 51.7992 58.4026 52.1205 58.4026Z" fill="white" stroke="white" stroke-width="0.5"/>
</svg>
