<svg width="99" height="99" viewBox="0 0 99 99" fill="none" xmlns="http://www.w3.org/2000/svg">
<circle cx="49.5" cy="49.5" r="49.5" fill="#DD577A"/>
<path d="M44.4137 31.4928H48.7959C49.5333 31.4928 49.5352 30.3359 48.7959 30.3359H44.4137C43.6764 30.3359 43.6745 31.4928 44.4137 31.4928Z" fill="white" stroke="white" stroke-width="0.5"/>
<path d="M33.4372 65.8645H58.6796C59.0196 65.8645 59.3673 65.8857 59.7054 65.8645C59.7207 65.8645 59.736 65.8645 59.7513 65.8645L59.1782 65.2861C59.1782 66.1055 59.1782 66.923 59.1782 67.7425C59.1782 68.0741 59.182 68.4038 59.1782 68.7355C59.1744 69.3216 58.97 69.9212 58.6051 70.3474C58.0626 70.9798 57.3825 71.2362 56.5745 71.2362H36.8528C36.3313 71.2362 35.869 71.215 35.4468 71.001C34.5566 70.5479 34.0351 69.7014 34.0332 68.7162C34.0332 68.5234 34.0332 68.3305 34.0332 68.1377V30.8944C34.0332 30.5222 34.0409 30.2446 34.1478 29.8937C34.337 29.2767 34.7782 28.7522 35.3628 28.4379C35.7047 28.2548 36.1192 28.1622 36.5242 28.1603C36.8299 28.1584 37.1355 28.1603 37.4412 28.1603H54.3051C55.1513 28.1603 56.0033 28.1275 56.8496 28.1642C58.1409 28.2201 59.1667 29.348 59.182 30.6495C59.1897 31.3937 60.3358 31.3957 60.3282 30.6495C60.311 28.9605 59.1228 27.4122 57.457 27.0825C57.0387 26.9996 56.6299 27.0034 56.2096 27.0034H39.4259C38.4574 27.0034 37.487 26.9957 36.5166 27.0034C35.1393 27.0131 33.8135 27.8074 33.2347 29.0896C32.9826 29.6469 32.8852 30.2311 32.8852 30.8384V67.0753C32.8852 67.6306 32.8813 68.1879 32.8852 68.7432C32.8985 70.2587 33.8155 71.591 35.2061 72.1521C35.7448 72.368 36.3065 72.395 36.8738 72.395H53.4665C54.5305 72.395 55.5926 72.3969 56.6566 72.395C57.8792 72.3931 58.9948 71.8127 59.6997 70.8024C60.1181 70.2008 60.3225 69.4643 60.3282 68.7335C60.3301 68.3826 60.3282 68.0298 60.3282 67.6788C60.3282 66.8825 60.3282 66.0862 60.3282 65.2899C60.3282 64.9776 60.0665 64.7115 59.7551 64.7115H36.6675C35.6073 64.7115 34.5433 64.6787 33.4831 64.7115C33.4678 64.7115 33.4525 64.7115 33.4372 64.7115C32.6999 64.7115 32.6979 65.8683 33.4372 65.8683V65.8645Z" fill="white" stroke="white" stroke-width="0.5"/>
<path d="M40.6027 40.9566V36.5335L40.0296 37.1119H44.4137C45.1511 37.1119 45.153 35.9551 44.4137 35.9551H40.0296C39.7201 35.9551 39.4565 36.2192 39.4565 36.5335V40.9566C39.4565 41.7008 40.6027 41.7028 40.6027 40.9566Z" fill="white" stroke="white" stroke-width="0.5"/>
<path d="M44.4137 60.2844H40.0296L40.6027 60.8629V56.4398C40.6027 55.6955 39.4565 55.6936 39.4565 56.4398V60.8629C39.4565 61.1752 39.7182 61.4413 40.0296 61.4413H44.4137C45.1511 61.4413 45.153 60.2844 44.4137 60.2844Z" fill="white" stroke="white" stroke-width="0.5"/>
<path d="M63.5604 56.4398V60.8629L64.1334 60.2844H59.7532C59.0158 60.2844 59.0139 61.4413 59.7532 61.4413H64.1334C64.4429 61.4413 64.7065 61.1771 64.7065 60.8629V56.4398C64.7065 55.6955 63.5604 55.6936 63.5604 56.4398Z" fill="white" stroke="white" stroke-width="0.5"/>
<path d="M59.7532 37.1119H64.1334L63.5604 36.5335V40.9566C63.5604 41.7008 64.7065 41.7028 64.7065 40.9566V36.5335C64.7065 36.2212 64.4448 35.9551 64.1334 35.9551H59.7532C59.0158 35.9551 59.0139 37.1119 59.7532 37.1119Z" fill="white" stroke="white" stroke-width="0.5"/>
<path d="M48.2686 44.2418H43.9151L44.4881 44.8203V40.4261L43.9151 41.0045H48.2686L47.6955 40.4261V44.8203C47.6955 45.5645 48.8417 45.5664 48.8417 44.8203V40.4261C48.8417 40.1137 48.58 39.8477 48.2686 39.8477H43.9151C43.6056 39.8477 43.342 40.1118 43.342 40.4261V44.8203C43.342 45.1326 43.6037 45.3987 43.9151 45.3987H48.2686C49.006 45.3987 49.0079 44.2418 48.2686 44.2418Z" fill="white" stroke="white" stroke-width="0.5"/>
<path d="M60.7733 57.2457H56.4198L56.9928 57.8242V53.43L56.4198 54.0084H60.7733L60.2002 53.43V57.8242C60.2002 58.5684 61.3464 58.5703 61.3464 57.8242V53.43C61.3464 53.1176 61.0846 52.8516 60.7733 52.8516H56.4198C56.1103 52.8516 55.8467 53.1157 55.8467 53.43V57.8242C55.8467 58.1365 56.1084 58.4026 56.4198 58.4026H60.7733C61.5106 58.4026 61.5125 57.2457 60.7733 57.2457Z" fill="white" stroke="white" stroke-width="0.5"/>
<path d="M48.2686 57.2457H43.9151L44.4881 57.8242V53.43L43.9151 54.0084H48.2686L47.6955 53.43V57.8242C47.6955 58.5684 48.8417 58.5703 48.8417 57.8242V53.43C48.8417 53.1176 48.58 52.8516 48.2686 52.8516H43.9151C43.6056 52.8516 43.342 53.1157 43.342 53.43V57.8242C43.342 58.1365 43.6037 58.4026 43.9151 58.4026H48.2686C49.006 58.4026 49.0079 57.2457 48.2686 57.2457Z" fill="white" stroke="white" stroke-width="0.5"/>
<path d="M43.9151 50.278H48.2687C49.006 50.278 49.0079 49.1211 48.2687 49.1211H43.9151C43.1778 49.1211 43.1759 50.278 43.9151 50.278Z" fill="white" stroke="white" stroke-width="0.5"/>
<path d="M50.9678 40.4281V44.8222C50.9678 45.1346 51.2295 45.4006 51.5409 45.4006H54.1121C54.8495 45.4006 54.8514 44.2438 54.1121 44.2438H51.5409L52.114 44.8222V40.4281C52.114 39.6838 50.9678 39.6819 50.9678 40.4281Z" fill="white" stroke="white" stroke-width="0.5"/>
<path d="M56.9164 41.0045H60.7733L60.2002 40.4261V43.7887C60.2002 44.1011 60.4638 44.3671 60.7733 44.3671C61.0827 44.3671 61.3463 44.103 61.3463 43.7887V40.4261C61.3463 40.1137 61.0846 39.8477 60.7733 39.8477H56.9164C56.6069 39.8477 56.3433 40.1137 56.3433 40.4261C56.3433 40.7384 56.605 41.0045 56.9164 41.0045Z" fill="white" stroke="white" stroke-width="0.5"/>
<path d="M60.2002 46.7371V49.8047C60.2002 50.1074 60.4638 50.3966 60.7733 50.3831C61.0847 50.3697 61.3464 50.1286 61.3464 49.8047V46.7371C61.3464 46.4344 61.0828 46.1452 60.7733 46.1587C60.4619 46.1722 60.2002 46.4132 60.2002 46.7371Z" fill="white" stroke="white" stroke-width="0.5"/>
<path d="M56.9165 49.1211H53.1761C52.8667 49.1211 52.6031 49.3852 52.6031 49.6995V53.4323C52.6031 53.7351 52.8667 54.0243 53.1761 54.0108C53.4875 53.9973 53.7492 53.7563 53.7492 53.4323V49.6995L53.1761 50.278H56.9165C57.2164 50.278 57.5029 50.0119 57.4895 49.6995C57.4762 49.3852 57.2374 49.1211 56.9165 49.1211Z" fill="white" stroke="white" stroke-width="0.5"/>
<path d="M50.985 58.403H54.1103C54.4102 58.403 54.6967 58.1369 54.6833 57.8245C54.67 57.5102 54.4312 57.2461 54.1103 57.2461H50.985C50.6851 57.2461 50.3986 57.5122 50.412 57.8245C50.4253 58.1388 50.6641 58.403 50.985 58.403Z" fill="white" stroke="white" stroke-width="0.5"/>
</svg>
