<svg width="99" height="99" viewBox="0 0 99 99" fill="none" xmlns="http://www.w3.org/2000/svg">
<circle cx="49.5" cy="49.5" r="49.5" fill="#9A8197"/>
<path d="M61.8296 33.8963H65.478L64.9004 33.318V70.2377C64.9004 70.737 64.8773 71.2401 64.9004 71.7394C64.9004 71.7606 64.9004 71.7818 64.9004 71.803L65.478 71.2247H36.7937C36.4086 71.2247 36.0159 71.1996 35.6308 71.2247C35.6154 71.2247 35.5981 71.2247 35.5808 71.2247L36.1584 71.803V34.8833C36.1584 34.384 36.1815 33.8809 36.1584 33.3817C36.1584 33.3605 36.1584 33.3393 36.1584 33.318L35.5808 33.8963H39.7432C40.4863 33.8963 40.4882 32.7398 39.7432 32.7398H35.5827C35.2689 32.7398 35.0051 33.0058 35.0051 33.318V70.2377C35.0051 70.737 34.9936 71.2382 35.0051 71.7394C35.0051 71.7606 35.0051 71.7818 35.0051 71.803C35.0051 72.1152 35.2689 72.3813 35.5827 72.3813H61.8412C63.0368 72.3813 64.2381 72.4179 65.4337 72.3813C65.4491 72.3813 65.4645 72.3813 65.478 72.3813C65.7899 72.3813 66.0555 72.1172 66.0555 71.803V34.8833C66.0555 34.384 66.0671 33.8828 66.0555 33.3817C66.0555 33.3605 66.0555 33.3393 66.0555 33.318C66.0555 33.0058 65.7918 32.7398 65.478 32.7398H61.8296C61.0865 32.7398 61.0846 33.8963 61.8296 33.8963Z" fill="white" stroke="white" stroke-width="0.5"/>
<path d="M57.5363 35.2282H43.8458C43.74 35.2282 43.636 35.2282 43.5301 35.2282C43.0912 35.2205 42.708 34.941 42.5944 34.5034C42.5636 34.3878 42.5675 34.382 42.5656 34.2548C42.5656 34.1969 42.5656 34.1372 42.5656 34.0774V32.6626C42.5656 32.5932 42.5656 32.5238 42.5656 32.4544C42.5656 32.4062 42.5733 32.2539 42.5656 32.2982C42.5925 32.1113 42.6175 32.0496 42.7061 31.905C42.7716 31.7951 42.8794 31.6833 42.9679 31.6236C43.172 31.4867 43.3203 31.452 43.534 31.4482C43.8247 31.4424 44.1173 31.4482 44.408 31.4482H47.3459C47.6598 31.4482 47.9197 31.1841 47.9235 30.8699C47.9351 29.7654 48.6301 28.7129 49.6562 28.337C50.769 27.9283 51.9492 28.2387 52.7193 29.1369C53.1159 29.5996 53.3354 30.2376 53.3412 30.8699C53.345 31.1822 53.603 31.4482 53.9187 31.4482H57.2071C57.3592 31.4482 57.517 31.4366 57.6672 31.4539C57.5883 31.4443 57.7192 31.4655 57.7365 31.4694C57.7885 31.4809 57.8386 31.4964 57.8886 31.5137C57.8058 31.4829 57.9849 31.5619 57.9791 31.558C58.033 31.587 58.0888 31.6197 58.137 31.6583C58.214 31.718 58.3853 31.9455 58.4238 32.0496C58.5066 32.277 58.4893 32.4428 58.4893 32.7146V33.7555C58.4893 33.902 58.4893 34.0466 58.4893 34.1931C58.4893 34.3569 58.4893 34.4051 58.4431 34.5632C58.3276 34.9526 57.9387 35.2167 57.5324 35.2263C56.7893 35.2417 56.7874 36.3983 57.5324 36.3829C58.7338 36.3578 59.6406 35.3959 59.6444 34.2027C59.6464 33.6052 59.656 33.0057 59.6444 32.4062C59.6233 31.2265 58.6818 30.3051 57.5074 30.2897C56.9221 30.282 56.3349 30.2897 55.7477 30.2897H53.9149L54.4925 30.868C54.4751 29.2391 53.4625 27.803 51.9415 27.2305C50.4668 26.6754 48.6878 27.1496 47.6829 28.3659C47.0957 29.0772 46.7722 29.9427 46.7626 30.868L47.3402 30.2897H45.001C44.125 30.2897 43.0546 30.1355 42.3037 30.6771C41.7069 31.107 41.4066 31.7624 41.4046 32.491C41.4046 32.9671 41.4046 33.4452 41.4046 33.9213C41.4046 34.4899 41.4566 35.0316 41.8089 35.5077C42.2209 36.0629 42.8428 36.3732 43.532 36.3829C44.743 36.4002 45.954 36.3829 47.1631 36.3829H53.5356C54.8448 36.3829 56.1597 36.4156 57.4689 36.3829C57.4901 36.3829 57.5093 36.3829 57.5305 36.3829C58.2737 36.3829 58.2756 35.2263 57.5305 35.2263L57.5363 35.2282Z" fill="white" stroke="white" stroke-width="0.5"/>
<path d="M49.3193 44.1186H60.7996C61.5427 44.1186 61.5446 42.9621 60.7996 42.9621H49.3193C48.5762 42.9621 48.5742 44.1186 49.3193 44.1186Z" fill="white" stroke="white" stroke-width="0.5"/>
<path d="M50.5303 31.5407C50.6092 31.5445 50.6843 31.5272 50.7536 31.4905C50.8248 31.4674 50.8865 31.4269 50.9404 31.371C50.9962 31.319 51.0366 31.2573 51.0597 31.1841C51.0963 31.1147 51.1117 31.0414 51.1098 30.9605C51.1021 30.9084 51.0963 30.8583 51.0886 30.8062C51.0616 30.7079 51.0116 30.6231 50.9404 30.5518C50.9019 30.521 50.8633 30.492 50.8229 30.4612C50.7324 30.4092 50.6362 30.3822 50.5322 30.3822C50.4533 30.3783 50.3782 30.3957 50.3089 30.4323C50.2376 30.4554 50.176 30.4959 50.1221 30.5518C50.0663 30.6038 50.0259 30.6655 50.0028 30.7388C49.9662 30.8082 49.9508 30.8814 49.9527 30.9624C49.9604 31.0144 49.9662 31.0645 49.9739 31.1166C50.0008 31.2149 50.0509 31.2997 50.1221 31.371C50.1606 31.4019 50.1991 31.4308 50.2396 31.4616C50.3301 31.5137 50.4263 31.5407 50.5303 31.5407Z" fill="white" stroke="white" stroke-width="0.5"/>
<path d="M49.3193 47.4225H54.9468C55.69 47.4225 55.6919 46.2659 54.9468 46.2659H49.3193C48.5762 46.2659 48.5742 47.4225 49.3193 47.4225Z" fill="white" stroke="white" stroke-width="0.5"/>
<path d="M49.3193 52.9624H60.7996C61.5427 52.9624 61.5446 51.8058 60.7996 51.8058H49.3193C48.5762 51.8058 48.5742 52.9624 49.3193 52.9624Z" fill="white" stroke="white" stroke-width="0.5"/>
<path d="M49.3193 56.2662H54.9468C55.69 56.2662 55.6919 55.1097 54.9468 55.1097H49.3193C48.5762 55.1097 48.5742 56.2662 49.3193 56.2662Z" fill="white" stroke="white" stroke-width="0.5"/>
<path d="M49.3193 61.8081H60.7996C61.5427 61.8081 61.5446 60.6515 60.7996 60.6515H49.3193C48.5762 60.6515 48.5742 61.8081 49.3193 61.8081Z" fill="white" stroke="white" stroke-width="0.5"/>
<path d="M49.3193 65.1104H55.0604C55.8035 65.1104 55.8055 63.9538 55.0604 63.9538H49.3193C48.5762 63.9538 48.5742 65.1104 49.3193 65.1104Z" fill="white" stroke="white" stroke-width="0.5"/>
<path d="M39.7547 45.3578C40.3804 45.9072 41.0081 46.4547 41.6338 47.004C41.8571 47.1987 42.2344 47.2527 42.4501 47.004C43.2414 46.098 44.0307 45.194 44.822 44.288L45.1647 43.8967C45.3707 43.6615 45.3957 43.3107 45.1647 43.0794C44.9548 42.8693 44.5544 42.8442 44.3484 43.0794C43.5571 43.9854 42.7677 44.8894 41.9765 45.7954L41.6338 46.1867H42.4501C41.8244 45.6373 41.1967 45.0899 40.571 44.5405C40.3362 44.3343 39.9858 44.3092 39.7547 44.5405C39.5449 44.7506 39.5198 45.1516 39.7547 45.3578Z" fill="white" stroke="white" stroke-width="0.5"/>
<path d="M39.7547 54.2556C40.3804 54.805 41.0081 55.3524 41.6338 55.9018C41.8571 56.0965 42.2344 56.1505 42.4501 55.9018C43.2414 54.9958 44.0307 54.0918 44.822 53.1858L45.1647 52.7945C45.3707 52.5593 45.3957 52.2085 45.1647 51.9772C44.9548 51.7671 44.5544 51.742 44.3484 51.9772C43.5571 52.8832 42.7677 53.7872 41.9765 54.6932C41.8629 54.8243 41.7474 54.9554 41.6338 55.0845H42.4501C41.8244 54.5351 41.1967 53.9877 40.571 53.4383C40.3362 53.2321 39.9858 53.207 39.7547 53.4383C39.5449 53.6484 39.5198 54.0494 39.7547 54.2556Z" fill="white" stroke="white" stroke-width="0.5"/>
<path d="M39.7547 63.1538C40.3804 63.7032 41.0081 64.2506 41.6338 64.8C41.8571 64.9947 42.2344 65.0487 42.4501 64.8C43.2414 63.894 44.0307 62.99 44.822 62.084L45.1647 61.6927C45.3707 61.4575 45.3957 61.1067 45.1647 60.8754C44.9548 60.6653 44.5544 60.6402 44.3484 60.8754C43.5571 61.7813 42.7677 62.6854 41.9765 63.5914L41.6338 63.9827H42.4501C41.8244 63.4333 41.1967 62.8859 40.571 62.3365C40.3362 62.1302 39.9858 62.1052 39.7547 62.3365C39.5449 62.5466 39.5198 62.9476 39.7547 63.1538Z" fill="white" stroke="white" stroke-width="0.5"/>
</svg>
