<svg width="22" height="22" viewBox="0 0 22 22" fill="none" xmlns="http://www.w3.org/2000/svg">
<path d="M6.55743 9.55658L6.57612 9.01465L6.99191 9.36037L7.51049 9.21087L7.31427 9.71543L7.61794 10.1639L7.07601 10.1312L6.7443 10.5564L6.60882 10.0331L6.09959 9.84624L6.55743 9.55658ZM7.75342 12.1588C8.94942 12.2896 10.08 11.8318 10.7714 11.1076C10.5706 11.2198 10.0893 11.4393 9.38857 11.4393C9.23907 11.4393 9.07555 11.43 8.90269 11.4066C7.71137 11.2431 7.21616 10.4676 7.1928 10.4349C7.17412 10.4069 7.18346 10.3695 7.21149 10.3508C7.23952 10.3321 7.2769 10.3415 7.29559 10.3695C7.30026 10.3788 7.78612 11.131 8.91671 11.2852C9.87444 11.416 10.5285 11.1076 10.7341 10.9862C10.5939 11.0002 10.337 11.0562 10.066 11.0189C9.65486 10.9675 9.27177 10.7526 9.10359 10.5517C8.48223 9.80419 8.81861 9.00063 7.95899 8.38395C7.26288 7.88873 6.51538 8.07561 6.43129 8.08962C5.9314 8.15036 5.63708 8.05692 5.40816 7.89808C4.89425 7.54302 4.90827 6.94035 4.8709 7.0478C3.88514 9.72477 5.80059 11.9392 7.75342 12.1588Z" fill="#DD597C"/>
<path d="M8.9495 14.8122L8.6178 15.2373L8.48232 14.7141L7.97309 14.5272L8.43093 14.2375L8.44961 13.6956L8.86541 14.0413L9.38398 13.8918L9.1831 14.3964L9.48676 14.8449L8.94483 14.8122H8.9495ZM11.1873 12.6351C11.1359 12.7799 11.0752 12.9247 10.9958 13.0836C10.4445 14.1488 9.5475 14.3637 9.51012 14.3683C9.47742 14.3777 9.44472 14.3543 9.44005 14.3216C9.4307 14.2889 9.45406 14.2562 9.48676 14.2515C9.49611 14.2515 10.3697 14.0413 10.893 13.0275C11.3368 12.1679 11.2621 11.4484 11.22 11.2148C11.1873 11.3503 11.1499 11.612 11.0285 11.8549C10.8416 12.224 10.5146 12.5136 10.267 12.6071C9.35595 12.9434 8.70657 12.3594 7.84228 12.9621C7.1415 13.4527 7.07142 14.2188 7.05273 14.3076C6.94528 14.7982 6.75373 15.0458 6.52948 15.2093C6.02025 15.5737 5.45963 15.3588 5.5484 15.4335C7.74417 17.2555 10.4725 16.1904 11.3275 14.4197C11.8507 13.3359 11.79 12.1165 11.3415 11.2242C11.3789 11.4531 11.4256 11.9764 11.192 12.6398" fill="#DD597C"/>
<path d="M15.257 9.58423L14.9253 10.0094L14.7899 9.48612L14.2806 9.29925L14.7385 9.0096L14.7572 8.46766L15.1729 8.81338L15.6915 8.66388L15.4953 9.16844L15.799 9.61694L15.257 9.58423ZM12.9165 7.71549C11.8653 8.29948 11.2159 9.33195 11.0664 10.3224C11.1645 10.1122 11.4308 9.65898 12.0008 9.25253C12.1222 9.16377 12.2624 9.07967 12.4166 9.00025C13.4817 8.4443 14.3367 8.78535 14.3741 8.80404C14.4068 8.81805 14.4208 8.85075 14.4068 8.88346C14.3928 8.91616 14.36 8.93017 14.3273 8.91616C14.318 8.91616 13.4864 8.57979 12.4726 9.1077C11.613 9.5562 11.2626 10.1869 11.1645 10.4018C11.2673 10.3084 11.4495 10.1168 11.6878 9.98601C12.0522 9.78979 12.4913 9.74308 12.7436 9.80848C13.6826 10.0561 13.8742 10.911 14.93 10.911C15.785 10.911 16.2849 10.3224 16.3456 10.2663C16.7147 9.92528 17.0137 9.83184 17.2893 9.83184C17.9153 9.8225 18.2517 10.3224 18.219 10.2103C17.4715 7.45854 14.6263 6.76244 12.9118 7.72017" fill="#DD597C"/>
<path d="M10.3984 6.32344L10.417 5.78151L10.8328 6.12723L11.3514 5.97773L11.1552 6.48229L11.4589 6.93078L10.9169 6.89808L10.5852 7.32322L10.4497 6.79997L9.94052 6.6131L10.3984 6.32344ZM10.6226 10.6309C10.4544 10.472 10.104 10.0796 9.89847 9.40686C9.85176 9.26204 9.81437 9.10319 9.78634 8.93501C9.59012 7.75303 10.1834 7.04291 10.2068 7.01488C10.2302 6.99152 10.2675 6.98685 10.2909 7.01021C10.3143 7.03357 10.3189 7.07094 10.2956 7.0943C10.2909 7.10364 9.71159 7.7904 9.90314 8.91632C10.062 9.87405 10.5525 10.402 10.7254 10.5655C10.6693 10.4347 10.5432 10.2057 10.4918 9.93478C10.4217 9.52833 10.5105 9.09852 10.6553 8.87427C11.1832 8.0567 12.0522 8.14079 12.3839 7.14102C12.6502 6.33279 12.2484 5.67406 12.211 5.59464C12.0008 5.1368 12.0101 4.82378 12.0896 4.56216C12.2764 3.96416 12.8558 3.80065 12.7436 3.79598C9.8938 3.64648 8.34741 6.13657 8.72116 8.06137C8.95008 9.24335 9.72561 10.1824 10.6226 10.6309Z" fill="#DD597C"/>
<path d="M13.9581 14.4289L13.6264 14.8541L13.4909 14.3308L12.9817 14.1439L13.4396 13.8543L13.4582 13.3124L13.874 13.6581L14.3926 13.5086L14.1964 14.0131L14.5001 14.4616L13.9581 14.4289ZM11.4774 10.6634C11.7063 10.6915 12.2202 10.7989 12.7855 11.2194C12.907 11.3081 13.0331 11.4156 13.1546 11.5324C14.0142 12.3686 13.9581 13.289 13.9535 13.331C13.9535 13.3637 13.9207 13.3871 13.888 13.3871C13.8553 13.3871 13.832 13.3544 13.832 13.3217C13.832 13.3124 13.888 12.4154 13.0705 11.6211C12.3744 10.9437 11.6689 10.8082 11.4307 10.7802C11.5521 10.8503 11.7904 10.9624 11.9913 11.1493C12.2903 11.4343 12.4725 11.8361 12.4912 12.0977C12.5472 13.0694 11.7997 13.5179 12.1268 14.5177C12.3884 15.3306 13.1079 15.6203 13.1826 15.6623C13.6218 15.9052 13.804 16.1622 13.8927 16.4238C14.0936 17.0171 13.7245 17.489 13.8226 17.4283C16.2053 15.8585 15.981 12.9386 14.5374 11.6071C13.6545 10.7896 12.4725 10.4906 11.482 10.6634" fill="#DD597C"/>
<path d="M11.1455 1.09575C8.0668 1.09575 5.04412 2.5814 3.21276 5.33312C1.80186 7.44946 1.30197 9.98628 1.79719 12.4764C2.29707 14.9711 3.736 17.1202 5.85235 18.5264C10.2205 21.437 16.1398 20.255 19.0503 15.8868C21.9609 11.5186 20.7789 5.59941 16.4107 2.68885C14.7943 1.60966 12.9582 1.09575 11.1455 1.09575ZM11.1128 21.2174C9.08993 21.2174 7.04834 20.6428 5.24033 19.4421C2.88105 17.8677 1.27861 15.471 0.72266 12.6913C0.166711 9.91153 0.722658 7.08039 2.29707 4.72111C5.544 -0.146958 12.1453 -1.46442 17.0134 1.77784C21.8814 5.02478 23.2036 11.6261 19.9567 16.4942C17.9151 19.5589 14.542 21.2174 11.1128 21.2174Z" fill="#DD597C"/>
</svg>
