<svg width="32" height="32" viewBox="0 0 32 32" fill="none" xmlns="http://www.w3.org/2000/svg">
<path d="M25.5479 17.0342L26.0903 18.5139L27.6541 18.4575L26.4214 19.4228L26.9567 20.8955L25.6536 20.0218L24.4208 20.9871L24.8505 19.4792L23.5474 18.6055L25.1182 18.5491L25.5479 17.0342Z" fill="white"/>
<path d="M10.5088 8.39502L11.9599 12.8694H16.6724L12.8615 15.6385L14.3196 20.1199L10.5088 17.3508L6.69794 20.1199L8.15607 15.6385L4.34521 12.8694H9.05771L10.5088 8.39502Z" fill="white"/>
<path d="M22.1535 6.40771L22.0126 7.97198L23.4566 8.585L21.928 8.93731L21.7942 10.5016L20.9841 9.15574L19.4556 9.50805L20.484 8.32429L19.681 6.97846L21.125 7.59148L22.1535 6.40771Z" fill="white"/>
<path d="M27.1767 11.2142L26.4441 12.5953L27.536 13.7227L25.9933 13.4549L25.2607 14.843L25.0353 13.2928L23.4927 13.018L24.9015 12.3275L24.6761 10.7773L25.7679 11.9047L27.1767 11.2142Z" fill="white"/>
<path d="M22.068 21.4941L21.9975 23.0654L23.4627 23.6151L21.9482 24.0308L21.8778 25.6021L21.0184 24.2915L19.5039 24.7002L20.483 23.4812L19.6237 22.1706L21.0888 22.7202L22.068 21.4941Z" fill="white"/>
<path d="M16.0319 1.65191C11.3899 1.65191 6.83235 3.89261 4.07107 8.04284C1.94375 11.2348 1.19004 15.0609 1.93671 18.8165C2.69043 22.5792 4.86 25.8205 8.05097 27.9414C14.6372 32.3312 23.562 30.5485 27.9505 23.9603C32.339 17.372 30.5568 8.44447 23.9706 4.05467C21.5333 2.427 18.765 1.65191 16.0319 1.65191ZM15.9826 32C12.9325 32 9.85425 31.1333 7.12819 29.3224C3.57093 26.9479 1.15483 23.3331 0.316579 19.1406C-0.521666 14.9481 0.316576 10.6781 2.69043 7.11978C7.58607 -0.222383 17.5394 -2.20942 24.8793 2.68066C32.2192 7.57779 34.2127 17.5341 29.317 24.8763C26.2388 29.4986 21.153 32 15.9826 32Z" fill="white"/>
</svg>
