<svg width="22" height="22" viewBox="0 0 22 22" fill="none" xmlns="http://www.w3.org/2000/svg">
<path d="M10.8829 1.09575C7.80411 1.09575 4.78142 2.5814 2.95006 5.33312C1.53916 7.44946 1.03927 9.98628 1.53449 12.4764C2.03438 14.9711 3.47331 17.1202 5.58965 18.5264C9.95783 21.437 15.8771 20.255 18.7876 15.8868C21.6982 11.5186 20.5162 5.59941 16.148 2.68885C14.5316 1.60966 12.6955 1.09575 10.8829 1.09575ZM10.8502 21.2174C8.82724 21.2174 6.78565 20.6428 4.97764 19.4421C2.61836 17.8677 1.01591 15.471 0.459964 12.6913C-0.0959854 9.91153 0.459966 7.08039 2.03438 4.72111C5.28131 -0.146958 11.8826 -1.46442 16.7507 1.77784C21.6188 5.02478 22.9409 11.6261 19.694 16.4942C17.6524 19.5589 14.2793 21.2174 10.8502 21.2174Z" fill="#91A28F"/>
<path d="M2.86957 5.39355C1.39794 7.59867 1.99594 10.5746 4.20105 12.0463C6.40616 13.5179 9.38213 12.9199 10.8538 10.7148C12.3207 8.50968 15.3014 7.91635 17.5065 9.38331C19.7116 10.8549 20.3049 13.8309 18.8379 16.036C15.8993 20.4462 9.94275 21.6376 5.5372 18.6943C1.12697 15.7557 -0.0596771 9.79911 2.87891 5.39355" fill="#91A28F"/>
</svg>
