<svg width="32" height="32" viewBox="0 0 32 32" fill="none" xmlns="http://www.w3.org/2000/svg">
<path d="M16.0319 1.65191C11.3899 1.65191 6.83235 3.89261 4.07107 8.04284C1.94376 11.2348 1.19005 15.0609 1.93672 18.8165C2.69044 22.5792 4.86001 25.8205 8.05098 27.9414C14.6372 32.3312 23.562 30.5485 27.9505 23.9603C32.339 17.372 30.5568 8.44447 23.9706 4.05467C21.5333 2.427 18.765 1.65191 16.0319 1.65191ZM15.9826 32C12.9325 32 9.85427 31.1333 7.12821 29.3224C3.57095 26.9479 1.15482 23.3331 0.316578 19.1406C-0.521667 14.9481 0.316581 10.6781 2.69043 7.11978C7.58607 -0.222383 17.5394 -2.20942 24.8793 2.68066C32.2192 7.57779 34.2127 17.5341 29.3171 24.8763C26.2388 29.4986 21.153 32 15.9826 32Z" fill="white"/>
<path d="M3.95012 8.13428C1.73124 11.4601 2.63288 15.9485 5.95769 18.1681C9.28249 20.3877 13.7696 19.4857 15.9885 16.1599C18.2003 12.8341 22.6944 11.9392 26.0192 14.1518C29.344 16.3713 30.2386 20.8598 28.0268 24.1856C23.5961 30.8372 14.6149 32.634 7.97229 28.1949C1.32268 23.7628 -0.466515 14.7789 3.96421 8.13428" fill="white"/>
</svg>
