<svg width="99" height="34" viewBox="0 0 99 34" fill="none" xmlns="http://www.w3.org/2000/svg">
<path d="M25.8353 34L16.153 8.54775L6.49113 34H0L12.921 0H19.3918L32.3128 34H25.8421H25.8353Z" fill="white"/>
<path d="M42.3492 20.3973H33.4971V13.5959H52.3513C55.6581 13.5959 57.3115 12.4635 57.3115 10.1986C57.3115 7.93379 55.6581 6.80136 52.3513 6.80136H33.4971V0H53.3447C59.9583 0 63.2651 3.39727 63.2651 10.1986C63.2651 17 59.9583 20.3973 53.3447 20.3973H51.5008L65.4696 34H56.3181L42.3492 20.3973Z" fill="white"/>
<path d="M36.5931 27.0278L37.0217 28.3513H38.4098L37.2871 29.1631L37.7157 30.4865L36.5931 29.6747L35.4704 30.4865L35.899 29.1631L34.7764 28.3513H36.1644L36.5931 27.0278Z" fill="white"/>
<path d="M40.0226 26.4414L39.9818 26.8985L40.4105 27.0827L39.9614 27.185L39.9206 27.6489L39.6824 27.2532L39.2266 27.3555L39.5327 27.0076L39.2946 26.6051L39.7233 26.7893L40.0226 26.4414Z" fill="white"/>
<path d="M41.5057 27.8601L41.2879 28.2694L41.6077 28.5968L41.1518 28.5218L40.9409 28.9311L40.8729 28.474L40.417 28.3922L40.832 28.1875L40.764 27.7305L41.0906 28.0647L41.5057 27.8601Z" fill="white"/>
<path d="M41.0227 29.5796L41.186 30.0162L41.6486 29.9957L41.2812 30.2822L41.4377 30.7188L41.0567 30.4596L40.6893 30.7461L40.8185 30.3027L40.4375 30.0435L40.9002 30.023L41.0227 29.5796Z" fill="white"/>
<path d="M40.0023 30.896L39.9751 31.3599L40.4105 31.5236L39.9615 31.6464L39.9411 32.1103L39.6893 31.7214L39.2402 31.8442L39.5328 31.4827L39.2811 31.0938L39.7097 31.2576L40.0023 30.896Z" fill="white"/>
<path d="M38.2192 25.036C36.8516 25.036 35.5112 25.6978 34.6947 26.9257C34.0687 27.8671 33.8442 28.9995 34.0687 30.1115C34.2933 31.2234 34.9328 32.1785 35.8718 32.8061C37.811 34.1023 40.4442 33.577 41.737 31.6328C43.0297 29.6885 42.5058 27.0485 40.5667 25.7523C39.8454 25.2748 39.0357 25.0429 38.226 25.0429M38.2124 34.0068C37.3143 34.0068 36.4093 33.7475 35.6064 33.2154C34.5586 32.5128 33.8442 31.4486 33.5992 30.207C33.3543 28.9654 33.5992 27.7102 34.3001 26.6596C35.7425 24.4903 38.6751 23.9036 40.8388 25.3498C43.0025 26.7961 43.5877 29.7363 42.1452 31.9056C41.2403 33.27 39.7365 34.0068 38.2124 34.0068Z" fill="white"/>
<path d="M80.9013 25.2887L85.0791 20.4111L99.0003 34.0002H89.8488L80.8945 25.2887H80.9013Z" fill="white"/>
<path d="M87.3581 0.0204655L73.4981 16.1404V0L67.0273 7.53812V34L96.2442 0.0204655H87.3581Z" fill="white"/>
</svg>
