<svg width="370" height="171" viewBox="0 0 370 171" fill="none" xmlns="http://www.w3.org/2000/svg">
<path d="M10.9942 164.942H11.0475L12.937 155.685H15.1923L12.1447 168.523H10.1942L7.62661 159.388H7.57327L4.99806 168.523H3.03998L0 155.685H2.2476L4.15235 164.935H4.20568L6.64376 155.685H8.53327L10.9942 164.942Z" fill="white"/>
<path d="M33.5572 168.516H31.4163V155.678H33.5572V168.516Z" fill="white"/>
<path d="M59.5796 157.4H55.6101V168.516H53.4692V157.4H49.5607V155.678H59.572V157.4H59.5796Z" fill="white"/>
<path d="M85.6838 168.516H83.5428V163.038H77.8057V168.516H75.6648V155.678H77.8057V161.323H83.5428V155.678H85.6838V168.516Z" fill="white"/>
<path d="M131.275 166.779C130.924 167.282 130.36 167.724 129.583 168.112C128.806 168.501 127.816 168.699 126.589 168.699C125.073 168.699 123.823 168.211 122.848 167.236C121.873 166.261 121.378 164.996 121.378 163.442V160.76C121.378 159.206 121.85 157.949 122.795 156.966C123.739 155.991 124.958 155.503 126.444 155.503C127.93 155.503 129.103 155.876 129.934 156.631C130.772 157.385 131.176 158.368 131.153 159.579L131.13 159.632H129.096C129.096 158.909 128.867 158.33 128.417 157.888C127.968 157.446 127.32 157.225 126.482 157.225C125.591 157.225 124.875 157.56 124.334 158.223C123.793 158.886 123.518 159.731 123.518 160.752V163.45C123.518 164.486 123.8 165.331 124.372 166.002C124.936 166.665 125.675 167 126.589 167C127.275 167 127.823 166.924 128.219 166.771C128.616 166.611 128.92 166.429 129.126 166.2V163.549H126.437V161.941H131.267V166.794L131.275 166.779Z" fill="white"/>
<path d="M150.477 166.809H156.489V168.523H148.337V155.685H150.477V166.809Z" fill="white"/>
<path d="M182.617 163.25C182.617 164.82 182.122 166.122 181.139 167.151C180.156 168.18 178.876 168.698 177.299 168.698C175.722 168.698 174.518 168.18 173.55 167.151C172.583 166.122 172.103 164.82 172.103 163.25V160.942C172.103 159.38 172.583 158.077 173.543 157.041C174.503 156.004 175.752 155.486 177.291 155.486C178.83 155.486 180.141 156.004 181.124 157.041C182.114 158.077 182.602 159.372 182.602 160.942V163.25H182.617ZM180.476 160.926C180.476 159.86 180.194 158.976 179.623 158.29C179.051 157.604 178.282 157.262 177.307 157.262C176.331 157.262 175.615 157.604 175.074 158.29C174.533 158.976 174.259 159.86 174.259 160.926V163.25C174.259 164.332 174.533 165.216 175.082 165.909C175.63 166.602 176.369 166.945 177.314 166.945C178.259 166.945 179.067 166.602 179.638 165.909C180.202 165.223 180.491 164.332 180.491 163.242V160.919L180.476 160.926Z" fill="white"/>
<path d="M199.33 168.516V155.678H203.536C204.953 155.678 206.058 155.967 206.858 156.554C207.658 157.141 208.054 158.017 208.054 159.175C208.054 159.739 207.894 160.249 207.574 160.699C207.254 161.148 206.812 161.491 206.241 161.727C207.063 161.864 207.696 162.222 208.138 162.794C208.58 163.373 208.801 164.043 208.801 164.821C208.801 166.024 208.404 166.939 207.62 167.563C206.835 168.188 205.745 168.5 204.359 168.5H199.322L199.33 168.516ZM201.471 161.087H203.764C204.427 161.087 204.953 160.927 205.341 160.615C205.722 160.302 205.921 159.853 205.921 159.282C205.921 158.649 205.715 158.177 205.311 157.864C204.907 157.56 204.313 157.4 203.536 157.4H201.471V161.087ZM201.471 162.687V166.809H204.366C205.105 166.809 205.677 166.641 206.081 166.299C206.477 165.963 206.682 165.468 206.682 164.836C206.682 164.203 206.484 163.678 206.088 163.289C205.692 162.908 205.143 162.71 204.427 162.68H201.471V162.687Z" fill="white"/>
<path d="M231.953 165.521H227.404L226.414 168.516H224.204L228.684 155.678H230.719L235.145 168.516H232.936L231.96 165.521H231.953ZM227.991 163.731H231.366L229.72 158.672H229.667L227.991 163.731Z" fill="white"/>
<path d="M253.319 166.809H259.33V168.523H251.178V155.685H253.319V166.809Z" fill="white"/>
<path d="M277.444 168.249L276.08 171H274.724L275.341 168.166V166.421H277.451V168.249H277.444Z" fill="white"/>
<path d="M296.425 168.516H294.284V155.678H296.425V168.516Z" fill="white"/>
<path d="M323.767 168.515H321.626L315.942 159.266L315.889 159.281V168.507H313.748V155.669H315.889L321.573 164.919L321.626 164.904V155.677H323.767V168.515Z" fill="white"/>
<path d="M350.293 164.326L350.309 164.379C350.332 165.674 349.913 166.718 349.052 167.511C348.191 168.303 347.025 168.707 345.554 168.707C344.084 168.707 342.85 168.204 341.92 167.198C340.991 166.193 340.526 164.905 340.526 163.335V160.897C340.526 159.335 340.983 158.048 341.905 157.035C342.819 156.021 344.015 155.511 345.494 155.511C346.972 155.511 348.191 155.892 349.059 156.661C349.928 157.431 350.347 158.49 350.324 159.823L350.309 159.876H348.236C348.236 159.015 348.008 158.36 347.543 157.903C347.078 157.446 346.4 157.217 345.494 157.217C344.587 157.217 343.932 157.56 343.429 158.254C342.918 158.939 342.667 159.815 342.667 160.867V163.328C342.667 164.394 342.926 165.271 343.444 165.956C343.962 166.65 344.663 166.993 345.562 166.993C346.461 166.993 347.101 166.764 347.558 166.307C348.015 165.85 348.244 165.187 348.244 164.326H350.309H350.293Z" fill="white"/>
<path d="M368.946 168.516H366.813V166.459H368.946V168.516Z" fill="white"/>
<path d="M96.4257 126.43L60.3193 31.7712L24.2815 126.43H0.0911865L48.2584 0H72.3802L120.547 126.43H96.4257Z" fill="white"/>
<path d="M126.713 116.488C126.713 116.488 126.704 116.463 126.696 116.446C126.696 116.463 126.704 116.471 126.713 116.488Z" fill="#9A8197"/>
<path d="M160.122 108.852C160.122 99.1453 152.252 91.2749 142.545 91.2749C132.839 91.2749 124.968 99.1453 124.968 108.852C124.968 111.572 125.585 114.147 126.69 116.44C126.69 116.456 126.698 116.463 126.705 116.479C126.827 116.73 126.957 116.981 127.086 117.225C130.065 122.703 135.863 126.421 142.538 126.421C152.244 126.421 160.115 118.551 160.115 108.844L160.122 108.852ZM156.534 115.313C155.353 116.654 153.737 117.736 151.764 118.482C150.431 118.985 148.991 119.313 147.497 119.465C148.229 118.101 148.823 116.654 149.25 115.13C149.798 113.187 150.057 111.221 150.065 109.279C151.878 108.86 153.425 108.075 154.591 107C155.97 109.484 156.678 112.349 156.526 115.313H156.534ZM142.256 100.806C142.873 101.34 143.65 101.766 144.557 102.018C145.12 102.178 145.684 102.254 146.248 102.254C146.56 102.254 146.865 102.223 147.155 102.178C147.856 104.014 148.29 105.949 148.419 107.93C147.939 107.983 147.444 108.014 146.934 108.014C145.638 108.014 144.313 107.823 143.01 107.458C141.181 106.94 139.52 106.101 138.164 105.027C139.315 103.412 140.694 101.987 142.256 100.799V100.806ZM136.968 103.945C136.762 103.724 136.564 103.503 136.381 103.275C135.604 102.3 135.101 101.279 134.865 100.265C136.778 99.4501 138.858 99.0082 140.983 99.0158C141.052 99.2063 141.136 99.3815 141.235 99.5644C139.619 100.806 138.179 102.284 136.968 103.953V103.945ZM146.248 100.646C145.837 100.646 145.41 100.585 144.991 100.471C143.315 99.9987 142.157 98.6806 142.461 97.5911C142.682 96.8139 143.65 96.2882 144.869 96.2882C145.28 96.2882 145.707 96.3491 146.126 96.4634C147.802 96.9358 148.96 98.2539 148.656 99.3434C148.435 100.121 147.467 100.646 146.248 100.646ZM149.166 101.324C150.979 102.437 152.518 103.9 153.722 105.591C152.8 106.513 151.52 107.214 150.012 107.618C149.852 105.568 149.402 103.557 148.678 101.652C148.854 101.553 149.014 101.439 149.166 101.317V101.324ZM156.648 103.732C156.854 103.001 156.93 102.254 156.884 101.507C158.629 104.898 159.109 108.722 158.256 112.433C158.202 112.578 158.141 112.722 158.088 112.867C157.836 110.307 157.014 107.869 155.718 105.721C156.13 105.111 156.45 104.456 156.656 103.74L156.648 103.732ZM155.101 103.29C155.01 103.618 154.88 103.93 154.72 104.235C153.471 102.581 151.924 101.141 150.126 100.021C150.157 99.9453 150.187 99.8615 150.21 99.7853C150.454 98.9244 150.294 98.0406 149.821 97.2482C150.827 97.012 151.863 96.8596 152.915 96.7834C154.827 98.7187 155.726 101.096 155.109 103.298L155.101 103.29ZM143.071 92.8444C144.366 92.8444 145.684 93.0349 146.987 93.4006C146.987 93.4006 146.987 93.4006 146.995 93.4006C147.208 93.4616 147.421 93.5301 147.635 93.5987C147.734 93.6292 147.833 93.6673 147.932 93.6977C147.993 93.7206 148.054 93.7435 148.115 93.7663C149.242 94.1854 150.271 94.7187 151.177 95.3358C150.294 95.4653 149.425 95.6558 148.572 95.892C148.008 95.473 147.33 95.1301 146.56 94.9092C145.997 94.7492 145.433 94.673 144.869 94.673C144.694 94.673 144.518 94.6806 144.351 94.6958C143.749 94.0482 143.109 93.4311 142.423 92.8597C142.637 92.852 142.85 92.8444 143.071 92.8444ZM134.903 97.5682C135.505 95.4425 137.509 93.8425 140.199 93.1796C141.052 93.7968 141.852 94.4673 142.583 95.1911C141.753 95.6253 141.158 96.3034 140.915 97.1491C140.892 97.233 140.877 97.3168 140.861 97.393C138.736 97.4082 136.663 97.812 134.728 98.5739C134.751 98.231 134.812 97.8958 134.903 97.5682ZM127.421 103.717C128.648 100.075 131.124 97.073 134.286 95.1454C133.875 95.7549 133.562 96.4177 133.357 97.1339C133.151 97.8501 133.075 98.5815 133.105 99.3129C130.88 100.463 128.9 102.101 127.345 104.151C127.368 104.006 127.391 103.861 127.421 103.717ZM128.618 116.654C127.46 114.581 126.789 112.334 126.621 110.04C127.795 112.776 129.974 115.313 132.877 117.279C132.93 118.901 133.174 120.517 133.6 122.101C131.566 120.715 129.86 118.871 128.625 116.661L128.618 116.654ZM132.9 115.328C129.898 113.042 127.894 110.086 127.376 107.046C128.8 104.441 130.911 102.376 133.387 100.989C133.707 102.109 134.286 103.221 135.124 104.273C135.414 104.631 135.726 104.981 136.061 105.309C135.04 106.962 134.233 108.776 133.684 110.719C133.25 112.242 132.999 113.781 132.907 115.328H132.9ZM135.231 111.153C135.711 109.446 136.412 107.846 137.288 106.383C138.789 107.541 140.595 108.448 142.576 109.012C144.023 109.423 145.494 109.629 146.934 109.629C147.459 109.629 147.962 109.599 148.457 109.545C148.435 111.26 148.191 112.981 147.703 114.688C147.216 116.418 146.499 118.048 145.593 119.549C143.703 119.549 141.745 119.275 139.81 118.726C137.852 118.17 136.054 117.37 134.461 116.395C134.477 114.642 134.728 112.882 135.216 111.153H135.231ZM140.991 124.791C140.069 124.692 139.155 124.517 138.256 124.265C137.357 124.006 136.488 123.678 135.658 123.282C135.071 121.659 134.698 119.991 134.553 118.299C136.031 119.115 137.646 119.785 139.383 120.28C141.105 120.768 142.842 121.05 144.541 121.134C143.528 122.49 142.339 123.717 140.991 124.791ZM143.368 124.859C144.557 123.739 145.608 122.498 146.499 121.149C148.549 121.065 150.53 120.677 152.343 119.991C153.524 119.541 154.598 118.985 155.543 118.33C152.717 122.162 148.259 124.638 143.368 124.867V124.859Z" fill="#9A8197"/>
<path d="M157.981 75.8547H124.983V50.5672H195.268C207.603 50.5672 213.767 46.3539 213.767 37.9197C213.767 29.4855 207.603 25.2722 195.268 25.2722H124.983V0H198.971C223.633 0 235.968 12.6475 235.968 37.9273C235.968 63.2071 223.633 75.8623 198.971 75.8623H192.091L244.174 126.437H210.064L157.981 75.8623V75.8547Z" fill="#9A8197"/>
<path d="M301.719 94.0263L317.307 75.8931L369.2 126.422H335.09L301.711 94.0186L301.719 94.0263Z" fill="white"/>
<path d="M325.795 0.0761898L274.131 60.0072V0L250.001 28.0379V126.43L358.938 0.0761898H325.795Z" fill="white"/>
</svg>
