<svg width="369" height="170" viewBox="0 0 369 170" fill="none" xmlns="http://www.w3.org/2000/svg">
<g clip-path="url(#clip0_1070_287)">
<path d="M11.6666 163.973H11.7171L13.5862 154.769H15.8343L12.8032 167.529H10.8583L8.30714 158.451H8.25663L5.70548 167.529H3.76055L0.729492 154.769H2.97753L4.87194 163.973H4.92246L7.34731 154.769H9.21646L11.6666 163.973Z" fill="white"/>
<path d="M34.1469 167.529H32.0252V154.769H34.1469V167.529Z" fill="white"/>
<path d="M60.0625 156.483H56.1221V167.529H54.0004V156.483H50.1105V154.769H60.0878V156.483H60.0625Z" fill="white"/>
<path d="M86.0286 167.529H83.9068V162.082H78.1983V167.529H76.0766V154.769H78.1983V160.367H83.9068V154.769H86.0286V167.529Z" fill="white"/>
<path d="M131.444 165.814C131.09 166.318 130.535 166.747 129.752 167.151C128.994 167.529 127.983 167.731 126.771 167.731C125.256 167.731 124.018 167.251 123.033 166.268C122.048 165.284 121.568 164.049 121.568 162.485V159.812C121.568 158.274 122.048 157.013 122.982 156.029C123.917 155.046 125.129 154.566 126.62 154.566C128.11 154.566 129.272 154.945 130.105 155.676C130.939 156.433 131.343 157.391 131.318 158.601V158.652H129.272C129.272 157.946 129.044 157.366 128.59 156.912C128.135 156.483 127.504 156.256 126.67 156.256C125.786 156.256 125.079 156.584 124.523 157.24C123.993 157.895 123.715 158.728 123.715 159.761V162.435C123.715 163.469 123.993 164.301 124.574 164.982C125.129 165.637 125.887 165.965 126.771 165.965C127.453 165.965 128.009 165.89 128.388 165.738C128.792 165.587 129.095 165.385 129.297 165.184V162.536H126.62V160.947H131.419V165.764L131.444 165.814Z" fill="white"/>
<path d="M150.565 165.84H156.551V167.529H148.443V154.769H150.565V165.84Z" fill="white"/>
<path d="M182.568 162.309C182.568 163.872 182.088 165.158 181.103 166.192C180.118 167.226 178.855 167.731 177.289 167.731C175.723 167.731 174.51 167.226 173.55 166.192C172.591 165.158 172.111 163.872 172.111 162.309V160.014C172.111 158.45 172.591 157.164 173.55 156.13C174.51 155.096 175.748 154.592 177.289 154.592C178.83 154.592 180.118 155.096 181.103 156.13C182.088 157.164 182.568 158.45 182.568 160.014V162.309ZM180.446 159.989C180.446 158.929 180.168 158.047 179.587 157.366C179.032 156.685 178.249 156.332 177.289 156.332C176.329 156.332 175.596 156.685 175.066 157.366C174.536 158.047 174.258 158.929 174.258 159.989V162.309C174.258 163.393 174.536 164.276 175.066 164.957C175.622 165.638 176.354 165.991 177.289 165.991C178.223 165.991 179.032 165.638 179.613 164.957C180.168 164.276 180.471 163.393 180.471 162.309V159.989H180.446Z" fill="white"/>
<path d="M199.213 167.529V154.769H203.406C204.821 154.769 205.932 155.046 206.715 155.651C207.524 156.231 207.902 157.114 207.902 158.249C207.902 158.804 207.751 159.308 207.423 159.762C207.094 160.216 206.665 160.544 206.084 160.796C206.892 160.922 207.524 161.275 207.978 161.855C208.433 162.435 208.635 163.091 208.635 163.873C208.635 165.058 208.231 165.991 207.448 166.596C206.665 167.201 205.579 167.529 204.189 167.529H199.188H199.213ZM201.335 160.14H203.608C204.265 160.14 204.796 159.989 205.175 159.661C205.553 159.358 205.755 158.904 205.755 158.324C205.755 157.694 205.553 157.215 205.149 156.912C204.745 156.61 204.164 156.458 203.381 156.458H201.335V160.115V160.14ZM201.335 161.729V165.84H204.215C204.947 165.84 205.528 165.663 205.907 165.335C206.311 165.007 206.513 164.503 206.513 163.873C206.513 163.242 206.311 162.712 205.932 162.334C205.528 161.956 204.998 161.754 204.29 161.729H201.36H201.335Z" fill="white"/>
<path d="M231.671 164.553H227.15L226.165 167.529H223.967L228.438 154.769H230.459L234.854 167.529H232.656L231.671 164.553ZM227.731 162.763H231.09L229.448 157.744H229.398L227.731 162.763Z" fill="white"/>
<path d="M252.964 165.84H258.951V167.529H250.842V154.769H252.964V165.84Z" fill="white"/>
<path d="M276.96 167.251L275.596 169.975H274.232L274.838 167.15V165.41H276.935V167.226L276.96 167.251Z" fill="white"/>
<path d="M295.879 167.529H293.757V154.769H295.879V167.529Z" fill="white"/>
<path d="M323.108 167.529H320.986L315.328 158.35H315.278V167.529H313.156V154.769H315.278L320.936 163.973H320.986V154.769H323.108V167.529Z" fill="white"/>
<path d="M349.504 163.368V163.419C349.554 164.705 349.125 165.739 348.266 166.546C347.407 167.353 346.245 167.731 344.78 167.731C343.315 167.731 342.077 167.227 341.168 166.218C340.259 165.209 339.779 163.948 339.779 162.385V159.964C339.779 158.4 340.234 157.139 341.143 156.13C342.052 155.122 343.239 154.617 344.704 154.617C346.169 154.617 347.382 154.995 348.266 155.752C349.125 156.509 349.554 157.568 349.529 158.904V158.955H347.458C347.458 158.097 347.23 157.442 346.776 156.988C346.321 156.534 345.639 156.307 344.73 156.307C343.82 156.307 343.189 156.66 342.684 157.341C342.178 158.022 341.926 158.904 341.926 159.938V162.385C341.926 163.444 342.178 164.326 342.709 165.007C343.214 165.688 343.921 166.041 344.805 166.041C345.689 166.041 346.346 165.814 346.801 165.36C347.255 164.906 347.483 164.251 347.483 163.393H349.529L349.504 163.368Z" fill="white"/>
<path d="M368.069 167.529H365.947V165.486H368.069V167.529Z" fill="white"/>
<path d="M96.7384 125.691L60.7951 31.5992L24.9276 125.691H0.830627L48.7719 0H72.793L120.76 125.691H96.7384Z" fill="white"/>
<path d="M158.016 75.4042H125.155V50.2611H195.147C207.423 50.2611 213.56 46.0748 213.56 37.7021C213.56 29.3295 207.423 25.1432 195.147 25.1432H125.155V0H198.835C223.386 0 235.662 12.559 235.662 37.7021C235.662 62.8453 223.386 75.4042 198.835 75.4042H191.989L243.846 125.691H209.873L158.016 75.4042Z" fill="#DD577A"/>
<path d="M136.673 99.917L138.264 104.809H143.391L139.224 107.81L140.815 112.703L136.673 109.702L132.505 112.703L134.096 107.81L129.928 104.809H135.081L136.673 99.917Z" fill="#DD577A"/>
<path d="M149.403 97.748L149.251 99.4377L150.818 100.119L149.15 100.497L148.999 102.212L148.115 100.749L146.448 101.127L147.584 99.8412L146.7 98.3533L148.266 99.0342L149.403 97.748Z" fill="#DD577A"/>
<path d="M154.884 102.994L154.101 104.507L155.288 105.717L153.596 105.44L152.788 106.953L152.56 105.263L150.868 104.961L152.409 104.204L152.156 102.515L153.343 103.75L154.884 102.994Z" fill="#DD577A"/>
<path d="M153.116 109.349L153.697 110.963L155.415 110.887L154.076 111.946L154.657 113.56L153.242 112.602L151.878 113.661L152.358 112.022L150.919 111.064L152.636 110.988L153.116 109.349Z" fill="#DD577A"/>
<path d="M149.302 114.216L149.226 115.931L150.843 116.536L149.176 116.99L149.1 118.705L148.165 117.267L146.498 117.721L147.584 116.385L146.625 114.947L148.241 115.552L149.302 114.216Z" fill="#DD577A"/>
<path d="M142.709 92.5535C137.632 92.5535 132.656 94.9997 129.625 99.5391C127.301 103.019 126.468 107.206 127.301 111.316C128.135 115.427 130.509 118.958 133.995 121.278C141.194 126.069 150.969 124.127 155.768 116.94C160.567 109.753 158.622 99.9931 151.423 95.2015C148.746 93.4362 145.74 92.5787 142.734 92.5787M142.684 125.716C139.35 125.716 135.99 124.758 133.01 122.791C129.12 120.193 126.468 116.259 125.558 111.669C124.649 107.08 125.558 102.439 128.16 98.5556C133.515 90.536 144.402 88.3672 152.434 93.7136C160.466 99.06 162.638 109.929 157.284 117.949C153.924 122.993 148.342 125.716 142.684 125.716Z" fill="#DD577A"/>
<path d="M301.133 93.4865L316.642 75.4551L368.321 125.691H334.348L301.108 93.4865H301.133Z" fill="white"/>
<path d="M325.129 0.0756564L273.676 59.6677V0L249.655 27.8668V125.691L358.117 0.0756564H325.129Z" fill="white"/>
</g>
<defs>
<clipPath id="clip0_1070_287">
<rect width="367.617" height="170" fill="white" transform="translate(0.729492)"/>
</clipPath>
</defs>
</svg>
