<svg width="367" height="167" viewBox="0 0 367 167" fill="none" xmlns="http://www.w3.org/2000/svg">
<path d="M95.7731 125.713L59.8803 31.6049L24.0631 125.713H0L47.8992 0H71.8866L119.786 125.713H95.7983H95.7731Z" fill="white"/>
<path d="M156.991 75.4179H124.176V50.2702H194.07C206.328 50.2702 212.458 46.0831 212.458 37.7089C212.458 29.3348 206.328 25.1477 194.07 25.1477H124.176V0H197.752C222.269 0 234.528 12.5612 234.528 37.7089C234.528 62.8566 222.269 75.4179 197.752 75.4179H190.917L242.7 125.713H208.775L156.991 75.4179Z" fill="#91A28F"/>
<path d="M141.63 125.714C138.3 125.714 134.945 124.755 131.969 122.788C128.085 120.19 125.436 116.255 124.528 111.664C123.62 107.074 124.528 102.433 127.126 98.5482C132.473 90.5272 143.345 88.358 151.366 93.7053C159.387 99.0527 161.556 109.924 156.209 117.945C152.854 122.99 147.28 125.714 141.63 125.714ZM141.68 92.5703C136.61 92.5703 131.641 95.0169 128.614 99.5571C126.294 103.038 125.461 107.225 126.294 111.336C127.126 115.448 129.497 118.979 132.978 121.3C140.167 126.092 149.928 124.15 154.72 116.961C159.513 109.773 157.571 100.011 150.382 95.2187C147.708 93.4531 144.707 92.5955 141.705 92.5955L141.68 92.5703Z" fill="#91A28F"/>
<path d="M128.489 99.658C126.068 103.29 127.051 108.184 130.684 110.605C134.316 113.026 139.209 112.043 141.63 108.411C144.052 104.778 148.945 103.795 152.577 106.216C156.21 108.638 157.193 113.531 154.772 117.163C149.929 124.427 140.117 126.395 132.853 121.552C125.588 116.709 123.621 106.897 128.464 99.6328L128.489 99.658Z" fill="#91A28F"/>
<path d="M299.905 93.5025L315.392 75.4678L366.999 125.713H333.074L299.88 93.5025H299.905Z" fill="white"/>
<path d="M323.843 0.0756701L272.463 59.6785V0L248.475 27.8718V125.713L356.784 0.0756701H323.843Z" fill="white"/>
<path d="M10.1398 162.918H10.1902L11.9307 154.393H14.0242L11.1992 166.222H9.40832L7.03732 157.798H6.98687L4.61588 166.222H2.79979L0 154.393H2.06832L3.83395 162.918H3.8844L6.12928 154.393H7.86969L10.1398 162.918Z" fill="white"/>
<path d="M30.9498 166.195H28.9824V154.365H30.9498V166.195Z" fill="white"/>
<path d="M54.9368 155.954H51.2794V166.195H49.312V155.954H45.7051V154.365H54.9368V155.954Z" fill="white"/>
<path d="M79.0247 166.195H77.0573V161.15H71.7604V166.195H69.793V154.365H71.7604V159.561H77.0573V154.365H79.0247V166.195Z" fill="white"/>
<path d="M115.246 161.075H114.288V166.195H112.32V154.365H114.288V159.385H115.07L118.904 154.365H121.224V154.416L116.81 159.965L121.603 166.195H119.105L115.246 161.075Z" fill="white"/>
<path d="M145.261 161.353C145.261 162.791 144.807 164.002 143.899 164.96C142.991 165.918 141.806 166.398 140.368 166.398C138.93 166.398 137.795 165.918 136.913 164.96C136.03 164.002 135.576 162.816 135.576 161.353V159.234C135.576 157.797 136.03 156.586 136.913 155.653C137.795 154.694 138.956 154.215 140.368 154.215C141.781 154.215 142.991 154.694 143.899 155.653C144.807 156.611 145.261 157.797 145.261 159.234V161.353ZM143.294 159.209C143.294 158.225 143.042 157.418 142.512 156.788C141.982 156.157 141.276 155.829 140.368 155.829C139.46 155.829 138.804 156.157 138.3 156.788C137.795 157.418 137.543 158.225 137.543 159.209V161.353C137.543 162.362 137.795 163.169 138.3 163.8C138.804 164.43 139.485 164.758 140.368 164.758C141.251 164.758 141.982 164.43 142.512 163.8C143.042 163.169 143.294 162.337 143.294 161.353V159.209Z" fill="white"/>
<path d="M162.665 161.304V166.222H160.698V154.393H164.759C166.07 154.393 167.104 154.695 167.811 155.275C168.542 155.881 168.895 156.713 168.895 157.823C168.895 158.428 168.744 158.958 168.416 159.412C168.088 159.866 167.634 160.219 167.029 160.471C167.685 160.673 168.164 161.026 168.467 161.506C168.769 161.985 168.921 162.565 168.921 163.271V164.255C168.921 164.608 168.971 164.936 169.047 165.264C169.122 165.592 169.274 165.844 169.475 166.021V166.197H167.432C167.205 166.021 167.079 165.743 167.029 165.365C166.978 164.986 166.928 164.608 166.928 164.23V163.271C166.928 162.666 166.751 162.187 166.398 161.833C166.045 161.48 165.566 161.304 164.961 161.304H162.64H162.665ZM162.665 159.715H164.658C165.44 159.715 166.02 159.563 166.398 159.261C166.777 158.958 166.953 158.504 166.953 157.873C166.953 157.243 166.777 156.814 166.423 156.461C166.07 156.108 165.515 155.956 164.784 155.956H162.69V159.715H162.665Z" fill="white"/>
<path d="M191.193 160.875H186.551V164.633H192.025V166.222H184.584V154.393H191.974V155.982H186.577V159.311H191.218V160.9L191.193 160.875Z" fill="white"/>
<path d="M213.29 163.448H209.103L208.195 166.222H206.152L210.288 154.393H212.155L216.241 166.222H214.198L213.29 163.448ZM209.633 161.808H212.735L211.222 157.142H211.171L209.633 161.808Z" fill="white"/>
<path d="M257.127 162.336V162.386C257.178 163.572 256.774 164.556 255.992 165.287C255.185 166.019 254.126 166.397 252.764 166.397C251.402 166.397 250.267 165.943 249.409 165.01C248.551 164.076 248.123 162.891 248.123 161.453V159.208C248.123 157.771 248.551 156.585 249.384 155.652C250.241 154.718 251.326 154.239 252.688 154.239C254.05 154.239 255.185 154.592 255.967 155.299C256.774 156.005 257.153 156.989 257.127 158.225V158.275H255.21C255.21 157.493 255.009 156.888 254.58 156.459C254.151 156.03 253.52 155.828 252.688 155.828C251.856 155.828 251.25 156.156 250.771 156.787C250.292 157.417 250.065 158.225 250.065 159.208V161.478C250.065 162.462 250.292 163.269 250.771 163.9C251.25 164.53 251.906 164.858 252.713 164.858C253.52 164.858 254.126 164.657 254.555 164.228C254.983 163.799 255.185 163.194 255.185 162.386H257.077L257.127 162.336Z" fill="white"/>
<path d="M281.67 161.353C281.67 162.791 281.216 164.002 280.308 164.96C279.4 165.918 278.214 166.398 276.776 166.398C275.339 166.398 274.204 165.918 273.321 164.96C272.438 164.002 271.984 162.816 271.984 161.353V159.234C271.984 157.797 272.438 156.586 273.321 155.653C274.204 154.694 275.364 154.215 276.776 154.215C278.189 154.215 279.4 154.694 280.308 155.653C281.216 156.611 281.67 157.797 281.67 159.234V161.353ZM279.702 159.209C279.702 158.225 279.45 157.418 278.92 156.788C278.391 156.157 277.684 155.829 276.776 155.829C275.868 155.829 275.212 156.157 274.708 156.788C274.204 157.418 273.951 158.225 273.951 159.209V161.353C273.951 162.362 274.204 163.169 274.708 163.8C275.212 164.43 275.894 164.758 276.776 164.758C277.659 164.758 278.391 164.43 278.92 163.8C279.45 163.169 279.702 162.337 279.702 161.353V159.209Z" fill="white"/>
<path d="M298.064 166.195H296.096V164.304H298.064V166.195Z" fill="white"/>
<path d="M316.048 164.633H321.597V166.222H314.08V154.393H316.048V164.658V164.633Z" fill="white"/>
<path d="M343.19 155.954H339.533V166.195H337.565V155.954H333.958V154.365H343.19V155.954Z" fill="white"/>
<path d="M358.021 166.195V154.365H361.931C363.419 154.365 364.655 154.844 365.588 155.778C366.522 156.711 367.001 157.922 367.001 159.385V161.176C367.001 162.664 366.522 163.849 365.588 164.782C364.655 165.716 363.419 166.17 361.931 166.17H358.021V166.195ZM359.989 155.954V164.631H361.931C362.89 164.631 363.621 164.303 364.201 163.673C364.756 163.042 365.034 162.21 365.034 161.201V159.385C365.034 158.401 364.756 157.569 364.201 156.938C363.646 156.307 362.89 155.98 361.931 155.98H359.989V155.954Z" fill="white"/>
</svg>
