<svg width="60" height="60" viewBox="0 0 60 60" fill="none" xmlns="http://www.w3.org/2000/svg">
<g clip-path="url(#clip0_138_416)">
<path d="M59.8881 46.9609L56.4844 37.8844V8.90625C56.4844 5.99848 54.1187 3.63281 51.2109 3.63281H8.78906C5.88129 3.63281 3.51562 5.99848 3.51562 8.90625V37.8844L0.111914 46.9609C0.0378516 47.1582 0 47.3673 0 47.5781V51.0938C0 54.0015 2.36566 56.3672 5.27344 56.3672H54.7266C57.6343 56.3672 60 54.0015 60 51.0938V47.5781C60 47.3673 59.9622 47.1582 59.8881 46.9609ZM7.03125 8.90625C7.03125 7.93699 7.8198 7.14844 8.78906 7.14844H51.2109C52.1802 7.14844 52.9688 7.93699 52.9688 8.90625V36.4453H7.03125V8.90625ZM6.4916 39.9609H53.5085L55.7058 45.8203H4.29434L6.4916 39.9609ZM56.4844 51.0938C56.4844 52.063 55.6958 52.8516 54.7266 52.8516H5.27344C4.30418 52.8516 3.51562 52.063 3.51562 51.0938V49.3359H56.4844V51.0938Z" fill="#9A8197"/>
<path d="M40.1617 14.8394C39.5552 14.0813 38.449 13.9584 37.691 14.5649C36.9329 15.1713 36.81 16.2774 37.4164 17.0355L41.2255 21.7969L37.4164 26.5582C36.81 27.3163 36.9329 28.4224 37.691 29.0288C38.4491 29.6353 39.5552 29.5124 40.1617 28.7543L44.8492 22.8949C45.3628 22.2529 45.3628 21.3408 44.8492 20.6988L40.1617 14.8394Z" fill="#9A8197"/>
<path d="M22.309 14.5649C21.5509 13.9584 20.4448 14.0813 19.8383 14.8394L15.1508 20.6988C14.6372 21.3408 14.6372 22.2529 15.1508 22.8949L19.8383 28.7543C20.4448 29.5124 21.551 29.6353 22.309 29.0288C23.0671 28.4224 23.19 27.3163 22.5836 26.5582L18.7745 21.7969L22.5836 17.0355C23.19 16.2774 23.0671 15.1713 22.309 14.5649Z" fill="#9A8197"/>
<path d="M32.7463 10.1249C31.8013 9.90256 30.8549 10.4884 30.6326 11.4334L25.9451 31.3551C25.7228 32.3001 26.3086 33.2465 27.2536 33.4688C28.1986 33.6912 29.145 33.1053 29.3673 32.1603L34.0548 12.2386C34.2772 11.2936 33.6914 10.3472 32.7463 10.1249Z" fill="#9A8197"/>
</g>
<defs>
<clipPath id="clip0_138_416">
<rect width="60" height="60" fill="white"/>
</clipPath>
</defs>
</svg>
