<svg width="60" height="60" viewBox="0 0 60 60" fill="none" xmlns="http://www.w3.org/2000/svg">
<g clip-path="url(#clip0_848_850)">
<path d="M59.8881 46.9609L56.4844 37.8844V8.90625C56.4844 5.99848 54.1187 3.63281 51.2109 3.63281H8.78906C5.88129 3.63281 3.51562 5.99848 3.51562 8.90625V37.8844L0.111914 46.9609C0.0378516 47.1582 0 47.3673 0 47.5781V51.0938C0 54.0015 2.36566 56.3672 5.27344 56.3672H54.7266C57.6343 56.3672 60 54.0015 60 51.0938V47.5781C60 47.3673 59.9622 47.1582 59.8881 46.9609ZM7.03125 8.90625C7.03125 7.93699 7.8198 7.14844 8.78906 7.14844H51.2109C52.1802 7.14844 52.9688 7.93699 52.9688 8.90625V36.4453H7.03125V8.90625ZM6.4916 39.9609H53.5085L55.7058 45.8203H4.29434L6.4916 39.9609ZM56.4844 51.0938C56.4844 52.063 55.6958 52.8516 54.7266 52.8516H5.27344C4.30418 52.8516 3.51562 52.063 3.51562 51.0938V49.3359H56.4844V51.0938Z" fill="#91A28F"/>
<path d="M40.1617 14.8395C39.5553 14.0814 38.449 13.9585 37.6911 14.5649C36.933 15.1714 36.81 16.2775 37.4165 17.0356L41.2255 21.7969L37.4165 26.5582C36.81 27.3163 36.933 28.4225 37.6911 29.0289C38.4491 29.6354 39.5553 29.5124 40.1617 28.7543L44.8492 22.895C45.3629 22.253 45.3629 21.3408 44.8492 20.6989L40.1617 14.8395Z" fill="#91A28F"/>
<path d="M22.309 14.5649C21.5509 13.9585 20.4448 14.0814 19.8383 14.8395L15.1508 20.6989C14.6372 21.3408 14.6372 22.253 15.1508 22.895L19.8383 28.7543C20.4448 29.5124 21.551 29.6354 22.309 29.0289C23.0671 28.4225 23.19 27.3163 22.5836 26.5582L18.7745 21.7969L22.5836 17.0356C23.19 16.2775 23.0671 15.1714 22.309 14.5649Z" fill="#91A28F"/>
<path d="M32.7468 10.1252C31.8018 9.90293 30.8553 10.4887 30.633 11.4337L25.9455 31.3555C25.7232 32.3005 26.3091 33.2469 27.2541 33.4692C28.1991 33.6915 29.1455 33.1057 29.3678 32.1607L34.0553 12.2389C34.2777 11.2939 33.6919 10.3475 32.7468 10.1252Z" fill="#91A28F"/>
</g>
<defs>
<clipPath id="clip0_848_850">
<rect width="60" height="60" fill="white"/>
</clipPath>
</defs>
</svg>
