<svg width="99" height="99" viewBox="0 0 99 99" fill="none" xmlns="http://www.w3.org/2000/svg">
<circle cx="49.5" cy="49.5" r="49.5" fill="#91A28F"/>
<path d="M45.5426 31.4928H49.9293C50.6675 31.4928 50.6694 30.3359 49.9293 30.3359H45.5426C44.8045 30.3359 44.8026 31.4928 45.5426 31.4928Z" fill="white" stroke="white" stroke-width="0.5"/>
<path d="M34.5543 65.8645H59.823C60.1634 65.8645 60.5114 65.8857 60.8499 65.8645C60.8652 65.8645 60.8805 65.8645 60.8958 65.8645L60.3221 65.2861C60.3221 66.1055 60.3221 66.923 60.3221 67.7425C60.3221 68.0741 60.326 68.4038 60.3221 68.7355C60.3183 69.3216 60.1137 69.9212 59.7485 70.3474C59.2054 70.9798 58.5246 71.2362 57.7157 71.2362H37.9735C37.4514 71.2362 36.9887 71.215 36.566 71.001C35.6749 70.5479 35.1529 69.7014 35.151 68.7162C35.151 68.5234 35.151 68.3305 35.151 68.1377V30.8944C35.151 30.5222 35.1586 30.2446 35.2657 29.8937C35.455 29.2767 35.8968 28.7522 36.4819 28.4379C36.8242 28.2548 37.2392 28.1622 37.6446 28.1603C37.9505 28.1584 38.2565 28.1603 38.5625 28.1603H55.4439C56.2911 28.1603 57.1439 28.1275 57.9911 28.1642C59.2838 28.2201 60.3107 29.348 60.326 30.6495C60.3336 31.3937 61.481 31.3957 61.4733 30.6495C61.4561 28.9605 60.2667 27.4122 58.5992 27.0825C58.1804 26.9996 57.7712 27.0034 57.3505 27.0034H40.5493C39.5798 27.0034 38.6083 26.9957 37.6369 27.0034C36.2582 27.0131 34.9311 27.8074 34.3516 29.0896C34.0992 29.6469 34.0017 30.2311 34.0017 30.8384V67.0753C34.0017 67.6306 33.9979 68.1879 34.0017 68.7432C34.0151 70.2587 34.933 71.591 36.3251 72.1521C36.8644 72.368 37.4266 72.395 37.9945 72.395H54.6045C55.6696 72.395 56.7328 72.3969 57.7979 72.395C59.0218 72.3931 60.1386 71.8127 60.8442 70.8024C61.263 70.2008 61.4676 69.4643 61.4733 68.7335C61.4752 68.3826 61.4733 68.0298 61.4733 67.6788C61.4733 66.8825 61.4733 66.0862 61.4733 65.2899C61.4733 64.9776 61.2113 64.7115 60.8996 64.7115H37.788C36.7267 64.7115 35.6615 64.6787 34.6002 64.7115C34.5849 64.7115 34.5696 64.7115 34.5543 64.7115C33.8162 64.7115 33.8143 65.8683 34.5543 65.8683V65.8645Z" fill="white" stroke="white" stroke-width="0.5"/>
<path d="M41.7274 40.9566V36.5335L41.1538 37.1119H45.5424C46.2805 37.1119 46.2825 35.9551 45.5424 35.9551H41.1538C40.844 35.9551 40.5801 36.2192 40.5801 36.5335V40.9566C40.5801 41.7008 41.7274 41.7028 41.7274 40.9566Z" fill="white" stroke="white" stroke-width="0.5"/>
<path d="M45.5424 60.2844H41.1538L41.7274 60.8629V56.4398C41.7274 55.6955 40.5801 55.6936 40.5801 56.4398V60.8629C40.5801 61.1752 40.8421 61.4413 41.1538 61.4413H45.5424C46.2805 61.4413 46.2825 60.2844 45.5424 60.2844Z" fill="white" stroke="white" stroke-width="0.5"/>
<path d="M64.7092 56.4398V60.8629L65.2829 60.2844H60.8981C60.1599 60.2844 60.158 61.4413 60.8981 61.4413H65.2829C65.5927 61.4413 65.8566 61.1771 65.8566 60.8629V56.4398C65.8566 55.6955 64.7092 55.6936 64.7092 56.4398Z" fill="white" stroke="white" stroke-width="0.5"/>
<path d="M60.8981 37.1119H65.2829L64.7092 36.5335V40.9566C64.7092 41.7008 65.8566 41.7028 65.8566 40.9566V36.5335C65.8566 36.2212 65.5946 35.9551 65.2829 35.9551H60.8981C60.1599 35.9551 60.158 37.1119 60.8981 37.1119Z" fill="white" stroke="white" stroke-width="0.5"/>
<path d="M49.4015 44.2418H45.0434L45.6171 44.8203V40.4261L45.0434 41.0045H49.4015L48.8278 40.4261V44.8203C48.8278 45.5645 49.9751 45.5664 49.9751 44.8203V40.4261C49.9751 40.1137 49.7132 39.8477 49.4015 39.8477H45.0434C44.7336 39.8477 44.4697 40.1118 44.4697 40.4261V44.8203C44.4697 45.1326 44.7317 45.3987 45.0434 45.3987H49.4015C50.1396 45.3987 50.1415 44.2418 49.4015 44.2418Z" fill="white" stroke="white" stroke-width="0.5"/>
<path d="M61.919 57.2457H57.561L58.1347 57.8242V53.43L57.561 54.0084H61.919L61.3454 53.43V57.8242C61.3454 58.5684 62.4927 58.5703 62.4927 57.8242V53.43C62.4927 53.1176 62.2307 52.8516 61.919 52.8516H57.561C57.2512 52.8516 56.9873 53.1157 56.9873 53.43V57.8242C56.9873 58.1365 57.2493 58.4026 57.561 58.4026H61.919C62.6572 58.4026 62.6591 57.2457 61.919 57.2457Z" fill="white" stroke="white" stroke-width="0.5"/>
<path d="M49.4015 57.2457H45.0434L45.6171 57.8242V53.43L45.0434 54.0084H49.4015L48.8278 53.43V57.8242C48.8278 58.5684 49.9751 58.5703 49.9751 57.8242V53.43C49.9751 53.1176 49.7132 52.8516 49.4015 52.8516H45.0434C44.7336 52.8516 44.4697 53.1157 44.4697 53.43V57.8242C44.4697 58.1365 44.7317 58.4026 45.0434 58.4026H49.4015C50.1396 58.4026 50.1415 57.2457 49.4015 57.2457Z" fill="white" stroke="white" stroke-width="0.5"/>
<path d="M45.0436 50.278H49.4016C50.1398 50.278 50.1417 49.1211 49.4016 49.1211H45.0436C44.3054 49.1211 44.3035 50.278 45.0436 50.278Z" fill="white" stroke="white" stroke-width="0.5"/>
<path d="M52.1035 40.4281V44.8222C52.1035 45.1346 52.3655 45.4006 52.6772 45.4006H55.2511C55.9892 45.4006 55.9912 44.2438 55.2511 44.2438H52.6772L53.2509 44.8222V40.4281C53.2509 39.6838 52.1035 39.6819 52.1035 40.4281Z" fill="white" stroke="white" stroke-width="0.5"/>
<path d="M58.0581 41.0045H61.9189L61.3452 40.4261V43.7887C61.3452 44.1011 61.6091 44.3671 61.9189 44.3671C62.2287 44.3671 62.4926 44.103 62.4926 43.7887V40.4261C62.4926 40.1137 62.2306 39.8477 61.9189 39.8477H58.0581C57.7483 39.8477 57.4844 40.1137 57.4844 40.4261C57.4844 40.7384 57.7464 41.0045 58.0581 41.0045Z" fill="white" stroke="white" stroke-width="0.5"/>
<path d="M61.3457 46.7371V49.8047C61.3457 50.1074 61.6096 50.3966 61.9194 50.3831C62.2311 50.3697 62.4931 50.1286 62.4931 49.8047V46.7371C62.4931 46.4344 62.2292 46.1452 61.9194 46.1587C61.6077 46.1722 61.3457 46.4132 61.3457 46.7371Z" fill="white" stroke="white" stroke-width="0.5"/>
<path d="M58.0581 49.1211H54.3139C54.0041 49.1211 53.7402 49.3852 53.7402 49.6995V53.4323C53.7402 53.7351 54.0041 54.0243 54.3139 54.0108C54.6256 53.9973 54.8876 53.7563 54.8876 53.4323V49.6995L54.3139 50.278H58.0581C58.3584 50.278 58.6452 50.0119 58.6318 49.6995C58.6184 49.3852 58.3794 49.1211 58.0581 49.1211Z" fill="white" stroke="white" stroke-width="0.5"/>
<path d="M52.12 58.403H55.2485C55.5487 58.403 55.8356 58.1369 55.8222 57.8245C55.8088 57.5102 55.5698 57.2461 55.2485 57.2461H52.12C51.8198 57.2461 51.533 57.5122 51.5463 57.8245C51.5597 58.1388 51.7988 58.403 52.12 58.403Z" fill="white" stroke="white" stroke-width="0.5"/>
</svg>
