<svg width="99" height="99" viewBox="0 0 99 99" fill="none" xmlns="http://www.w3.org/2000/svg">
<circle cx="49.5" cy="49.5" r="49.5" fill="#91A28F"/>
<path d="M61.8296 33.8968H65.478L64.9004 33.3185V70.2382C64.9004 70.7375 64.8773 71.2406 64.9004 71.7398C64.9004 71.761 64.9004 71.7822 64.9004 71.8034L65.478 71.2252H36.7937C36.4086 71.2252 36.0159 71.2001 35.6308 71.2252C35.6154 71.2252 35.5981 71.2252 35.5808 71.2252L36.1584 71.8034V34.8837C36.1584 34.3845 36.1815 33.8814 36.1584 33.3821C36.1584 33.3609 36.1584 33.3397 36.1584 33.3185L35.5808 33.8968H39.7432C40.4863 33.8968 40.4882 32.7402 39.7432 32.7402H35.5827C35.2689 32.7402 35.0051 33.0062 35.0051 33.3185V70.2382C35.0051 70.7375 34.9936 71.2386 35.0051 71.7398C35.0051 71.761 35.0051 71.7822 35.0051 71.8034C35.0051 72.1157 35.2689 72.3817 35.5827 72.3817H61.8412C63.0368 72.3817 64.2381 72.4184 65.4337 72.3817C65.4491 72.3817 65.4645 72.3817 65.478 72.3817C65.7899 72.3817 66.0555 72.1176 66.0555 71.8034V34.8837C66.0555 34.3845 66.0671 33.8833 66.0555 33.3821C66.0555 33.3609 66.0555 33.3397 66.0555 33.3185C66.0555 33.0062 65.7918 32.7402 65.478 32.7402H61.8296C61.0865 32.7402 61.0846 33.8968 61.8296 33.8968Z" fill="white" stroke="white" stroke-width="0.5"/>
<path d="M57.536 35.2282H43.8455C43.7396 35.2282 43.6357 35.2282 43.5298 35.2282C43.0908 35.2205 42.7077 34.941 42.5941 34.5034C42.5633 34.3878 42.5671 34.382 42.5652 34.2548C42.5652 34.1969 42.5652 34.1372 42.5652 34.0774V32.6626C42.5652 32.5932 42.5652 32.5238 42.5652 32.4544C42.5652 32.4062 42.5729 32.2539 42.5652 32.2982C42.5922 32.1113 42.6172 32.0496 42.7058 31.905C42.7712 31.7951 42.879 31.6833 42.9676 31.6236C43.1717 31.4867 43.3199 31.452 43.5336 31.4482C43.8243 31.4424 44.117 31.4482 44.4077 31.4482H47.3456C47.6594 31.4482 47.9193 31.1841 47.9232 30.8699C47.9347 29.7654 48.6298 28.7129 49.6559 28.337C50.7687 27.9283 51.9489 28.2387 52.719 29.1369C53.1156 29.5996 53.3351 30.2376 53.3408 30.8699C53.3447 31.1822 53.6027 31.4482 53.9184 31.4482H57.2067C57.3588 31.4482 57.5167 31.4366 57.6669 31.4539C57.5879 31.4443 57.7189 31.4655 57.7362 31.4694C57.7882 31.4809 57.8382 31.4964 57.8883 31.5137C57.8055 31.4829 57.9845 31.5619 57.9788 31.558C58.0327 31.587 58.0885 31.6197 58.1366 31.6583C58.2136 31.718 58.385 31.9455 58.4235 32.0496C58.5063 32.277 58.489 32.4428 58.489 32.7146V33.7555C58.489 33.902 58.489 34.0466 58.489 34.1931C58.489 34.3569 58.489 34.4051 58.4427 34.5632C58.3272 34.9526 57.9383 35.2167 57.5321 35.2263C56.789 35.2417 56.787 36.3983 57.5321 36.3829C58.7335 36.3578 59.6402 35.3959 59.6441 34.2027C59.646 33.6052 59.6556 33.0057 59.6441 32.4062C59.6229 31.2265 58.6815 30.3051 57.5071 30.2897C56.9218 30.282 56.3346 30.2897 55.7474 30.2897H53.9146L54.4921 30.868C54.4748 29.2391 53.4621 27.803 51.9412 27.2305C50.4664 26.6754 48.6875 27.1496 47.6825 28.3659C47.0953 29.0772 46.7719 29.9427 46.7623 30.868L47.3398 30.2897H45.0007C44.1247 30.2897 43.0542 30.1355 42.3034 30.6771C41.7066 31.107 41.4062 31.7624 41.4043 32.491C41.4043 32.9671 41.4043 33.4452 41.4043 33.9213C41.4043 34.4899 41.4563 35.0316 41.8086 35.5077C42.2206 36.0629 42.8425 36.3732 43.5317 36.3829C44.7427 36.4002 45.9537 36.3829 47.1627 36.3829H53.5353C54.8445 36.3829 56.1594 36.4156 57.4686 36.3829C57.4897 36.3829 57.509 36.3829 57.5302 36.3829C58.2733 36.3829 58.2752 35.2263 57.5302 35.2263L57.536 35.2282Z" fill="white" stroke="white" stroke-width="0.5"/>
<path d="M49.3188 44.1195H60.7991C61.5422 44.1195 61.5442 42.9629 60.7991 42.9629H49.3188C48.5757 42.9629 48.5738 44.1195 49.3188 44.1195Z" fill="white" stroke="white" stroke-width="0.5"/>
<path d="M50.5299 31.5399C50.6088 31.5437 50.6839 31.5264 50.7532 31.4898C50.8244 31.4666 50.8861 31.4262 50.94 31.3703C50.9958 31.3182 51.0362 31.2565 51.0593 31.1833C51.0959 31.1139 51.1113 31.0406 51.1094 30.9597C51.1017 30.9076 51.0959 30.8575 51.0882 30.8055C51.0613 30.7072 51.0112 30.6223 50.94 30.551C50.9015 30.5202 50.863 30.4913 50.8225 30.4604C50.732 30.4084 50.6358 30.3814 50.5318 30.3814C50.4529 30.3775 50.3778 30.3949 50.3085 30.4315C50.2372 30.4546 50.1756 30.4951 50.1217 30.551C50.0659 30.6031 50.0255 30.6647 50.0024 30.738C49.9658 30.8074 49.9504 30.8806 49.9523 30.9616C49.96 31.0136 49.9658 31.0638 49.9735 31.1158C50.0004 31.2141 50.0505 31.2989 50.1217 31.3703C50.1602 31.4011 50.1987 31.43 50.2392 31.4609C50.3297 31.5129 50.4259 31.5399 50.5299 31.5399Z" fill="white" stroke="white" stroke-width="0.5"/>
<path d="M49.3188 47.4222H54.9463C55.6895 47.4222 55.6914 46.2656 54.9463 46.2656H49.3188C48.5757 46.2656 48.5738 47.4222 49.3188 47.4222Z" fill="white" stroke="white" stroke-width="0.5"/>
<path d="M49.3188 52.9632H60.7991C61.5422 52.9632 61.5442 51.8066 60.7991 51.8066H49.3188C48.5757 51.8066 48.5738 52.9632 49.3188 52.9632Z" fill="white" stroke="white" stroke-width="0.5"/>
<path d="M49.3188 56.2659H54.9463C55.6895 56.2659 55.6914 55.1094 54.9463 55.1094H49.3188C48.5757 55.1094 48.5738 56.2659 49.3188 56.2659Z" fill="white" stroke="white" stroke-width="0.5"/>
<path d="M49.3188 61.8089H60.7991C61.5422 61.8089 61.5442 60.6523 60.7991 60.6523H49.3188C48.5757 60.6523 48.5738 61.8089 49.3188 61.8089Z" fill="white" stroke="white" stroke-width="0.5"/>
<path d="M49.3188 65.1097H55.0599C55.8031 65.1097 55.805 63.9531 55.0599 63.9531H49.3188C48.5757 63.9531 48.5738 65.1097 49.3188 65.1097Z" fill="white" stroke="white" stroke-width="0.5"/>
<path d="M39.7548 45.3577C40.3805 45.907 41.0081 46.4545 41.6338 47.0039C41.8572 47.1985 42.2345 47.2525 42.4501 47.0039C43.2414 46.0979 44.0308 45.1938 44.8221 44.2878L45.1647 43.8965C45.3707 43.6614 45.3958 43.3105 45.1647 43.0792C44.9549 42.8691 44.5544 42.8441 44.3484 43.0792C43.5572 43.9852 42.7678 44.8893 41.9765 45.7952L41.6338 46.1865H42.4501C41.8244 45.6372 41.1968 45.0897 40.5711 44.5404C40.3362 44.3341 39.9858 44.309 39.7548 44.5404C39.5449 44.7505 39.5199 45.1514 39.7548 45.3577Z" fill="white" stroke="white" stroke-width="0.5"/>
<path d="M39.7548 54.2561C40.3805 54.8055 41.0081 55.3529 41.6338 55.9023C41.8572 56.097 42.2345 56.151 42.4501 55.9023C43.2414 54.9963 44.0308 54.0923 44.8221 53.1863L45.1647 52.795C45.3707 52.5598 45.3958 52.209 45.1647 51.9777C44.9549 51.7675 44.5544 51.7425 44.3484 51.9777C43.5572 52.8836 42.7678 53.7877 41.9765 54.6937C41.8629 54.8248 41.7474 54.9558 41.6338 55.085H42.4501C41.8244 54.5356 41.1968 53.9882 40.5711 53.4388C40.3362 53.2325 39.9858 53.2075 39.7548 53.4388C39.5449 53.6489 39.5199 54.0499 39.7548 54.2561Z" fill="white" stroke="white" stroke-width="0.5"/>
<path d="M39.7548 63.1545C40.3805 63.7039 41.0081 64.2514 41.6338 64.8007C41.8572 64.9954 42.2345 65.0494 42.4501 64.8007C43.2414 63.8947 44.0308 62.9907 44.8221 62.0847L45.1647 61.6934C45.3707 61.4582 45.3958 61.1074 45.1647 60.8761C44.9549 60.666 44.5544 60.6409 44.3484 60.8761C43.5572 61.7821 42.7678 62.6861 41.9765 63.5921L41.6338 63.9834H42.4501C41.8244 63.434 41.1968 62.8866 40.5711 62.3372C40.3362 62.131 39.9858 62.1059 39.7548 62.3372C39.5449 62.5473 39.5199 62.9483 39.7548 63.1545Z" fill="white" stroke="white" stroke-width="0.5"/>
</svg>
