<svg width="99" height="99" viewBox="0 0 99 99" fill="none" xmlns="http://www.w3.org/2000/svg">
<circle cx="49.5" cy="49.5" r="49.5" fill="#DD577A"/>
<path d="M60.6841 33.8968H64.3287L63.7517 33.3185V70.2382C63.7517 70.7375 63.7286 71.2406 63.7517 71.7398C63.7517 71.761 63.7517 71.7822 63.7517 71.8034L64.3287 71.2252H35.6742C35.2896 71.2252 34.8972 71.2001 34.5126 71.2252C34.4972 71.2252 34.4799 71.2252 34.4626 71.2252L35.0396 71.8034V34.8837C35.0396 34.3845 35.0626 33.8814 35.0396 33.3821C35.0396 33.3609 35.0396 33.3397 35.0396 33.3185L34.4626 33.8968H38.6207C39.363 33.8968 39.3649 32.7402 38.6207 32.7402H34.4645C34.151 32.7402 33.8875 33.0062 33.8875 33.3185V70.2382C33.8875 70.7375 33.876 71.2386 33.8875 71.7398C33.8875 71.761 33.8875 71.7822 33.8875 71.8034C33.8875 72.1157 34.151 72.3817 34.4645 72.3817H60.6957C61.89 72.3817 63.0901 72.4184 64.2844 72.3817C64.2998 72.3817 64.3152 72.3817 64.3287 72.3817C64.6402 72.3817 64.9056 72.1176 64.9056 71.8034V34.8837C64.9056 34.3845 64.9172 33.8833 64.9056 33.3821C64.9056 33.3609 64.9056 33.3397 64.9056 33.3185C64.9056 33.0062 64.6422 32.7402 64.3287 32.7402H60.6841C59.9417 32.7402 59.9398 33.8968 60.6841 33.8968Z" fill="white" stroke="white" stroke-width="0.5"/>
<path d="M56.3953 35.2282H42.7191C42.6133 35.2282 42.5094 35.2282 42.4036 35.2282C41.9651 35.2205 41.5824 34.941 41.469 34.5034C41.4382 34.3878 41.442 34.382 41.4401 34.2548C41.4401 34.1969 41.4401 34.1372 41.4401 34.0774V32.6626C41.4401 32.5932 41.4401 32.5238 41.4401 32.4544C41.4401 32.4062 41.4478 32.2539 41.4401 32.2982C41.467 32.1113 41.492 32.0496 41.5805 31.905C41.6459 31.7951 41.7536 31.6833 41.8421 31.6236C42.0459 31.4867 42.194 31.452 42.4075 31.4482C42.6979 31.4424 42.9902 31.4482 43.2806 31.4482H46.2155C46.529 31.4482 46.7886 31.1841 46.7925 30.8699C46.804 29.7654 47.4983 28.7129 48.5234 28.337C49.635 27.9283 50.814 28.2387 51.5833 29.1369C51.9795 29.5996 52.1987 30.2376 52.2045 30.8699C52.2084 31.1822 52.4661 31.4482 52.7815 31.4482H56.0664C56.2183 31.4482 56.376 31.4366 56.526 31.4539C56.4472 31.4443 56.578 31.4655 56.5953 31.4694C56.6472 31.4809 56.6972 31.4964 56.7472 31.5137C56.6645 31.4829 56.8434 31.5619 56.8376 31.558C56.8915 31.587 56.9472 31.6197 56.9953 31.6583C57.0722 31.718 57.2434 31.9455 57.2819 32.0496C57.3646 32.277 57.3473 32.4428 57.3473 32.7146V33.7555C57.3473 33.902 57.3473 34.0466 57.3473 34.1931C57.3473 34.3569 57.3473 34.4051 57.3011 34.5632C57.1857 34.9526 56.7972 35.2167 56.3914 35.2263C55.649 35.2417 55.6471 36.3983 56.3914 36.3829C57.5915 36.3578 58.4974 35.3959 58.5012 34.2027C58.5031 33.6052 58.5127 33.0057 58.5012 32.4062C58.4801 31.2265 57.5396 30.3051 56.3664 30.2897C55.7817 30.282 55.1952 30.2897 54.6086 30.2897H52.7776L53.3546 30.868C53.3373 29.2391 52.3257 27.803 50.8063 27.2305C49.3331 26.6754 47.556 27.1496 46.5521 28.3659C45.9655 29.0772 45.6424 29.9427 45.6328 30.868L46.2098 30.2897H43.873C42.9979 30.2897 41.9286 30.1355 41.1785 30.6771C40.5823 31.107 40.2823 31.7624 40.2804 32.491C40.2804 32.9671 40.2804 33.4452 40.2804 33.9213C40.2804 34.4899 40.3323 35.0316 40.6843 35.5077C41.0958 36.0629 41.717 36.3732 42.4056 36.3829C43.6153 36.4002 44.825 36.3829 46.0328 36.3829H52.3988C53.7066 36.3829 55.0201 36.4156 56.3279 36.3829C56.3491 36.3829 56.3683 36.3829 56.3895 36.3829C57.1319 36.3829 57.1338 35.2263 56.3895 35.2263L56.3953 35.2282Z" fill="white" stroke="white" stroke-width="0.5"/>
<path d="M48.1868 44.1195H59.6551C60.3975 44.1195 60.3994 42.9629 59.6551 42.9629H48.1868C47.4445 42.9629 47.4425 44.1195 48.1868 44.1195Z" fill="white" stroke="white" stroke-width="0.5"/>
<path d="M49.3965 31.5399C49.4754 31.5437 49.5504 31.5264 49.6196 31.4898C49.6908 31.4666 49.7523 31.4262 49.8062 31.3703C49.862 31.3182 49.9023 31.2565 49.9254 31.1833C49.962 31.1139 49.9774 31.0406 49.9754 30.9597C49.9677 30.9076 49.962 30.8575 49.9543 30.8055C49.9273 30.7072 49.8773 30.6223 49.8062 30.551C49.7677 30.5202 49.7293 30.4913 49.6889 30.4604C49.5985 30.4084 49.5023 30.3814 49.3985 30.3814C49.3196 30.3775 49.2446 30.3949 49.1754 30.4315C49.1042 30.4546 49.0427 30.4951 48.9888 30.551C48.933 30.6031 48.8926 30.6647 48.8696 30.738C48.833 30.8074 48.8176 30.8806 48.8196 30.9616C48.8273 31.0136 48.833 31.0638 48.8407 31.1158C48.8676 31.2141 48.9176 31.2989 48.9888 31.3703C49.0273 31.4011 49.0657 31.43 49.1061 31.4609C49.1965 31.5129 49.2927 31.5399 49.3965 31.5399Z" fill="white" stroke="white" stroke-width="0.5"/>
<path d="M48.1868 47.4222H53.8085C54.5508 47.4222 54.5528 46.2656 53.8085 46.2656H48.1868C47.4445 46.2656 47.4425 47.4222 48.1868 47.4222Z" fill="white" stroke="white" stroke-width="0.5"/>
<path d="M48.1868 52.9632H59.6551C60.3975 52.9632 60.3994 51.8066 59.6551 51.8066H48.1868C47.4445 51.8066 47.4425 52.9632 48.1868 52.9632Z" fill="white" stroke="white" stroke-width="0.5"/>
<path d="M48.1868 56.2659H53.8085C54.5508 56.2659 54.5528 55.1094 53.8085 55.1094H48.1868C47.4445 55.1094 47.4425 56.2659 48.1868 56.2659Z" fill="white" stroke="white" stroke-width="0.5"/>
<path d="M48.1868 61.8089H59.6551C60.3975 61.8089 60.3994 60.6523 59.6551 60.6523H48.1868C47.4445 60.6523 47.4425 61.8089 48.1868 61.8089Z" fill="white" stroke="white" stroke-width="0.5"/>
<path d="M48.1868 65.1097H53.9219C54.6643 65.1097 54.6662 63.9531 53.9219 63.9531H48.1868C47.4445 63.9531 47.4425 65.1097 48.1868 65.1097Z" fill="white" stroke="white" stroke-width="0.5"/>
<path d="M38.6322 45.3577C39.2573 45.907 39.8842 46.4545 40.5093 47.0039C40.7324 47.1985 41.1093 47.2525 41.3247 47.0039C42.1152 46.0979 42.9037 45.1938 43.6942 44.2878L44.0365 43.8965C44.2423 43.6614 44.2673 43.3105 44.0365 43.0792C43.8269 42.8691 43.4268 42.8441 43.2211 43.0792C42.4306 43.9852 41.6421 44.8893 40.8516 45.7952L40.5093 46.1865H41.3247C40.6997 45.6372 40.0727 45.0897 39.4477 44.5404C39.213 44.3341 38.863 44.309 38.6322 44.5404C38.4226 44.7505 38.3976 45.1514 38.6322 45.3577Z" fill="white" stroke="white" stroke-width="0.5"/>
<path d="M38.6322 54.2561C39.2573 54.8055 39.8842 55.3529 40.5093 55.9023C40.7324 56.097 41.1093 56.151 41.3247 55.9023C42.1152 54.9963 42.9037 54.0923 43.6942 53.1863L44.0365 52.795C44.2423 52.5598 44.2673 52.209 44.0365 51.9777C43.8269 51.7675 43.4268 51.7425 43.2211 51.9777C42.4306 52.8836 41.6421 53.7877 40.8516 54.6937C40.7381 54.8248 40.6228 54.9558 40.5093 55.085H41.3247C40.6997 54.5356 40.0727 53.9882 39.4477 53.4388C39.213 53.2325 38.863 53.2075 38.6322 53.4388C38.4226 53.6489 38.3976 54.0499 38.6322 54.2561Z" fill="white" stroke="white" stroke-width="0.5"/>
<path d="M38.6322 63.1545C39.2573 63.7039 39.8842 64.2514 40.5093 64.8007C40.7324 64.9954 41.1093 65.0494 41.3247 64.8007C42.1152 63.8947 42.9037 62.9907 43.6942 62.0847L44.0365 61.6934C44.2423 61.4582 44.2673 61.1074 44.0365 60.8761C43.8269 60.666 43.4268 60.6409 43.2211 60.8761C42.4306 61.7821 41.6421 62.6861 40.8516 63.5921L40.5093 63.9834H41.3247C40.6997 63.434 40.0727 62.8866 39.4477 62.3372C39.213 62.131 38.863 62.1059 38.6322 62.3372C38.4226 62.5473 38.3976 62.9483 38.6322 63.1545Z" fill="white" stroke="white" stroke-width="0.5"/>
</svg>
